<?xml version="1.0" encoding="UTF-8"?>
<svg xmlns="http://www.w3.org/2000/svg" xmlns:xlink="http://www.w3.org/1999/xlink" width="24px" height="24px" viewBox="0 0 24 24" version="1.1">
<g id="surface1">
<path style=" stroke:none;fill-rule:evenodd;fill:rgb(65.098039%,77.647059%,84.313725%);fill-opacity:1;" d="M 10.441406 1.394531 C 10.441406 1.386719 10.441406 1.378906 10.441406 1.371094 C 12.8125 1.363281 15.179688 1.371094 17.542969 1.394531 C 17.535156 1.394531 17.527344 1.394531 17.519531 1.394531 C 15.164062 1.394531 12.804688 1.394531 10.441406 1.394531 Z M 10.441406 1.394531 "/>
<path style=" stroke:none;fill-rule:evenodd;fill:rgb(40.392157%,16.470588%,4.313725%);fill-opacity:1;" d="M 10.441406 1.394531 C 12.804688 1.394531 15.164062 1.394531 17.519531 1.394531 C 18.039062 1.457031 18.554688 1.5625 19.066406 1.710938 C 19.332031 1.828125 19.597656 1.949219 19.863281 2.074219 C 20.75 2.582031 21.472656 3.269531 22.03125 4.136719 C 22.175781 4.402344 22.3125 4.667969 22.441406 4.933594 C 22.671875 5.519531 22.816406 6.128906 22.875 6.761719 C 22.886719 8.136719 22.890625 9.511719 22.886719 10.886719 C 22.890625 12.949219 22.886719 15.011719 22.875 17.074219 C 22.722656 18.722656 22.023438 20.085938 20.777344 21.164062 C 20.542969 21.3125 20.316406 21.46875 20.097656 21.632812 C 19.945312 21.699219 19.796875 21.773438 19.652344 21.855469 C 19.335938 22.035156 19 22.164062 18.644531 22.242188 C 18.316406 22.308594 17.988281 22.363281 17.660156 22.40625 C 17.332031 22.417969 17.003906 22.421875 16.675781 22.417969 C 13.488281 22.421875 10.300781 22.417969 7.113281 22.40625 C 6.664062 22.351562 6.21875 22.273438 5.777344 22.171875 C 5.375 22.007812 4.984375 21.820312 4.605469 21.609375 C 4.429688 21.464844 4.242188 21.339844 4.042969 21.234375 C 3.890625 21.066406 3.722656 20.914062 3.539062 20.777344 C 3.382812 20.59375 3.222656 20.414062 3.058594 20.238281 C 2.984375 20.09375 2.890625 19.960938 2.777344 19.839844 C 2.300781 19.011719 2 18.121094 1.875 17.167969 C 1.859375 13.675781 1.859375 10.183594 1.875 6.691406 C 2 5.644531 2.347656 4.683594 2.917969 3.808594 C 3.394531 3.191406 3.957031 2.664062 4.605469 2.226562 C 4.972656 2.035156 5.347656 1.855469 5.730469 1.6875 C 6.238281 1.546875 6.753906 1.453125 7.277344 1.40625 C 8.332031 1.394531 9.386719 1.390625 10.441406 1.394531 Z M 10.441406 1.394531 "/>
<path style=" stroke:none;fill-rule:evenodd;fill:rgb(52.156863%,69.411765%,79.215686%);fill-opacity:1;" d="M 17.519531 1.394531 C 17.527344 1.394531 17.535156 1.394531 17.542969 1.394531 C 18.175781 1.4375 18.785156 1.574219 19.371094 1.804688 C 19.546875 1.878906 19.710938 1.96875 19.863281 2.074219 C 19.597656 1.949219 19.332031 1.828125 19.066406 1.710938 C 18.554688 1.5625 18.039062 1.457031 17.519531 1.394531 Z M 17.519531 1.394531 "/>
<path style=" stroke:none;fill-rule:evenodd;fill:rgb(51.764706%,69.019608%,78.431373%);fill-opacity:1;" d="M 10.441406 1.371094 C 10.441406 1.378906 10.441406 1.386719 10.441406 1.394531 C 9.386719 1.390625 8.332031 1.394531 7.277344 1.40625 C 6.753906 1.453125 6.238281 1.546875 5.730469 1.6875 C 5.347656 1.855469 4.972656 2.035156 4.605469 2.226562 C 3.957031 2.664062 3.394531 3.191406 2.917969 3.808594 C 3.800781 2.558594 4.996094 1.78125 6.503906 1.476562 C 6.738281 1.441406 6.972656 1.410156 7.207031 1.382812 C 8.285156 1.371094 9.363281 1.367188 10.441406 1.371094 Z M 10.441406 1.371094 "/>
<path style=" stroke:none;fill-rule:evenodd;fill:rgb(53.72549%,69.803922%,79.215686%);fill-opacity:1;" d="M 19.863281 2.074219 C 19.988281 2.121094 20.105469 2.179688 20.214844 2.25 C 21.132812 2.847656 21.839844 3.640625 22.335938 4.628906 C 22.386719 4.726562 22.421875 4.828125 22.441406 4.933594 C 22.3125 4.667969 22.175781 4.402344 22.03125 4.136719 C 21.472656 3.269531 20.75 2.582031 19.863281 2.074219 Z M 19.863281 2.074219 "/>
<path style=" stroke:none;fill-rule:evenodd;fill:rgb(96.862745%,97.647059%,98.039216%);fill-opacity:1;" d="M 8.191406 6.152344 C 8.191406 6.183594 8.191406 6.214844 8.191406 6.246094 C 8.175781 6.265625 8.152344 6.273438 8.121094 6.269531 C 8.085938 6.269531 8.0625 6.285156 8.050781 6.316406 C 8.007812 6.308594 7.976562 6.324219 7.957031 6.363281 C 7.921875 6.390625 7.882812 6.414062 7.839844 6.433594 C 7.796875 6.425781 7.765625 6.441406 7.746094 6.480469 C 7.523438 6.71875 7.296875 6.945312 7.066406 7.160156 C 7.050781 7.164062 7.039062 7.171875 7.03125 7.183594 C 7.011719 7.152344 6.984375 7.136719 6.949219 7.136719 C 6.761719 7.011719 6.582031 6.878906 6.410156 6.738281 C 6.378906 6.683594 6.332031 6.644531 6.269531 6.621094 C 5.980469 6.476562 5.714844 6.296875 5.472656 6.082031 C 5.503906 6.019531 5.542969 5.964844 5.589844 5.917969 C 5.597656 5.898438 5.613281 5.890625 5.636719 5.894531 C 5.8125 5.804688 5.976562 5.695312 6.128906 5.566406 C 6.207031 5.503906 6.292969 5.449219 6.386719 5.402344 C 6.464844 5.378906 6.527344 5.332031 6.574219 5.261719 C 6.652344 5.246094 6.714844 5.207031 6.761719 5.144531 C 6.808594 5.117188 6.855469 5.121094 6.902344 5.15625 C 7.199219 5.421875 7.511719 5.671875 7.839844 5.90625 C 7.980469 5.957031 8.097656 6.039062 8.191406 6.152344 Z M 8.191406 6.152344 "/>
<path style=" stroke:none;fill-rule:evenodd;fill:rgb(58.039216%,72.54902%,81.176471%);fill-opacity:1;" d="M 6.761719 5.144531 C 6.714844 5.207031 6.652344 5.246094 6.574219 5.261719 C 6.628906 5.210938 6.691406 5.171875 6.761719 5.144531 Z M 6.761719 5.144531 "/>
<path style=" stroke:none;fill-rule:evenodd;fill:rgb(57.254902%,72.54902%,80.784314%);fill-opacity:1;" d="M 6.574219 5.261719 C 6.527344 5.332031 6.464844 5.378906 6.386719 5.402344 C 6.441406 5.34375 6.503906 5.296875 6.574219 5.261719 Z M 6.574219 5.261719 "/>
<path style=" stroke:none;fill-rule:evenodd;fill:rgb(56.078431%,70.980392%,80%);fill-opacity:1;" d="M 6.128906 5.566406 C 5.976562 5.695312 5.8125 5.804688 5.636719 5.894531 C 5.789062 5.769531 5.953125 5.660156 6.128906 5.566406 Z M 6.128906 5.566406 "/>
<path style=" stroke:none;fill-rule:evenodd;fill:rgb(54.509804%,70.588235%,79.215686%);fill-opacity:1;" d="M 5.589844 5.917969 C 5.542969 5.964844 5.503906 6.019531 5.472656 6.082031 C 5.460938 6 5.5 5.945312 5.589844 5.917969 Z M 5.589844 5.917969 "/>
<path style=" stroke:none;fill-rule:evenodd;fill:rgb(36.862745%,60%,72.54902%);fill-opacity:1;" d="M 14.566406 6.082031 C 14.585938 6.066406 14.609375 6.058594 14.636719 6.058594 C 14.671875 6.0625 14.695312 6.078125 14.707031 6.105469 C 14.664062 6.085938 14.617188 6.078125 14.566406 6.082031 Z M 14.566406 6.082031 "/>
<path style=" stroke:none;fill-rule:evenodd;fill:rgb(98.039216%,98.431373%,98.431373%);fill-opacity:1;" d="M 14.566406 6.082031 C 14.617188 6.078125 14.664062 6.085938 14.707031 6.105469 C 14.796875 6.269531 14.875 6.441406 14.941406 6.621094 C 14.9375 6.710938 14.960938 6.789062 15.011719 6.855469 C 15.046875 6.902344 15.0625 6.957031 15.058594 7.019531 C 15.058594 7.050781 15.058594 7.082031 15.058594 7.113281 C 15.386719 7.121094 15.714844 7.113281 16.042969 7.089844 C 16.074219 7.03125 16.089844 6.96875 16.089844 6.902344 C 16.164062 6.609375 16.28125 6.335938 16.441406 6.082031 C 16.589844 6.125 16.738281 6.164062 16.886719 6.199219 C 17.332031 6.351562 17.769531 6.515625 18.199219 6.691406 C 18.214844 6.730469 18.242188 6.761719 18.28125 6.785156 C 18.285156 6.820312 18.289062 6.855469 18.292969 6.890625 C 18.265625 7.035156 18.242188 7.179688 18.222656 7.324219 C 18.179688 7.394531 18.15625 7.472656 18.152344 7.558594 C 18.109375 7.628906 18.085938 7.707031 18.082031 7.792969 C 18.085938 7.824219 18.078125 7.847656 18.058594 7.863281 C 18.03125 7.894531 18.039062 7.921875 18.082031 7.945312 C 18.117188 7.96875 18.15625 7.980469 18.199219 7.980469 C 18.238281 8.023438 18.285156 8.054688 18.339844 8.074219 C 18.417969 8.101562 18.488281 8.144531 18.550781 8.203125 C 18.570312 8.21875 18.578125 8.238281 18.574219 8.261719 C 18.585938 8.3125 18.617188 8.351562 18.667969 8.378906 C 18.714844 8.40625 18.761719 8.40625 18.808594 8.378906 C 18.875 8.390625 18.921875 8.367188 18.949219 8.308594 C 18.988281 8.273438 19.035156 8.25 19.089844 8.238281 C 19.148438 8.222656 19.203125 8.199219 19.253906 8.167969 C 19.261719 8.148438 19.277344 8.140625 19.300781 8.144531 C 19.359375 8.140625 19.40625 8.117188 19.441406 8.074219 C 19.519531 8.007812 19.605469 7.984375 19.699219 8.003906 C 19.710938 8.054688 19.742188 8.09375 19.792969 8.121094 C 19.804688 8.171875 19.835938 8.210938 19.886719 8.238281 C 20.183594 8.613281 20.425781 9.023438 20.613281 9.46875 C 20.605469 9.546875 20.566406 9.609375 20.496094 9.65625 C 20.25 9.828125 20.015625 10.011719 19.792969 10.207031 C 19.777344 10.210938 19.769531 10.222656 19.769531 10.242188 C 19.785156 10.304688 19.808594 10.363281 19.839844 10.417969 C 19.871094 10.507812 19.894531 10.601562 19.910156 10.699219 C 19.910156 10.746094 19.910156 10.792969 19.910156 10.839844 C 20.027344 10.859375 20.144531 10.875 20.261719 10.886719 C 20.53125 10.945312 20.804688 10.992188 21.082031 11.027344 C 21.171875 11.433594 21.195312 11.847656 21.152344 12.269531 C 21.160156 12.332031 21.152344 12.390625 21.128906 12.445312 C 20.902344 12.492188 20.675781 12.535156 20.449219 12.574219 C 20.335938 12.578125 20.226562 12.59375 20.121094 12.621094 C 20.058594 12.617188 19.996094 12.621094 19.933594 12.632812 C 19.914062 12.671875 19.90625 12.714844 19.910156 12.761719 C 19.90625 12.847656 19.882812 12.925781 19.839844 12.996094 C 19.808594 13.035156 19.785156 13.082031 19.769531 13.136719 C 19.773438 13.152344 19.78125 13.160156 19.792969 13.160156 C 19.8125 13.167969 19.820312 13.183594 19.816406 13.207031 C 19.800781 13.347656 19.863281 13.425781 20.003906 13.441406 C 20.027344 13.488281 20.066406 13.519531 20.121094 13.535156 C 20.210938 13.570312 20.289062 13.625 20.355469 13.699219 C 20.367188 13.765625 20.40625 13.796875 20.472656 13.792969 C 20.523438 13.820312 20.554688 13.859375 20.566406 13.910156 C 20.5625 13.988281 20.554688 14.066406 20.542969 14.144531 C 20.351562 14.507812 20.132812 14.851562 19.886719 15.175781 C 19.835938 15.207031 19.8125 15.253906 19.816406 15.316406 C 19.792969 15.363281 19.753906 15.394531 19.699219 15.410156 C 19.644531 15.394531 19.589844 15.386719 19.535156 15.386719 C 19.265625 15.300781 19.007812 15.183594 18.761719 15.035156 C 18.539062 15.214844 18.304688 15.382812 18.058594 15.539062 C 18.09375 15.625 18.117188 15.714844 18.128906 15.808594 C 18.128906 15.878906 18.144531 15.941406 18.175781 15.996094 C 18.210938 16.035156 18.226562 16.082031 18.222656 16.136719 C 18.21875 16.207031 18.234375 16.269531 18.269531 16.324219 C 18.363281 16.511719 18.324219 16.664062 18.152344 16.78125 C 17.777344 16.894531 17.410156 17.027344 17.050781 17.179688 C 16.964844 17.203125 16.878906 17.222656 16.792969 17.238281 C 16.730469 17.234375 16.675781 17.25 16.628906 17.285156 C 16.558594 17.289062 16.488281 17.28125 16.417969 17.261719 C 16.394531 17.265625 16.375 17.257812 16.359375 17.238281 C 16.304688 17.097656 16.253906 16.957031 16.207031 16.816406 C 16.171875 16.660156 16.117188 16.511719 16.042969 16.371094 C 16.03125 16.308594 15.992188 16.277344 15.925781 16.277344 C 15.664062 16.308594 15.402344 16.308594 15.140625 16.277344 C 15.117188 16.289062 15.097656 16.304688 15.082031 16.324219 C 15.042969 16.394531 15.019531 16.472656 15.011719 16.558594 C 14.960938 16.636719 14.929688 16.722656 14.917969 16.816406 C 14.867188 16.910156 14.828125 17.011719 14.800781 17.121094 C 14.789062 17.25 14.71875 17.3125 14.589844 17.308594 C 14.554688 17.308594 14.523438 17.300781 14.496094 17.285156 C 14.441406 17.25 14.378906 17.234375 14.308594 17.238281 C 13.96875 17.148438 13.640625 17.03125 13.324219 16.886719 C 13.277344 16.847656 13.222656 16.832031 13.160156 16.839844 C 12.894531 16.8125 12.785156 16.671875 12.832031 16.417969 C 12.863281 16.34375 12.878906 16.265625 12.878906 16.183594 C 12.921875 15.96875 12.976562 15.757812 13.042969 15.550781 C 13.015625 15.503906 12.976562 15.472656 12.925781 15.457031 C 12.886719 15.421875 12.839844 15.398438 12.785156 15.386719 C 12.761719 15.390625 12.746094 15.382812 12.738281 15.363281 C 12.660156 15.269531 12.574219 15.183594 12.480469 15.105469 C 12.457031 15.097656 12.441406 15.082031 12.433594 15.058594 C 12.304688 15.039062 12.171875 15.027344 12.035156 15.023438 C 12.019531 15 11.996094 14.988281 11.964844 14.988281 C 11.847656 14.824219 11.738281 14.652344 11.636719 14.472656 C 11.621094 14.417969 11.589844 14.378906 11.542969 14.355469 C 11.441406 14.234375 11.355469 14.101562 11.285156 13.957031 C 11.265625 13.863281 11.21875 13.792969 11.144531 13.746094 C 11.089844 13.671875 11.039062 13.59375 10.992188 13.511719 C 10.972656 13.476562 10.976562 13.445312 11.003906 13.417969 C 11.375 13.363281 11.75 13.355469 12.128906 13.394531 C 12.316406 13.640625 12.492188 13.898438 12.65625 14.167969 C 12.664062 14.15625 12.675781 14.148438 12.691406 14.144531 C 12.71875 14.09375 12.734375 14.039062 12.738281 13.980469 C 12.941406 13.429688 13.152344 12.882812 13.371094 12.339844 C 13.398438 12.300781 13.414062 12.253906 13.417969 12.199219 C 13.457031 12.152344 13.472656 12.097656 13.464844 12.035156 C 13.507812 11.878906 13.570312 11.730469 13.652344 11.589844 C 13.714844 11.519531 13.746094 11.433594 13.746094 11.332031 C 13.808594 11.277344 13.839844 11.207031 13.839844 11.121094 C 14.015625 10.613281 14.191406 10.105469 14.367188 9.597656 C 14.414062 9.5 14.464844 9.40625 14.519531 9.316406 C 14.5625 9.261719 14.585938 9.199219 14.589844 9.128906 C 14.636719 8.941406 14.707031 8.761719 14.800781 8.589844 C 15 8.496094 15.203125 8.410156 15.410156 8.332031 C 15.476562 8.296875 15.546875 8.28125 15.621094 8.285156 C 15.757812 8.574219 15.875 8.871094 15.972656 9.175781 C 15.996094 9.242188 16.019531 9.304688 16.042969 9.363281 C 16.101562 9.429688 16.125 9.507812 16.113281 9.597656 C 16.132812 9.65625 16.15625 9.710938 16.183594 9.761719 C 16.238281 9.851562 16.289062 9.945312 16.335938 10.042969 C 16.425781 10.257812 16.5 10.476562 16.558594 10.699219 C 16.574219 10.808594 16.613281 10.910156 16.675781 11.003906 C 16.707031 11.015625 16.726562 11.039062 16.734375 11.074219 C 16.8125 11.320312 16.902344 11.5625 17.003906 11.800781 C 17 11.847656 17.015625 11.886719 17.050781 11.917969 C 17.085938 11.980469 17.109375 12.050781 17.121094 12.128906 C 17.125 12.183594 17.140625 12.230469 17.167969 12.269531 C 17.222656 12.347656 17.265625 12.433594 17.296875 12.527344 C 17.511719 13.109375 17.734375 13.6875 17.964844 14.261719 C 17.972656 14.300781 17.988281 14.335938 18.011719 14.367188 C 18.042969 14.378906 18.058594 14.367188 18.058594 14.332031 C 18.074219 14.335938 18.089844 14.332031 18.105469 14.320312 C 18.152344 14.269531 18.191406 14.21875 18.222656 14.167969 C 18.285156 14.152344 18.324219 14.113281 18.339844 14.050781 C 18.335938 14.027344 18.34375 14.011719 18.363281 14.003906 C 18.414062 13.976562 18.445312 13.9375 18.457031 13.886719 C 18.5625 13.800781 18.632812 13.691406 18.667969 13.558594 C 18.792969 13.304688 18.910156 13.046875 19.019531 12.785156 C 19.058594 12.738281 19.074219 12.683594 19.066406 12.621094 C 19.070312 12.566406 19.085938 12.519531 19.113281 12.480469 C 19.148438 12.378906 19.167969 12.269531 19.171875 12.152344 C 19.191406 11.84375 19.1875 11.539062 19.160156 11.238281 C 19.171875 11.082031 19.148438 10.933594 19.089844 10.792969 C 19.097656 10.730469 19.082031 10.675781 19.042969 10.628906 C 19 10.566406 18.976562 10.496094 18.972656 10.417969 C 18.933594 10.265625 18.871094 10.125 18.785156 9.996094 C 18.734375 9.914062 18.6875 9.828125 18.644531 9.738281 C 18.644531 9.703125 18.628906 9.679688 18.597656 9.667969 C 18.457031 9.488281 18.316406 9.308594 18.175781 9.128906 C 18.160156 9.066406 18.121094 9.027344 18.058594 9.011719 C 17.828125 8.808594 17.585938 8.621094 17.332031 8.449219 C 17.304688 8.390625 17.257812 8.367188 17.191406 8.378906 C 16.925781 8.265625 16.660156 8.164062 16.394531 8.074219 C 16.316406 8.03125 16.230469 8.007812 16.136719 8.003906 C 16.0625 8.011719 15.992188 8.003906 15.925781 7.980469 C 15.816406 7.945312 15.699219 7.929688 15.574219 7.933594 C 15.492188 7.933594 15.414062 7.941406 15.339844 7.957031 C 15.136719 7.953125 14.941406 7.976562 14.753906 8.027344 C 14.738281 8.046875 14.714844 8.054688 14.683594 8.050781 C 14.574219 8.050781 14.472656 8.074219 14.378906 8.121094 C 14.308594 8.160156 14.238281 8.191406 14.167969 8.214844 C 14.15625 8.246094 14.132812 8.265625 14.097656 8.273438 C 14.007812 8.289062 13.921875 8.316406 13.839844 8.355469 C 13.796875 8.347656 13.765625 8.363281 13.746094 8.402344 C 13.6875 8.4375 13.625 8.46875 13.558594 8.496094 C 13.484375 8.546875 13.414062 8.601562 13.347656 8.660156 C 13.277344 8.726562 13.199219 8.78125 13.113281 8.824219 C 13.082031 8.839844 13.058594 8.863281 13.042969 8.894531 C 13.019531 8.917969 12.996094 8.941406 12.972656 8.964844 C 12.945312 8.976562 12.921875 8.992188 12.902344 9.011719 C 12.8125 9.117188 12.710938 9.210938 12.597656 9.292969 C 11.527344 9.316406 10.457031 9.324219 9.386719 9.316406 C 9.378906 10.125 9.386719 10.929688 9.410156 11.730469 C 9.519531 11.707031 9.628906 11.675781 9.738281 11.636719 C 9.789062 11.625 9.828125 11.59375 9.855469 11.542969 C 9.863281 11.542969 9.871094 11.542969 9.878906 11.542969 C 9.894531 11.546875 9.910156 11.542969 9.925781 11.53125 C 10.0625 11.371094 10.207031 11.21875 10.359375 11.074219 C 10.394531 11.035156 10.414062 10.988281 10.417969 10.933594 C 10.5 10.859375 10.5625 10.773438 10.605469 10.675781 C 10.648438 10.640625 10.671875 10.59375 10.675781 10.535156 C 10.714844 10.472656 10.753906 10.410156 10.792969 10.347656 C 10.835938 10.3125 10.859375 10.265625 10.863281 10.207031 C 11.09375 10.191406 11.328125 10.183594 11.566406 10.183594 C 11.8125 10.179688 12.054688 10.191406 12.292969 10.21875 C 12.214844 10.4375 12.101562 10.636719 11.953125 10.816406 C 11.777344 11.128906 11.570312 11.417969 11.332031 11.683594 C 11.269531 11.726562 11.28125 11.75 11.367188 11.753906 C 11.839844 11.730469 12.3125 11.722656 12.785156 11.730469 C 12.808594 11.75 12.8125 11.773438 12.796875 11.800781 C 12.757812 11.910156 12.707031 12.011719 12.644531 12.105469 C 12.589844 12.144531 12.566406 12.199219 12.574219 12.269531 C 12.566406 12.3125 12.550781 12.351562 12.527344 12.386719 C 12.484375 12.433594 12.460938 12.488281 12.457031 12.550781 C 12.453125 12.589844 12.4375 12.621094 12.410156 12.644531 C 12.371094 12.664062 12.355469 12.695312 12.363281 12.738281 C 12.335938 12.816406 12.304688 12.894531 12.269531 12.972656 C 12.25 12.980469 12.230469 12.988281 12.210938 12.996094 C 12.09375 12.957031 11.972656 12.941406 11.847656 12.949219 C 11.253906 12.949219 10.660156 12.941406 10.066406 12.925781 C 10.0625 12.988281 10.078125 13.042969 10.113281 13.089844 C 10.175781 13.253906 10.246094 13.417969 10.324219 13.582031 C 10.328125 13.652344 10.351562 13.714844 10.394531 13.769531 C 10.597656 14.1875 10.8125 14.601562 11.039062 15.011719 C 11.308594 15.371094 11.554688 15.746094 11.777344 16.136719 C 11.789062 16.1875 11.820312 16.226562 11.871094 16.253906 C 11.945312 16.320312 12 16.398438 12.035156 16.488281 C 12.046875 16.539062 12.078125 16.578125 12.128906 16.605469 C 12.230469 16.707031 12.324219 16.816406 12.410156 16.933594 C 12.433594 16.996094 12.472656 17.042969 12.527344 17.074219 C 12.628906 17.167969 12.722656 17.269531 12.808594 17.378906 C 12.847656 17.464844 12.910156 17.527344 12.996094 17.566406 C 13.089844 17.632812 13.183594 17.707031 13.277344 17.789062 C 13.296875 17.804688 13.304688 17.824219 13.300781 17.847656 C 13.332031 17.902344 13.378906 17.941406 13.441406 17.964844 C 13.488281 17.996094 13.527344 18.035156 13.558594 18.082031 C 13.558594 18.105469 13.566406 18.128906 13.582031 18.152344 C 13.097656 18.175781 12.613281 18.183594 12.128906 18.175781 C 11.847656 18.054688 11.605469 17.882812 11.402344 17.660156 C 11.386719 17.597656 11.347656 17.558594 11.285156 17.542969 C 11.238281 17.480469 11.183594 17.425781 11.121094 17.378906 C 10.984375 17.261719 10.878906 17.121094 10.804688 16.957031 C 10.75 16.902344 10.695312 16.847656 10.640625 16.792969 C 10.503906 16.566406 10.367188 16.339844 10.230469 16.113281 C 10.210938 16.058594 10.179688 16.011719 10.136719 15.972656 C 10.113281 15.9375 10.097656 15.898438 10.089844 15.855469 C 10.082031 15.789062 10.050781 15.742188 9.996094 15.714844 C 9.742188 15.375 9.53125 15.007812 9.363281 14.613281 C 9.351562 14.550781 9.328125 14.496094 9.292969 14.449219 C 9.273438 14.378906 9.242188 14.316406 9.199219 14.261719 C 9.148438 14.203125 9.117188 14.132812 9.105469 14.050781 C 9.085938 13.957031 9.046875 13.871094 8.988281 13.792969 C 8.96875 13.777344 8.960938 13.753906 8.964844 13.722656 C 8.953125 13.644531 8.921875 13.574219 8.871094 13.511719 C 8.851562 13.53125 8.84375 13.554688 8.847656 13.582031 C 8.847656 13.597656 8.839844 13.605469 8.824219 13.605469 C 8.777344 13.648438 8.753906 13.703125 8.753906 13.769531 C 8.734375 13.855469 8.703125 13.933594 8.660156 14.003906 C 8.617188 14.050781 8.59375 14.105469 8.589844 14.167969 C 8.585938 14.207031 8.570312 14.238281 8.542969 14.261719 C 8.492188 14.28125 8.46875 14.320312 8.472656 14.378906 C 8.460938 14.40625 8.445312 14.429688 8.425781 14.449219 C 8.375 14.480469 8.34375 14.527344 8.332031 14.589844 C 8.292969 14.6875 8.25 14.78125 8.203125 14.871094 C 8.058594 15.066406 7.925781 15.269531 7.804688 15.480469 C 7.550781 15.800781 7.285156 16.113281 7.007812 16.417969 C 6.9375 16.503906 6.855469 16.574219 6.761719 16.628906 C 6.730469 16.640625 6.714844 16.664062 6.714844 16.699219 C 6.355469 17.066406 5.964844 17.402344 5.542969 17.707031 C 5.5 17.699219 5.46875 17.714844 5.449219 17.753906 C 5.304688 17.867188 5.15625 17.976562 5.003906 18.082031 C 4.964844 18.085938 4.925781 18.09375 4.886719 18.105469 C 4.8125 17.851562 4.75 17.59375 4.699219 17.332031 C 4.6875 17.207031 4.65625 17.089844 4.605469 16.980469 C 4.609375 16.894531 4.59375 16.816406 4.558594 16.746094 C 4.554688 16.636719 4.53125 16.53125 4.488281 16.429688 C 4.597656 16.382812 4.707031 16.335938 4.816406 16.289062 C 4.835938 16.273438 4.851562 16.253906 4.863281 16.230469 C 4.871094 16.210938 4.886719 16.203125 4.910156 16.207031 C 4.96875 16.203125 5.015625 16.179688 5.050781 16.136719 C 5.152344 16.097656 5.238281 16.042969 5.308594 15.972656 C 5.347656 15.933594 5.394531 15.902344 5.449219 15.878906 C 5.472656 15.882812 5.496094 15.878906 5.519531 15.867188 C 5.585938 15.796875 5.65625 15.730469 5.730469 15.667969 C 5.867188 15.574219 6 15.476562 6.128906 15.375 C 6.167969 15.347656 6.191406 15.3125 6.199219 15.269531 C 6.285156 15.199219 6.363281 15.121094 6.433594 15.035156 C 6.457031 15.039062 6.476562 15.03125 6.492188 15.011719 C 6.585938 14.878906 6.6875 14.753906 6.796875 14.636719 C 6.894531 14.519531 6.976562 14.394531 7.042969 14.261719 C 7.101562 14.128906 7.171875 14.003906 7.253906 13.886719 C 7.277344 13.875 7.296875 13.859375 7.3125 13.839844 C 7.339844 13.785156 7.359375 13.730469 7.371094 13.675781 C 7.429688 13.542969 7.492188 13.410156 7.558594 13.277344 C 7.613281 13.21875 7.636719 13.148438 7.628906 13.066406 C 7.664062 13.035156 7.679688 12.996094 7.675781 12.949219 C 6.535156 12.953125 5.394531 12.949219 4.253906 12.9375 C 4.230469 12.878906 4.199219 12.828125 4.160156 12.785156 C 4.179688 12.722656 4.1875 12.660156 4.183594 12.597656 C 4.234375 12.316406 4.304688 12.042969 4.394531 11.777344 C 5.625 11.730469 6.859375 11.714844 8.097656 11.730469 C 8.074219 10.949219 8.066406 10.167969 8.074219 9.386719 C 7.167969 9.34375 6.253906 9.324219 5.332031 9.328125 C 5.179688 9.296875 5.046875 9.230469 4.933594 9.128906 C 4.910156 9.058594 4.863281 9.011719 4.792969 8.988281 C 4.734375 8.917969 4.6875 8.839844 4.652344 8.753906 C 4.648438 8.667969 4.625 8.589844 4.582031 8.519531 C 4.546875 8.417969 4.523438 8.308594 4.511719 8.191406 C 4.515625 8.15625 4.53125 8.132812 4.558594 8.121094 C 5.695312 8.152344 6.828125 8.152344 7.957031 8.121094 C 7.996094 8.121094 8.035156 8.121094 8.074219 8.121094 C 8.074219 7.691406 8.074219 7.261719 8.074219 6.832031 C 8.511719 6.832031 8.949219 6.832031 9.386719 6.832031 C 9.386719 7.269531 9.386719 7.707031 9.386719 8.144531 C 10.492188 8.152344 11.59375 8.144531 12.691406 8.121094 C 12.769531 8.105469 12.832031 8.066406 12.878906 8.003906 C 12.945312 8 12.992188 7.96875 13.019531 7.910156 C 13.027344 7.894531 13.035156 7.878906 13.042969 7.863281 C 13.046875 7.792969 13.03125 7.730469 12.996094 7.675781 C 12.953125 7.589844 12.921875 7.496094 12.902344 7.394531 C 12.910156 7.316406 12.894531 7.246094 12.855469 7.183594 C 12.832031 7.160156 12.824219 7.128906 12.832031 7.089844 C 12.835938 6.996094 12.820312 6.910156 12.785156 6.832031 C 12.785156 6.792969 12.800781 6.761719 12.832031 6.738281 C 13.042969 6.613281 13.269531 6.519531 13.511719 6.457031 C 13.589844 6.453125 13.660156 6.429688 13.722656 6.386719 C 13.996094 6.273438 14.277344 6.171875 14.566406 6.082031 Z M 14.566406 6.082031 "/>
<path style=" stroke:none;fill-rule:evenodd;fill:rgb(50.588235%,68.627451%,78.431373%);fill-opacity:1;" d="M 16.441406 6.082031 C 16.453125 6.066406 16.46875 6.058594 16.488281 6.058594 C 16.625 6.097656 16.757812 6.144531 16.886719 6.199219 C 16.738281 6.164062 16.589844 6.125 16.441406 6.082031 Z M 16.441406 6.082031 "/>
<path style=" stroke:none;fill-rule:evenodd;fill:rgb(46.27451%,62.352941%,72.54902%);fill-opacity:1;" d="M 8.191406 6.152344 C 8.316406 6.183594 8.316406 6.214844 8.191406 6.246094 C 8.191406 6.214844 8.191406 6.183594 8.191406 6.152344 Z M 8.191406 6.152344 "/>
<path style=" stroke:none;fill-rule:evenodd;fill:rgb(34.509804%,58.431373%,70.980392%);fill-opacity:1;" d="M 8.121094 6.269531 C 8.109375 6.300781 8.085938 6.316406 8.050781 6.316406 C 8.0625 6.285156 8.085938 6.269531 8.121094 6.269531 Z M 8.121094 6.269531 "/>
<path style=" stroke:none;fill-rule:evenodd;fill:rgb(40.784314%,61.960784%,73.72549%);fill-opacity:1;" d="M 8.050781 6.316406 C 8.027344 6.34375 7.996094 6.359375 7.957031 6.363281 C 7.976562 6.324219 8.007812 6.308594 8.050781 6.316406 Z M 8.050781 6.316406 "/>
<path style=" stroke:none;fill-rule:evenodd;fill:rgb(51.764706%,69.019608%,78.431373%);fill-opacity:1;" d="M 13.722656 6.386719 C 13.660156 6.429688 13.589844 6.453125 13.511719 6.457031 C 13.574219 6.414062 13.644531 6.390625 13.722656 6.386719 Z M 13.722656 6.386719 "/>
<path style=" stroke:none;fill-rule:evenodd;fill:rgb(42.745098%,63.137255%,74.509804%);fill-opacity:1;" d="M 7.839844 6.433594 C 7.816406 6.460938 7.785156 6.476562 7.746094 6.480469 C 7.765625 6.441406 7.796875 6.425781 7.839844 6.433594 Z M 7.839844 6.433594 "/>
<path style=" stroke:none;fill-rule:evenodd;fill:rgb(50.980392%,68.235294%,78.431373%);fill-opacity:1;" d="M 6.269531 6.621094 C 6.332031 6.644531 6.378906 6.683594 6.410156 6.738281 C 6.347656 6.714844 6.300781 6.675781 6.269531 6.621094 Z M 6.269531 6.621094 "/>
<path style=" stroke:none;fill-rule:evenodd;fill:rgb(35.686275%,61.176471%,74.117647%);fill-opacity:1;" d="M 12.832031 6.738281 C 12.800781 6.761719 12.785156 6.792969 12.785156 6.832031 C 12.761719 6.808594 12.753906 6.777344 12.761719 6.738281 C 12.785156 6.738281 12.808594 6.738281 12.832031 6.738281 Z M 12.832031 6.738281 "/>
<path style=" stroke:none;fill-rule:evenodd;fill:rgb(57.254902%,71.764706%,80.784314%);fill-opacity:1;" d="M 14.941406 6.621094 C 14.980469 6.691406 15.003906 6.769531 15.011719 6.855469 C 14.960938 6.789062 14.9375 6.710938 14.941406 6.621094 Z M 14.941406 6.621094 "/>
<path style=" stroke:none;fill-rule:evenodd;fill:rgb(52.156863%,69.019608%,78.431373%);fill-opacity:1;" d="M 18.199219 6.691406 C 18.300781 6.71875 18.339844 6.785156 18.316406 6.890625 C 18.300781 7.042969 18.269531 7.1875 18.222656 7.324219 C 18.242188 7.179688 18.265625 7.035156 18.292969 6.890625 C 18.289062 6.855469 18.285156 6.820312 18.28125 6.785156 C 18.242188 6.761719 18.214844 6.730469 18.199219 6.691406 Z M 18.199219 6.691406 "/>
<path style=" stroke:none;fill-rule:evenodd;fill:rgb(49.803922%,68.235294%,78.431373%);fill-opacity:1;" d="M 12.785156 6.832031 C 12.820312 6.910156 12.835938 6.996094 12.832031 7.089844 C 12.804688 7.007812 12.789062 6.921875 12.785156 6.832031 Z M 12.785156 6.832031 "/>
<path style=" stroke:none;fill-rule:evenodd;fill:rgb(38.431373%,61.176471%,73.72549%);fill-opacity:1;" d="M 16.089844 6.902344 C 16.089844 6.96875 16.074219 7.03125 16.042969 7.089844 C 15.714844 7.113281 15.386719 7.121094 15.058594 7.113281 C 15.058594 7.082031 15.058594 7.050781 15.058594 7.019531 C 15.078125 7.035156 15.085938 7.058594 15.082031 7.089844 C 15.394531 7.097656 15.707031 7.089844 16.019531 7.066406 C 16.039062 7.007812 16.0625 6.953125 16.089844 6.902344 Z M 16.089844 6.902344 "/>
<path style=" stroke:none;fill-rule:evenodd;fill:rgb(58.431373%,73.72549%,81.960784%);fill-opacity:1;" d="M 8.074219 6.832031 C 8.074219 6.824219 8.074219 6.816406 8.074219 6.808594 C 8.519531 6.808594 8.964844 6.808594 9.410156 6.808594 C 9.410156 7.191406 9.410156 7.574219 9.410156 7.957031 C 9.410156 8.011719 9.410156 8.066406 9.410156 8.121094 C 10.503906 8.121094 11.597656 8.121094 12.691406 8.121094 C 11.59375 8.144531 10.492188 8.152344 9.386719 8.144531 C 9.386719 7.707031 9.386719 7.269531 9.386719 6.832031 C 8.949219 6.832031 8.511719 6.832031 8.074219 6.832031 Z M 8.074219 6.832031 "/>
<path style=" stroke:none;fill-rule:evenodd;fill:rgb(39.607843%,60.392157%,72.54902%);fill-opacity:1;" d="M 6.949219 7.136719 C 6.984375 7.136719 7.011719 7.152344 7.03125 7.183594 C 7.039062 7.171875 7.050781 7.164062 7.066406 7.160156 C 7.023438 7.21875 6.984375 7.210938 6.949219 7.136719 Z M 6.949219 7.136719 "/>
<path style=" stroke:none;fill-rule:evenodd;fill:rgb(49.411765%,67.45098%,77.254902%);fill-opacity:1;" d="M 12.855469 7.183594 C 12.894531 7.246094 12.910156 7.316406 12.902344 7.394531 C 12.875 7.328125 12.859375 7.257812 12.855469 7.183594 Z M 12.855469 7.183594 "/>
<path style=" stroke:none;fill-rule:evenodd;fill:rgb(51.372549%,69.019608%,78.823529%);fill-opacity:1;" d="M 18.222656 7.324219 C 18.21875 7.410156 18.195312 7.488281 18.152344 7.558594 C 18.15625 7.472656 18.179688 7.394531 18.222656 7.324219 Z M 18.222656 7.324219 "/>
<path style=" stroke:none;fill-rule:evenodd;fill:rgb(50.196078%,68.627451%,78.431373%);fill-opacity:1;" d="M 12.996094 7.675781 C 13.03125 7.730469 13.046875 7.792969 13.042969 7.863281 C 13.011719 7.808594 12.996094 7.746094 12.996094 7.675781 Z M 12.996094 7.675781 "/>
<path style=" stroke:none;fill-rule:evenodd;fill:rgb(53.333333%,70.196078%,79.215686%);fill-opacity:1;" d="M 18.152344 7.558594 C 18.144531 7.644531 18.121094 7.722656 18.082031 7.792969 C 18.085938 7.707031 18.109375 7.628906 18.152344 7.558594 Z M 18.152344 7.558594 "/>
<path style=" stroke:none;fill-rule:evenodd;fill:rgb(35.294118%,59.607843%,72.54902%);fill-opacity:1;" d="M 8.074219 6.808594 C 8.074219 6.816406 8.074219 6.824219 8.074219 6.832031 C 8.074219 7.261719 8.074219 7.691406 8.074219 8.121094 C 8.035156 8.121094 7.996094 8.121094 7.957031 8.121094 C 7.941406 8.121094 7.925781 8.121094 7.910156 8.121094 C 7.953125 8.097656 8 8.089844 8.050781 8.097656 C 8.042969 7.664062 8.050781 7.234375 8.074219 6.808594 Z M 8.074219 6.808594 "/>
<path style=" stroke:none;fill-rule:evenodd;fill:rgb(54.901961%,70.980392%,79.607843%);fill-opacity:1;" d="M 18.058594 7.863281 C 18.097656 7.914062 18.144531 7.953125 18.199219 7.980469 C 18.15625 7.980469 18.117188 7.96875 18.082031 7.945312 C 18.039062 7.921875 18.03125 7.894531 18.058594 7.863281 Z M 18.058594 7.863281 "/>
<path style=" stroke:none;fill-rule:evenodd;fill:rgb(54.901961%,71.764706%,81.568627%);fill-opacity:1;" d="M 15.339844 7.957031 C 15.414062 7.941406 15.492188 7.933594 15.574219 7.933594 C 15.699219 7.929688 15.816406 7.945312 15.925781 7.980469 C 15.730469 7.960938 15.535156 7.953125 15.339844 7.957031 Z M 15.339844 7.957031 "/>
<path style=" stroke:none;fill-rule:evenodd;fill:rgb(44.313725%,18.039216%,4.705882%);fill-opacity:1;" d="M 12.855469 8.003906 C 12.796875 8.039062 12.742188 8.078125 12.691406 8.121094 C 11.597656 8.121094 10.503906 8.121094 9.410156 8.121094 C 9.410156 8.066406 9.410156 8.011719 9.410156 7.957031 C 10.308594 7.949219 11.203125 7.957031 12.09375 7.980469 C 12.101562 7.964844 12.109375 7.949219 12.117188 7.933594 C 12.171875 7.949219 12.226562 7.964844 12.28125 7.980469 C 12.394531 7.949219 12.503906 7.933594 12.609375 7.933594 C 12.6875 7.96875 12.769531 7.992188 12.855469 8.003906 Z M 12.855469 8.003906 "/>
<path style=" stroke:none;fill-rule:evenodd;fill:rgb(49.803922%,66.666667%,76.862745%);fill-opacity:1;" d="M 13.019531 7.910156 C 12.992188 7.96875 12.945312 8 12.878906 8.003906 C 12.917969 7.964844 12.964844 7.933594 13.019531 7.910156 Z M 13.019531 7.910156 "/>
<path style=" stroke:none;fill-rule:evenodd;fill:rgb(43.529412%,63.529412%,75.686275%);fill-opacity:1;" d="M 15.339844 7.957031 C 15.148438 7.988281 14.953125 8.011719 14.753906 8.027344 C 14.941406 7.976562 15.136719 7.953125 15.339844 7.957031 Z M 15.339844 7.957031 "/>
<path style=" stroke:none;fill-rule:evenodd;fill:rgb(49.411765%,67.45098%,77.254902%);fill-opacity:1;" d="M 18.199219 7.980469 C 18.261719 7.988281 18.308594 8.019531 18.339844 8.074219 C 18.285156 8.054688 18.238281 8.023438 18.199219 7.980469 Z M 18.199219 7.980469 "/>
<path style=" stroke:none;fill-rule:evenodd;fill:rgb(54.901961%,71.372549%,80.784314%);fill-opacity:1;" d="M 12.855469 8.003906 C 12.863281 8.003906 12.871094 8.003906 12.878906 8.003906 C 12.832031 8.066406 12.769531 8.105469 12.691406 8.121094 C 12.742188 8.078125 12.796875 8.039062 12.855469 8.003906 Z M 12.855469 8.003906 "/>
<path style=" stroke:none;fill-rule:evenodd;fill:rgb(51.764706%,69.803922%,79.215686%);fill-opacity:1;" d="M 16.136719 8.003906 C 16.230469 8.007812 16.316406 8.03125 16.394531 8.074219 C 16.300781 8.066406 16.214844 8.042969 16.136719 8.003906 Z M 16.136719 8.003906 "/>
<path style=" stroke:none;fill-rule:evenodd;fill:rgb(55.686275%,70.588235%,79.607843%);fill-opacity:1;" d="M 19.699219 8.003906 C 19.75 8.03125 19.78125 8.070312 19.792969 8.121094 C 19.742188 8.09375 19.710938 8.054688 19.699219 8.003906 Z M 19.699219 8.003906 "/>
<path style=" stroke:none;fill-rule:evenodd;fill:rgb(52.54902%,69.803922%,80%);fill-opacity:1;" d="M 14.683594 8.050781 C 14.585938 8.085938 14.484375 8.109375 14.378906 8.121094 C 14.472656 8.074219 14.574219 8.050781 14.683594 8.050781 Z M 14.683594 8.050781 "/>
<path style=" stroke:none;fill-rule:evenodd;fill:rgb(54.901961%,70.196078%,79.215686%);fill-opacity:1;" d="M 19.441406 8.074219 C 19.40625 8.117188 19.359375 8.140625 19.300781 8.144531 C 19.335938 8.101562 19.382812 8.078125 19.441406 8.074219 Z M 19.441406 8.074219 "/>
<path style=" stroke:none;fill-rule:evenodd;fill:rgb(69.411765%,80.392157%,86.27451%);fill-opacity:1;" d="M 4.558594 8.121094 C 5.667969 8.117188 6.785156 8.117188 7.910156 8.121094 C 7.925781 8.121094 7.941406 8.121094 7.957031 8.121094 C 6.828125 8.152344 5.695312 8.152344 4.558594 8.121094 Z M 4.558594 8.121094 "/>
<path style=" stroke:none;fill-rule:evenodd;fill:rgb(37.647059%,38.823529%,48.235294%);fill-opacity:1;" d="M 14.589844 8.097656 C 14.667969 8.09375 14.675781 8.109375 14.613281 8.144531 C 14.59375 8.132812 14.585938 8.117188 14.589844 8.097656 Z M 14.589844 8.097656 "/>
<path style=" stroke:none;fill-rule:evenodd;fill:rgb(54.509804%,69.411765%,78.823529%);fill-opacity:1;" d="M 19.792969 8.121094 C 19.84375 8.148438 19.875 8.1875 19.886719 8.238281 C 19.835938 8.210938 19.804688 8.171875 19.792969 8.121094 Z M 19.792969 8.121094 "/>
<path style=" stroke:none;fill-rule:evenodd;fill:rgb(32.54902%,58.823529%,71.764706%);fill-opacity:1;" d="M 14.472656 8.144531 C 14.515625 8.148438 14.523438 8.164062 14.496094 8.191406 C 14.476562 8.179688 14.46875 8.164062 14.472656 8.144531 Z M 14.472656 8.144531 "/>
<path style=" stroke:none;fill-rule:evenodd;fill:rgb(50.980392%,69.019608%,79.215686%);fill-opacity:1;" d="M 14.378906 8.121094 C 14.378906 8.136719 14.378906 8.152344 14.378906 8.167969 C 14.3125 8.203125 14.242188 8.21875 14.167969 8.214844 C 14.238281 8.191406 14.308594 8.160156 14.378906 8.121094 Z M 14.378906 8.121094 "/>
<path style=" stroke:none;fill-rule:evenodd;fill:rgb(28.627451%,53.333333%,66.27451%);fill-opacity:1;" d="M 14.378906 8.167969 C 14.40625 8.164062 14.429688 8.171875 14.449219 8.191406 C 14.414062 8.222656 14.390625 8.214844 14.378906 8.167969 Z M 14.378906 8.167969 "/>
<path style=" stroke:none;fill-rule:evenodd;fill:rgb(57.254902%,71.764706%,80.392157%);fill-opacity:1;" d="M 19.253906 8.167969 C 19.203125 8.199219 19.148438 8.222656 19.089844 8.238281 C 19.128906 8.183594 19.183594 8.160156 19.253906 8.167969 Z M 19.253906 8.167969 "/>
<path style=" stroke:none;fill-rule:evenodd;fill:rgb(51.764706%,69.019608%,78.431373%);fill-opacity:1;" d="M 18.574219 8.261719 C 18.625 8.289062 18.65625 8.328125 18.667969 8.378906 C 18.617188 8.351562 18.585938 8.3125 18.574219 8.261719 Z M 18.574219 8.261719 "/>
<path style=" stroke:none;fill-rule:evenodd;fill:rgb(58.431373%,72.54902%,81.568627%);fill-opacity:1;" d="M 15.621094 8.285156 C 15.546875 8.28125 15.476562 8.296875 15.410156 8.332031 C 15.46875 8.261719 15.539062 8.246094 15.621094 8.285156 Z M 15.621094 8.285156 "/>
<path style=" stroke:none;fill-rule:evenodd;fill:rgb(56.862745%,71.372549%,80.392157%);fill-opacity:1;" d="M 18.949219 8.308594 C 18.921875 8.367188 18.875 8.390625 18.808594 8.378906 C 18.855469 8.355469 18.902344 8.332031 18.949219 8.308594 Z M 18.949219 8.308594 "/>
<path style=" stroke:none;fill-rule:evenodd;fill:rgb(42.745098%,63.137255%,74.901961%);fill-opacity:1;" d="M 13.839844 8.355469 C 13.816406 8.382812 13.785156 8.398438 13.746094 8.402344 C 13.765625 8.363281 13.796875 8.347656 13.839844 8.355469 Z M 13.839844 8.355469 "/>
<path style=" stroke:none;fill-rule:evenodd;fill:rgb(57.254902%,72.156863%,81.176471%);fill-opacity:1;" d="M 17.191406 8.378906 C 17.257812 8.367188 17.304688 8.390625 17.332031 8.449219 C 17.285156 8.425781 17.238281 8.402344 17.191406 8.378906 Z M 17.191406 8.378906 "/>
<path style=" stroke:none;fill-rule:evenodd;fill:rgb(30.588235%,55.686275%,69.803922%);fill-opacity:1;" d="M 13.558594 8.496094 C 13.578125 8.535156 13.578125 8.570312 13.558594 8.601562 C 13.492188 8.652344 13.421875 8.671875 13.347656 8.660156 C 13.414062 8.601562 13.484375 8.546875 13.558594 8.496094 Z M 13.558594 8.496094 "/>
<path style=" stroke:none;fill-rule:evenodd;fill:rgb(52.941176%,69.411765%,79.215686%);fill-opacity:1;" d="M 4.582031 8.519531 C 4.625 8.589844 4.648438 8.667969 4.652344 8.753906 C 4.609375 8.683594 4.585938 8.605469 4.582031 8.519531 Z M 4.582031 8.519531 "/>
<path style=" stroke:none;fill-rule:evenodd;fill:rgb(43.137255%,58.823529%,69.411765%);fill-opacity:1;" d="M 13.113281 8.824219 C 13.113281 8.871094 13.089844 8.894531 13.042969 8.894531 C 13.058594 8.863281 13.082031 8.839844 13.113281 8.824219 Z M 13.113281 8.824219 "/>
<path style=" stroke:none;fill-rule:evenodd;fill:rgb(53.72549%,69.019608%,78.823529%);fill-opacity:1;" d="M 4.792969 8.988281 C 4.863281 9.011719 4.910156 9.058594 4.933594 9.128906 C 4.878906 9.089844 4.832031 9.042969 4.792969 8.988281 Z M 4.792969 8.988281 "/>
<path style=" stroke:none;fill-rule:evenodd;fill:rgb(38.431373%,46.27451%,56.862745%);fill-opacity:1;" d="M 12.972656 8.964844 C 12.964844 9 12.941406 9.015625 12.902344 9.011719 C 12.921875 8.992188 12.945312 8.976562 12.972656 8.964844 Z M 12.972656 8.964844 "/>
<path style=" stroke:none;fill-rule:evenodd;fill:rgb(54.509804%,70.196078%,79.607843%);fill-opacity:1;" d="M 18.058594 9.011719 C 18.121094 9.027344 18.160156 9.066406 18.175781 9.128906 C 18.128906 9.097656 18.089844 9.058594 18.058594 9.011719 Z M 18.058594 9.011719 "/>
<path style=" stroke:none;fill-rule:evenodd;fill:rgb(52.156863%,69.411765%,79.215686%);fill-opacity:1;" d="M 14.589844 9.128906 C 14.585938 9.199219 14.5625 9.261719 14.519531 9.316406 C 14.523438 9.246094 14.546875 9.183594 14.589844 9.128906 Z M 14.589844 9.128906 "/>
<path style=" stroke:none;fill-rule:evenodd;fill:rgb(49.019608%,67.058824%,77.254902%);fill-opacity:1;" d="M 15.972656 9.175781 C 16.03125 9.222656 16.054688 9.285156 16.042969 9.363281 C 16.019531 9.304688 15.996094 9.242188 15.972656 9.175781 Z M 15.972656 9.175781 "/>
<path style=" stroke:none;fill-rule:evenodd;fill:rgb(50.196078%,67.843137%,77.647059%);fill-opacity:1;" d="M 16.113281 9.597656 C 16.167969 9.636719 16.191406 9.691406 16.183594 9.761719 C 16.15625 9.710938 16.132812 9.65625 16.113281 9.597656 Z M 16.113281 9.597656 "/>
<path style=" stroke:none;fill-rule:evenodd;fill:rgb(39.607843%,60.784314%,72.54902%);fill-opacity:1;" d="M 18.597656 9.667969 C 18.628906 9.679688 18.644531 9.703125 18.644531 9.738281 C 18.613281 9.726562 18.597656 9.703125 18.597656 9.667969 Z M 18.597656 9.667969 "/>
<path style=" stroke:none;fill-rule:evenodd;fill:rgb(52.941176%,68.627451%,78.039216%);fill-opacity:1;" d="M 18.785156 9.996094 C 18.871094 10.125 18.933594 10.265625 18.972656 10.417969 C 18.898438 10.285156 18.835938 10.144531 18.785156 9.996094 Z M 18.785156 9.996094 "/>
<path style=" stroke:none;fill-rule:evenodd;fill:rgb(52.941176%,70.196078%,79.215686%);fill-opacity:1;" d="M 12.597656 9.292969 C 11.542969 9.339844 10.480469 9.355469 9.410156 9.339844 C 9.410156 10.136719 9.410156 10.933594 9.410156 11.730469 C 9.386719 10.929688 9.378906 10.125 9.386719 9.316406 C 10.457031 9.324219 11.527344 9.316406 12.597656 9.292969 Z M 12.597656 9.292969 "/>
<path style=" stroke:none;fill-rule:evenodd;fill:rgb(52.54902%,69.803922%,79.215686%);fill-opacity:1;" d="M 10.863281 10.207031 C 10.859375 10.265625 10.835938 10.3125 10.792969 10.347656 C 10.796875 10.289062 10.820312 10.242188 10.863281 10.207031 Z M 10.863281 10.207031 "/>
<path style=" stroke:none;fill-rule:evenodd;fill:rgb(52.156863%,69.803922%,79.215686%);fill-opacity:1;" d="M 19.792969 10.207031 C 19.816406 10.273438 19.832031 10.34375 19.839844 10.417969 C 19.808594 10.363281 19.785156 10.304688 19.769531 10.242188 C 19.769531 10.222656 19.777344 10.210938 19.792969 10.207031 Z M 19.792969 10.207031 "/>
<path style=" stroke:none;fill-rule:evenodd;fill:rgb(40.392157%,16.470588%,4.313725%);fill-opacity:1;" d="M 15.339844 10.628906 C 15.34375 10.726562 15.375 10.8125 15.433594 10.886719 C 15.445312 10.957031 15.46875 11.019531 15.503906 11.074219 C 15.542969 11.183594 15.582031 11.292969 15.621094 11.402344 C 15.617188 11.449219 15.632812 11.488281 15.667969 11.519531 C 15.710938 11.660156 15.753906 11.800781 15.796875 11.941406 C 15.804688 11.953125 15.816406 11.960938 15.832031 11.964844 C 15.828125 12.011719 15.84375 12.050781 15.878906 12.082031 C 15.90625 12.167969 15.945312 12.246094 15.996094 12.316406 C 16.003906 12.363281 16.011719 12.410156 16.019531 12.457031 C 15.988281 12.453125 15.964844 12.460938 15.949219 12.480469 C 15.496094 12.480469 15.042969 12.480469 14.589844 12.480469 C 14.589844 12.449219 14.589844 12.417969 14.589844 12.386719 C 14.625 12.347656 14.640625 12.300781 14.636719 12.246094 C 14.6875 12.167969 14.71875 12.082031 14.730469 11.988281 C 14.820312 11.792969 14.898438 11.589844 14.964844 11.378906 C 15.011719 11.316406 15.035156 11.246094 15.035156 11.167969 C 15.113281 10.960938 15.195312 10.75 15.28125 10.535156 C 15.296875 10.570312 15.316406 10.601562 15.339844 10.628906 Z M 15.339844 10.628906 "/>
<path style=" stroke:none;fill-rule:evenodd;fill:rgb(54.117647%,70.196078%,79.215686%);fill-opacity:1;" d="M 22.441406 4.933594 C 22.550781 5.15625 22.640625 5.390625 22.710938 5.636719 C 22.800781 6 22.863281 6.367188 22.898438 6.738281 C 22.910156 8.121094 22.914062 9.503906 22.910156 10.886719 C 22.902344 10.886719 22.894531 10.886719 22.886719 10.886719 C 22.890625 9.511719 22.886719 8.136719 22.875 6.761719 C 22.816406 6.128906 22.671875 5.519531 22.441406 4.933594 Z M 22.441406 4.933594 "/>
<path style=" stroke:none;fill-rule:evenodd;fill:rgb(56.078431%,72.54902%,80.784314%);fill-opacity:1;" d="M 10.675781 10.535156 C 10.671875 10.59375 10.648438 10.640625 10.605469 10.675781 C 10.609375 10.617188 10.632812 10.570312 10.675781 10.535156 Z M 10.675781 10.535156 "/>
<path style=" stroke:none;fill-rule:evenodd;fill:rgb(54.509804%,70.588235%,78.823529%);fill-opacity:1;" d="M 19.042969 10.628906 C 19.082031 10.675781 19.097656 10.730469 19.089844 10.792969 C 19.0625 10.742188 19.046875 10.6875 19.042969 10.628906 Z M 19.042969 10.628906 "/>
<path style=" stroke:none;fill-rule:evenodd;fill:rgb(51.372549%,68.627451%,79.215686%);fill-opacity:1;" d="M 15.339844 10.628906 C 15.378906 10.710938 15.410156 10.796875 15.433594 10.886719 C 15.375 10.8125 15.34375 10.726562 15.339844 10.628906 Z M 15.339844 10.628906 "/>
<path style=" stroke:none;fill-rule:evenodd;fill:rgb(56.862745%,72.156863%,80.784314%);fill-opacity:1;" d="M 10.605469 10.675781 C 10.5625 10.773438 10.5 10.859375 10.417969 10.933594 C 10.460938 10.835938 10.523438 10.75 10.605469 10.675781 Z M 10.605469 10.675781 "/>
<path style=" stroke:none;fill-rule:evenodd;fill:rgb(51.372549%,69.411765%,79.215686%);fill-opacity:1;" d="M 19.910156 10.699219 C 19.933594 10.734375 19.941406 10.773438 19.933594 10.816406 C 20.046875 10.824219 20.15625 10.847656 20.261719 10.886719 C 20.144531 10.875 20.027344 10.859375 19.910156 10.839844 C 19.910156 10.792969 19.910156 10.746094 19.910156 10.699219 Z M 19.910156 10.699219 "/>
<path style=" stroke:none;fill-rule:evenodd;fill:rgb(50.196078%,67.45098%,77.647059%);fill-opacity:1;" d="M 16.558594 10.699219 C 16.609375 10.792969 16.648438 10.894531 16.675781 11.003906 C 16.613281 10.910156 16.574219 10.808594 16.558594 10.699219 Z M 16.558594 10.699219 "/>
<path style=" stroke:none;fill-rule:evenodd;fill:rgb(49.411765%,67.45098%,77.647059%);fill-opacity:1;" d="M 19.089844 10.792969 C 19.148438 10.933594 19.171875 11.082031 19.160156 11.238281 C 19.136719 11.09375 19.113281 10.945312 19.089844 10.792969 Z M 19.089844 10.792969 "/>
<path style=" stroke:none;fill-rule:evenodd;fill:rgb(52.54902%,69.803922%,79.607843%);fill-opacity:1;" d="M 20.261719 10.886719 C 20.542969 10.914062 20.816406 10.960938 21.082031 11.027344 C 20.804688 10.992188 20.53125 10.945312 20.261719 10.886719 Z M 20.261719 10.886719 "/>
<path style=" stroke:none;fill-rule:evenodd;fill:rgb(51.764706%,68.627451%,78.431373%);fill-opacity:1;" d="M 15.433594 10.886719 C 15.484375 10.9375 15.507812 11 15.503906 11.074219 C 15.46875 11.019531 15.445312 10.957031 15.433594 10.886719 Z M 15.433594 10.886719 "/>
<path style=" stroke:none;fill-rule:evenodd;fill:rgb(58.431373%,72.54902%,81.176471%);fill-opacity:1;" d="M 10.417969 10.933594 C 10.414062 10.988281 10.394531 11.035156 10.359375 11.074219 C 10.207031 11.21875 10.0625 11.371094 9.925781 11.53125 C 9.910156 11.542969 9.894531 11.546875 9.878906 11.542969 C 10.058594 11.339844 10.238281 11.136719 10.417969 10.933594 Z M 10.417969 10.933594 "/>
<path style=" stroke:none;fill-rule:evenodd;fill:rgb(56.470588%,71.372549%,80.392157%);fill-opacity:1;" d="M 15.503906 11.074219 C 15.578125 11.167969 15.617188 11.277344 15.621094 11.402344 C 15.582031 11.292969 15.542969 11.183594 15.503906 11.074219 Z M 15.503906 11.074219 "/>
<path style=" stroke:none;fill-rule:evenodd;fill:rgb(46.666667%,66.666667%,76.470588%);fill-opacity:1;" d="M 15.035156 11.167969 C 15.035156 11.246094 15.011719 11.316406 14.964844 11.378906 C 14.976562 11.300781 15 11.230469 15.035156 11.167969 Z M 15.035156 11.167969 "/>
<path style=" stroke:none;fill-rule:evenodd;fill:rgb(51.372549%,68.627451%,78.431373%);fill-opacity:1;" d="M 13.839844 11.121094 C 13.839844 11.207031 13.808594 11.277344 13.746094 11.332031 C 13.769531 11.257812 13.800781 11.1875 13.839844 11.121094 Z M 13.839844 11.121094 "/>
<path style=" stroke:none;fill-rule:evenodd;fill:rgb(60.784314%,74.509804%,81.960784%);fill-opacity:1;" d="M 13.746094 11.332031 C 13.746094 11.433594 13.714844 11.519531 13.652344 11.589844 C 13.675781 11.5 13.707031 11.414062 13.746094 11.332031 Z M 13.746094 11.332031 "/>
<path style=" stroke:none;fill-rule:evenodd;fill:rgb(45.882353%,65.098039%,75.294118%);fill-opacity:1;" d="M 19.160156 11.238281 C 19.1875 11.539062 19.191406 11.84375 19.171875 12.152344 C 19.167969 12.269531 19.148438 12.378906 19.113281 12.480469 C 19.152344 12.066406 19.167969 11.652344 19.160156 11.238281 Z M 19.160156 11.238281 "/>
<path style=" stroke:none;fill-rule:evenodd;fill:rgb(56.862745%,72.156863%,81.176471%);fill-opacity:1;" d="M 9.855469 11.542969 C 9.828125 11.59375 9.789062 11.625 9.738281 11.636719 C 9.765625 11.585938 9.804688 11.554688 9.855469 11.542969 Z M 9.855469 11.542969 "/>
<path style=" stroke:none;fill-rule:evenodd;fill:rgb(52.156863%,69.411765%,78.823529%);fill-opacity:1;" d="M 21.082031 11.027344 C 21.105469 11.027344 21.128906 11.027344 21.152344 11.027344 C 21.167969 11.28125 21.183594 11.535156 21.199219 11.789062 C 21.195312 11.953125 21.179688 12.113281 21.152344 12.269531 C 21.195312 11.847656 21.171875 11.433594 21.082031 11.027344 Z M 21.082031 11.027344 "/>
<path style=" stroke:none;fill-rule:evenodd;fill:rgb(47.058824%,66.666667%,76.862745%);fill-opacity:1;" d="M 8.074219 9.386719 C 8.066406 10.167969 8.074219 10.949219 8.097656 11.730469 C 6.859375 11.714844 5.625 11.730469 4.394531 11.777344 C 4.394531 11.753906 4.394531 11.730469 4.394531 11.707031 C 5.621094 11.710938 6.847656 11.707031 8.074219 11.695312 C 8.042969 10.925781 8.042969 10.15625 8.074219 9.386719 Z M 8.074219 9.386719 "/>
<path style=" stroke:none;fill-rule:evenodd;fill:rgb(41.960784%,63.137255%,74.901961%);fill-opacity:1;" d="M 11.332031 11.683594 C 11.335938 11.710938 11.351562 11.726562 11.378906 11.730469 C 11.851562 11.699219 12.320312 11.699219 12.785156 11.730469 C 12.3125 11.722656 11.839844 11.730469 11.367188 11.753906 C 11.28125 11.75 11.269531 11.726562 11.332031 11.683594 Z M 11.332031 11.683594 "/>
<path style=" stroke:none;fill-rule:evenodd;fill:rgb(52.54902%,69.411765%,79.215686%);fill-opacity:1;" d="M 15.667969 11.519531 C 15.738281 11.660156 15.792969 11.808594 15.832031 11.964844 C 15.816406 11.960938 15.804688 11.953125 15.796875 11.941406 C 15.753906 11.800781 15.710938 11.660156 15.667969 11.519531 Z M 15.667969 11.519531 "/>
<path style=" stroke:none;fill-rule:evenodd;fill:rgb(43.137255%,62.352941%,73.72549%);fill-opacity:1;" d="M 17.003906 11.800781 C 17.039062 11.832031 17.054688 11.871094 17.050781 11.917969 C 17.015625 11.886719 17 11.847656 17.003906 11.800781 Z M 17.003906 11.800781 "/>
<path style=" stroke:none;fill-rule:evenodd;fill:rgb(52.941176%,70.196078%,79.215686%);fill-opacity:1;" d="M 13.464844 12.035156 C 13.472656 12.097656 13.457031 12.152344 13.417969 12.199219 C 13.421875 12.140625 13.4375 12.085938 13.464844 12.035156 Z M 13.464844 12.035156 "/>
<path style=" stroke:none;fill-rule:evenodd;fill:rgb(52.156863%,69.411765%,78.823529%);fill-opacity:1;" d="M 14.730469 11.988281 C 14.71875 12.082031 14.6875 12.167969 14.636719 12.246094 C 14.648438 12.152344 14.679688 12.066406 14.730469 11.988281 Z M 14.730469 11.988281 "/>
<path style=" stroke:none;fill-rule:evenodd;fill:rgb(52.941176%,69.411765%,79.215686%);fill-opacity:1;" d="M 15.878906 12.082031 C 15.941406 12.144531 15.980469 12.222656 15.996094 12.316406 C 15.945312 12.246094 15.90625 12.167969 15.878906 12.082031 Z M 15.878906 12.082031 "/>
<path style=" stroke:none;fill-rule:evenodd;fill:rgb(49.019608%,67.058824%,77.647059%);fill-opacity:1;" d="M 12.644531 12.105469 C 12.625 12.164062 12.601562 12.21875 12.574219 12.269531 C 12.566406 12.199219 12.589844 12.144531 12.644531 12.105469 Z M 12.644531 12.105469 "/>
<path style=" stroke:none;fill-rule:evenodd;fill:rgb(43.921569%,63.529412%,74.901961%);fill-opacity:1;" d="M 17.121094 12.128906 C 17.15625 12.167969 17.171875 12.214844 17.167969 12.269531 C 17.140625 12.230469 17.125 12.183594 17.121094 12.128906 Z M 17.121094 12.128906 "/>
<path style=" stroke:none;fill-rule:evenodd;fill:rgb(42.745098%,58.431373%,69.019608%);fill-opacity:1;" d="M 13.417969 12.199219 C 13.414062 12.253906 13.398438 12.300781 13.371094 12.339844 C 13.367188 12.285156 13.382812 12.238281 13.417969 12.199219 Z M 13.417969 12.199219 "/>
<path style=" stroke:none;fill-rule:evenodd;fill:rgb(45.098039%,65.098039%,76.078431%);fill-opacity:1;" d="M 14.589844 12.386719 C 14.589844 12.417969 14.589844 12.449219 14.589844 12.480469 C 15.042969 12.480469 15.496094 12.480469 15.949219 12.480469 C 15.492188 12.503906 15.03125 12.511719 14.566406 12.503906 C 14.558594 12.460938 14.566406 12.421875 14.589844 12.386719 Z M 14.589844 12.386719 "/>
<path style=" stroke:none;fill-rule:evenodd;fill:rgb(51.764706%,69.019608%,78.431373%);fill-opacity:1;" d="M 12.527344 12.386719 C 12.523438 12.449219 12.5 12.503906 12.457031 12.550781 C 12.460938 12.488281 12.484375 12.433594 12.527344 12.386719 Z M 12.527344 12.386719 "/>
<path style=" stroke:none;fill-rule:evenodd;fill:rgb(52.156863%,69.803922%,79.607843%);fill-opacity:1;" d="M 20.449219 12.574219 C 20.347656 12.613281 20.238281 12.628906 20.121094 12.621094 C 20.226562 12.59375 20.335938 12.578125 20.449219 12.574219 Z M 20.449219 12.574219 "/>
<path style=" stroke:none;fill-rule:evenodd;fill:rgb(50.588235%,69.411765%,79.215686%);fill-opacity:1;" d="M 20.121094 12.621094 C 20.070312 12.640625 20.015625 12.652344 19.957031 12.65625 C 19.941406 12.695312 19.925781 12.730469 19.910156 12.761719 C 19.90625 12.714844 19.914062 12.671875 19.933594 12.632812 C 19.996094 12.621094 20.058594 12.617188 20.121094 12.621094 Z M 20.121094 12.621094 "/>
<path style=" stroke:none;fill-rule:evenodd;fill:rgb(49.803922%,68.235294%,77.647059%);fill-opacity:1;" d="M 4.183594 12.597656 C 4.1875 12.660156 4.179688 12.722656 4.160156 12.785156 C 4.144531 12.78125 4.136719 12.769531 4.136719 12.75 C 4.148438 12.695312 4.164062 12.644531 4.183594 12.597656 Z M 4.183594 12.597656 "/>
<path style=" stroke:none;fill-rule:evenodd;fill:rgb(45.098039%,61.176471%,72.941176%);fill-opacity:1;" d="M 12.410156 12.644531 C 12.40625 12.683594 12.390625 12.714844 12.363281 12.738281 C 12.355469 12.695312 12.371094 12.664062 12.410156 12.644531 Z M 12.410156 12.644531 "/>
<path style=" stroke:none;fill-rule:evenodd;fill:rgb(52.156863%,69.803922%,78.823529%);fill-opacity:1;" d="M 19.066406 12.621094 C 19.074219 12.683594 19.058594 12.738281 19.019531 12.785156 C 19.023438 12.726562 19.039062 12.671875 19.066406 12.621094 Z M 19.066406 12.621094 "/>
<path style=" stroke:none;fill-rule:evenodd;fill:rgb(50.588235%,65.882353%,75.686275%);fill-opacity:1;" d="M 11.847656 12.949219 C 11.277344 12.976562 10.703125 12.976562 10.125 12.949219 C 10.113281 12.957031 10.101562 12.964844 10.089844 12.972656 C 10.109375 13.007812 10.117188 13.046875 10.113281 13.089844 C 10.078125 13.042969 10.0625 12.988281 10.066406 12.925781 C 10.660156 12.941406 11.253906 12.949219 11.847656 12.949219 Z M 11.847656 12.949219 "/>
<path style=" stroke:none;fill-rule:evenodd;fill:rgb(37.254902%,60.784314%,72.941176%);fill-opacity:1;" d="M 4.160156 12.785156 C 4.199219 12.828125 4.230469 12.878906 4.253906 12.9375 C 5.394531 12.949219 6.535156 12.953125 7.675781 12.949219 C 7.679688 12.996094 7.664062 13.035156 7.628906 13.066406 C 7.625 13.035156 7.632812 13.007812 7.652344 12.984375 C 6.511719 12.976562 5.371094 12.96875 4.230469 12.960938 C 4.195312 12.90625 4.171875 12.847656 4.160156 12.785156 Z M 4.160156 12.785156 "/>
<path style=" stroke:none;fill-rule:evenodd;fill:rgb(52.941176%,70.588235%,79.215686%);fill-opacity:1;" d="M 19.839844 12.996094 C 19.832031 13.054688 19.816406 13.109375 19.792969 13.160156 C 19.78125 13.160156 19.773438 13.152344 19.769531 13.136719 C 19.785156 13.082031 19.808594 13.035156 19.839844 12.996094 Z M 19.839844 12.996094 "/>
<path style=" stroke:none;fill-rule:evenodd;fill:rgb(53.333333%,70.196078%,79.215686%);fill-opacity:1;" d="M 7.628906 13.066406 C 7.636719 13.148438 7.613281 13.21875 7.558594 13.277344 C 7.570312 13.203125 7.59375 13.132812 7.628906 13.066406 Z M 7.628906 13.066406 "/>
<path style=" stroke:none;fill-rule:evenodd;fill:rgb(55.294118%,71.372549%,80.392157%);fill-opacity:1;" d="M 19.816406 13.207031 C 19.835938 13.242188 19.847656 13.28125 19.851562 13.324219 C 19.90625 13.359375 19.957031 13.398438 20.003906 13.441406 C 19.863281 13.425781 19.800781 13.347656 19.816406 13.207031 Z M 19.816406 13.207031 "/>
<path style=" stroke:none;fill-rule:evenodd;fill:rgb(53.333333%,70.196078%,79.215686%);fill-opacity:1;" d="M 2.917969 3.808594 C 2.347656 4.683594 2 5.644531 1.875 6.691406 C 1.859375 10.183594 1.859375 13.675781 1.875 17.167969 C 2 18.121094 2.300781 19.011719 2.777344 19.839844 C 2.679688 19.667969 2.574219 19.496094 2.460938 19.324219 C 2.148438 18.644531 1.945312 17.933594 1.851562 17.191406 C 1.835938 13.683594 1.835938 10.175781 1.851562 6.667969 C 1.960938 5.757812 2.242188 4.90625 2.695312 4.113281 C 2.765625 4.007812 2.839844 3.90625 2.917969 3.808594 Z M 2.917969 3.808594 "/>
<path style=" stroke:none;fill-rule:evenodd;fill:rgb(66.666667%,78.823529%,85.882353%);fill-opacity:1;" d="M 12.128906 13.394531 C 11.75 13.355469 11.375 13.363281 11.003906 13.417969 C 11.003906 13.394531 11.003906 13.371094 11.003906 13.347656 C 11.386719 13.332031 11.761719 13.347656 12.128906 13.394531 Z M 12.128906 13.394531 "/>
<path style=" stroke:none;fill-rule:evenodd;fill:rgb(57.647059%,72.156863%,80.784314%);fill-opacity:1;" d="M 20.003906 13.441406 C 20.058594 13.457031 20.097656 13.488281 20.121094 13.535156 C 20.066406 13.519531 20.027344 13.488281 20.003906 13.441406 Z M 20.003906 13.441406 "/>
<path style=" stroke:none;fill-rule:evenodd;fill:rgb(40.392157%,16.470588%,4.313725%);fill-opacity:1;" d="M 16.558594 13.910156 C 16.609375 14.089844 16.671875 14.261719 16.746094 14.425781 C 16.820312 14.636719 16.890625 14.847656 16.957031 15.058594 C 16.917969 15.0625 16.886719 15.078125 16.863281 15.105469 C 16.816406 15.128906 16.769531 15.152344 16.722656 15.175781 C 16.585938 15.210938 16.453125 15.25 16.324219 15.292969 C 16.257812 15.304688 16.195312 15.320312 16.136719 15.339844 C 15.722656 15.390625 15.308594 15.398438 14.894531 15.363281 C 14.757812 15.324219 14.617188 15.292969 14.472656 15.269531 C 14.40625 15.234375 14.335938 15.210938 14.261719 15.199219 C 14.132812 15.152344 14.007812 15.097656 13.886719 15.035156 C 13.828125 14.988281 13.765625 14.945312 13.699219 14.90625 C 13.679688 14.890625 13.671875 14.871094 13.675781 14.847656 C 13.726562 14.71875 13.773438 14.585938 13.816406 14.449219 C 13.863281 14.40625 13.886719 14.351562 13.886719 14.285156 C 13.914062 14.246094 13.929688 14.199219 13.933594 14.144531 C 13.960938 14.078125 13.984375 14.007812 14.003906 13.933594 C 14.058594 13.820312 14.105469 13.699219 14.144531 13.570312 C 14.902344 13.554688 15.660156 13.554688 16.417969 13.570312 C 16.457031 13.6875 16.503906 13.800781 16.558594 13.910156 Z M 16.558594 13.910156 "/>
<path style=" stroke:none;fill-rule:evenodd;fill:rgb(50.980392%,68.627451%,78.431373%);fill-opacity:1;" d="M 8.964844 13.722656 C 8.933594 13.667969 8.894531 13.621094 8.847656 13.582031 C 8.84375 13.554688 8.851562 13.53125 8.871094 13.511719 C 8.921875 13.574219 8.953125 13.644531 8.964844 13.722656 Z M 8.964844 13.722656 "/>
<path style=" stroke:none;fill-rule:evenodd;fill:rgb(50.196078%,68.235294%,78.039216%);fill-opacity:1;" d="M 8.824219 13.605469 C 8.8125 13.667969 8.789062 13.722656 8.753906 13.769531 C 8.753906 13.703125 8.777344 13.648438 8.824219 13.605469 Z M 8.824219 13.605469 "/>
<path style=" stroke:none;fill-rule:evenodd;fill:rgb(58.431373%,72.941176%,81.568627%);fill-opacity:1;" d="M 18.667969 13.558594 C 18.632812 13.691406 18.5625 13.800781 18.457031 13.886719 C 18.527344 13.777344 18.597656 13.667969 18.667969 13.558594 Z M 18.667969 13.558594 "/>
<path style=" stroke:none;fill-rule:evenodd;fill:rgb(50.196078%,68.235294%,78.039216%);fill-opacity:1;" d="M 10.324219 13.582031 C 10.367188 13.636719 10.390625 13.699219 10.394531 13.769531 C 10.351562 13.714844 10.328125 13.652344 10.324219 13.582031 Z M 10.324219 13.582031 "/>
<path style=" stroke:none;fill-rule:evenodd;fill:rgb(53.333333%,68.627451%,78.039216%);fill-opacity:1;" d="M 20.355469 13.699219 C 20.394531 13.730469 20.433594 13.761719 20.472656 13.792969 C 20.40625 13.796875 20.367188 13.765625 20.355469 13.699219 Z M 20.355469 13.699219 "/>
<path style=" stroke:none;fill-rule:evenodd;fill:rgb(55.294118%,71.372549%,80.392157%);fill-opacity:1;" d="M 7.371094 13.675781 C 7.359375 13.730469 7.339844 13.785156 7.3125 13.839844 C 7.296875 13.859375 7.277344 13.875 7.253906 13.886719 C 7.28125 13.808594 7.320312 13.738281 7.371094 13.675781 Z M 7.371094 13.675781 "/>
<path style=" stroke:none;fill-rule:evenodd;fill:rgb(53.72549%,69.803922%,79.607843%);fill-opacity:1;" d="M 11.144531 13.746094 C 11.21875 13.792969 11.265625 13.863281 11.285156 13.957031 C 11.234375 13.890625 11.1875 13.820312 11.144531 13.746094 Z M 11.144531 13.746094 "/>
<path style=" stroke:none;fill-rule:evenodd;fill:rgb(51.372549%,68.627451%,78.431373%);fill-opacity:1;" d="M 8.988281 13.792969 C 9.046875 13.871094 9.085938 13.957031 9.105469 14.050781 C 9.046875 13.972656 9.007812 13.886719 8.988281 13.792969 Z M 8.988281 13.792969 "/>
<path style=" stroke:none;fill-rule:evenodd;fill:rgb(58.039216%,72.54902%,81.568627%);fill-opacity:1;" d="M 18.457031 13.886719 C 18.445312 13.9375 18.414062 13.976562 18.363281 14.003906 C 18.375 13.953125 18.40625 13.914062 18.457031 13.886719 Z M 18.457031 13.886719 "/>
<path style=" stroke:none;fill-rule:evenodd;fill:rgb(53.72549%,70.196078%,79.215686%);fill-opacity:1;" d="M 14.003906 13.933594 C 13.984375 14.007812 13.960938 14.078125 13.933594 14.144531 C 13.925781 14.0625 13.949219 13.992188 14.003906 13.933594 Z M 14.003906 13.933594 "/>
<path style=" stroke:none;fill-rule:evenodd;fill:rgb(45.882353%,65.490196%,76.470588%);fill-opacity:1;" d="M 12.738281 13.980469 C 12.734375 14.039062 12.71875 14.09375 12.691406 14.144531 C 12.683594 14.082031 12.699219 14.027344 12.738281 13.980469 Z M 12.738281 13.980469 "/>
<path style=" stroke:none;fill-rule:evenodd;fill:rgb(54.117647%,70.196078%,79.215686%);fill-opacity:1;" d="M 16.558594 13.910156 C 16.644531 14.070312 16.707031 14.242188 16.746094 14.425781 C 16.671875 14.261719 16.609375 14.089844 16.558594 13.910156 Z M 16.558594 13.910156 "/>
<path style=" stroke:none;fill-rule:evenodd;fill:rgb(50.196078%,67.843137%,78.039216%);fill-opacity:1;" d="M 8.660156 14.003906 C 8.65625 14.066406 8.632812 14.121094 8.589844 14.167969 C 8.59375 14.105469 8.617188 14.050781 8.660156 14.003906 Z M 8.660156 14.003906 "/>
<path style=" stroke:none;fill-rule:evenodd;fill:rgb(50.980392%,68.627451%,78.431373%);fill-opacity:1;" d="M 20.566406 13.910156 C 20.585938 13.929688 20.601562 13.953125 20.613281 13.980469 C 20.59375 14.039062 20.570312 14.09375 20.542969 14.144531 C 20.554688 14.066406 20.5625 13.988281 20.566406 13.910156 Z M 20.566406 13.910156 "/>
<path style=" stroke:none;fill-rule:evenodd;fill:rgb(52.54902%,68.235294%,77.254902%);fill-opacity:1;" d="M 18.339844 14.050781 C 18.324219 14.113281 18.285156 14.152344 18.222656 14.167969 C 18.253906 14.121094 18.292969 14.082031 18.339844 14.050781 Z M 18.339844 14.050781 "/>
<path style=" stroke:none;fill-rule:evenodd;fill:rgb(56.862745%,72.156863%,81.176471%);fill-opacity:1;" d="M 18.222656 14.167969 C 18.191406 14.21875 18.152344 14.269531 18.105469 14.320312 C 18.089844 14.332031 18.074219 14.335938 18.058594 14.332031 C 18.097656 14.261719 18.152344 14.207031 18.222656 14.167969 Z M 18.222656 14.167969 "/>
<path style=" stroke:none;fill-rule:evenodd;fill:rgb(50.588235%,65.882353%,76.078431%);fill-opacity:1;" d="M 17.964844 14.261719 C 17.992188 14.292969 18.023438 14.316406 18.058594 14.332031 C 18.058594 14.367188 18.042969 14.378906 18.011719 14.367188 C 17.988281 14.335938 17.972656 14.300781 17.964844 14.261719 Z M 17.964844 14.261719 "/>
<path style=" stroke:none;fill-rule:evenodd;fill:rgb(43.921569%,63.529412%,74.901961%);fill-opacity:1;" d="M 8.542969 14.261719 C 8.523438 14.304688 8.5 14.34375 8.472656 14.378906 C 8.46875 14.320312 8.492188 14.28125 8.542969 14.261719 Z M 8.542969 14.261719 "/>
<path style=" stroke:none;fill-rule:evenodd;fill:rgb(51.764706%,69.411765%,79.215686%);fill-opacity:1;" d="M 9.199219 14.261719 C 9.242188 14.316406 9.273438 14.378906 9.292969 14.449219 C 9.238281 14.402344 9.207031 14.339844 9.199219 14.261719 Z M 9.199219 14.261719 "/>
<path style=" stroke:none;fill-rule:evenodd;fill:rgb(52.54902%,68.627451%,78.431373%);fill-opacity:1;" d="M 11.542969 14.355469 C 11.589844 14.378906 11.621094 14.417969 11.636719 14.472656 C 11.589844 14.449219 11.558594 14.410156 11.542969 14.355469 Z M 11.542969 14.355469 "/>
<path style=" stroke:none;fill-rule:evenodd;fill:rgb(49.803922%,66.27451%,76.078431%);fill-opacity:1;" d="M 13.886719 14.285156 C 13.886719 14.351562 13.863281 14.40625 13.816406 14.449219 C 13.828125 14.386719 13.851562 14.332031 13.886719 14.285156 Z M 13.886719 14.285156 "/>
<path style=" stroke:none;fill-rule:evenodd;fill:rgb(57.254902%,72.54902%,81.176471%);fill-opacity:1;" d="M 7.042969 14.261719 C 6.976562 14.394531 6.894531 14.519531 6.796875 14.636719 C 6.6875 14.753906 6.585938 14.878906 6.492188 15.011719 C 6.476562 15.03125 6.457031 15.039062 6.433594 15.035156 C 6.636719 14.777344 6.839844 14.519531 7.042969 14.261719 Z M 7.042969 14.261719 "/>
<path style=" stroke:none;fill-rule:evenodd;fill:rgb(49.019608%,67.058824%,78.039216%);fill-opacity:1;" d="M 8.425781 14.449219 C 8.40625 14.507812 8.375 14.554688 8.332031 14.589844 C 8.34375 14.527344 8.375 14.480469 8.425781 14.449219 Z M 8.425781 14.449219 "/>
<path style=" stroke:none;fill-rule:evenodd;fill:rgb(51.372549%,68.627451%,78.431373%);fill-opacity:1;" d="M 9.292969 14.449219 C 9.328125 14.496094 9.351562 14.550781 9.363281 14.613281 C 9.316406 14.570312 9.292969 14.515625 9.292969 14.449219 Z M 9.292969 14.449219 "/>
<path style=" stroke:none;fill-rule:evenodd;fill:rgb(52.54902%,69.411765%,78.823529%);fill-opacity:1;" d="M 13.675781 14.847656 C 13.671875 14.871094 13.679688 14.890625 13.699219 14.90625 C 13.765625 14.945312 13.828125 14.988281 13.886719 15.035156 C 13.808594 15.011719 13.738281 14.976562 13.675781 14.929688 C 13.644531 14.898438 13.644531 14.871094 13.675781 14.847656 Z M 13.675781 14.847656 "/>
<path style=" stroke:none;fill-rule:evenodd;fill:rgb(52.156863%,68.235294%,78.431373%);fill-opacity:1;" d="M 16.746094 14.425781 C 16.839844 14.621094 16.925781 14.824219 17.003906 15.035156 C 16.992188 15.054688 16.976562 15.0625 16.957031 15.058594 C 16.890625 14.847656 16.820312 14.636719 16.746094 14.425781 Z M 16.746094 14.425781 "/>
<path style=" stroke:none;fill-rule:evenodd;fill:rgb(52.941176%,69.803922%,79.607843%);fill-opacity:1;" d="M 11.964844 14.988281 C 11.996094 14.988281 12.019531 15 12.035156 15.023438 C 12.171875 15.027344 12.304688 15.039062 12.433594 15.058594 C 12.292969 15.0625 12.152344 15.058594 12.011719 15.046875 C 11.992188 15.03125 11.976562 15.011719 11.964844 14.988281 Z M 11.964844 14.988281 "/>
<path style=" stroke:none;fill-rule:evenodd;fill:rgb(55.294118%,70.980392%,79.607843%);fill-opacity:1;" d="M 6.433594 15.035156 C 6.363281 15.121094 6.285156 15.199219 6.199219 15.269531 C 6.253906 15.167969 6.332031 15.089844 6.433594 15.035156 Z M 6.433594 15.035156 "/>
<path style=" stroke:none;fill-rule:evenodd;fill:rgb(53.333333%,69.411765%,79.607843%);fill-opacity:1;" d="M 12.480469 15.105469 C 12.574219 15.183594 12.660156 15.269531 12.738281 15.363281 C 12.628906 15.300781 12.542969 15.214844 12.480469 15.105469 Z M 12.480469 15.105469 "/>
<path style=" stroke:none;fill-rule:evenodd;fill:rgb(56.470588%,72.156863%,81.176471%);fill-opacity:1;" d="M 16.863281 15.105469 C 16.835938 15.164062 16.789062 15.1875 16.722656 15.175781 C 16.769531 15.152344 16.816406 15.128906 16.863281 15.105469 Z M 16.863281 15.105469 "/>
<path style=" stroke:none;fill-rule:evenodd;fill:rgb(53.72549%,69.411765%,79.607843%);fill-opacity:1;" d="M 19.886719 15.175781 C 19.871094 15.226562 19.847656 15.273438 19.816406 15.316406 C 19.8125 15.253906 19.835938 15.207031 19.886719 15.175781 Z M 19.886719 15.175781 "/>
<path style=" stroke:none;fill-rule:evenodd;fill:rgb(51.372549%,68.627451%,78.823529%);fill-opacity:1;" d="M 14.261719 15.199219 C 14.335938 15.210938 14.40625 15.234375 14.472656 15.269531 C 14.390625 15.269531 14.320312 15.246094 14.261719 15.199219 Z M 14.261719 15.199219 "/>
<path style=" stroke:none;fill-rule:evenodd;fill:rgb(50.196078%,68.235294%,77.647059%);fill-opacity:1;" d="M 16.324219 15.292969 C 16.320312 15.308594 16.3125 15.320312 16.300781 15.328125 C 16.246094 15.339844 16.191406 15.34375 16.136719 15.339844 C 16.195312 15.320312 16.257812 15.304688 16.324219 15.292969 Z M 16.324219 15.292969 "/>
<path style=" stroke:none;fill-rule:evenodd;fill:rgb(51.764706%,69.019608%,78.823529%);fill-opacity:1;" d="M 14.472656 15.269531 C 14.617188 15.292969 14.757812 15.324219 14.894531 15.363281 C 14.746094 15.359375 14.605469 15.328125 14.472656 15.269531 Z M 14.472656 15.269531 "/>
<path style=" stroke:none;fill-rule:evenodd;fill:rgb(47.058824%,66.27451%,76.862745%);fill-opacity:1;" d="M 16.136719 15.339844 C 16.074219 15.375 16.003906 15.394531 15.925781 15.398438 C 15.605469 15.414062 15.285156 15.414062 14.964844 15.398438 C 14.9375 15.394531 14.914062 15.382812 14.894531 15.363281 C 15.308594 15.398438 15.722656 15.390625 16.136719 15.339844 Z M 16.136719 15.339844 "/>
<path style=" stroke:none;fill-rule:evenodd;fill:rgb(52.156863%,69.803922%,79.215686%);fill-opacity:1;" d="M 19.535156 15.386719 C 19.589844 15.386719 19.644531 15.394531 19.699219 15.410156 C 19.695312 15.425781 19.683594 15.433594 19.664062 15.433594 C 19.617188 15.421875 19.574219 15.40625 19.535156 15.386719 Z M 19.535156 15.386719 "/>
<path style=" stroke:none;fill-rule:evenodd;fill:rgb(50.980392%,68.627451%,78.823529%);fill-opacity:1;" d="M 12.785156 15.386719 C 12.839844 15.398438 12.886719 15.421875 12.925781 15.457031 C 12.863281 15.457031 12.816406 15.433594 12.785156 15.386719 Z M 12.785156 15.386719 "/>
<path style=" stroke:none;fill-rule:evenodd;fill:rgb(58.039216%,72.54902%,80.784314%);fill-opacity:1;" d="M 6.199219 15.269531 C 6.191406 15.3125 6.167969 15.347656 6.128906 15.375 C 6 15.476562 5.867188 15.574219 5.730469 15.667969 C 5.871094 15.519531 6.027344 15.386719 6.199219 15.269531 Z M 6.199219 15.269531 "/>
<path style=" stroke:none;fill-rule:evenodd;fill:rgb(57.647059%,72.156863%,80.784314%);fill-opacity:1;" d="M 5.730469 15.667969 C 5.65625 15.730469 5.585938 15.796875 5.519531 15.867188 C 5.496094 15.878906 5.472656 15.882812 5.449219 15.878906 C 5.53125 15.789062 5.625 15.71875 5.730469 15.667969 Z M 5.730469 15.667969 "/>
<path style=" stroke:none;fill-rule:evenodd;fill:rgb(54.901961%,70.196078%,79.607843%);fill-opacity:1;" d="M 9.996094 15.714844 C 10.050781 15.742188 10.082031 15.789062 10.089844 15.855469 C 10.046875 15.816406 10.015625 15.769531 9.996094 15.714844 Z M 9.996094 15.714844 "/>
<path style=" stroke:none;fill-rule:evenodd;fill:rgb(49.411765%,67.843137%,78.039216%);fill-opacity:1;" d="M 18.128906 15.808594 C 18.164062 15.863281 18.179688 15.925781 18.175781 15.996094 C 18.144531 15.941406 18.128906 15.878906 18.128906 15.808594 Z M 18.128906 15.808594 "/>
<path style=" stroke:none;fill-rule:evenodd;fill:rgb(58.431373%,72.54902%,81.176471%);fill-opacity:1;" d="M 5.308594 15.972656 C 5.238281 16.042969 5.152344 16.097656 5.050781 16.136719 C 5.125 16.066406 5.210938 16.011719 5.308594 15.972656 Z M 5.308594 15.972656 "/>
<path style=" stroke:none;fill-rule:evenodd;fill:rgb(50.980392%,68.235294%,78.431373%);fill-opacity:1;" d="M 10.136719 15.972656 C 10.179688 16.011719 10.210938 16.058594 10.230469 16.113281 C 10.175781 16.082031 10.144531 16.035156 10.136719 15.972656 Z M 10.136719 15.972656 "/>
<path style=" stroke:none;fill-rule:evenodd;fill:rgb(56.862745%,72.156863%,81.176471%);fill-opacity:1;" d="M 5.050781 16.136719 C 5.015625 16.179688 4.96875 16.203125 4.910156 16.207031 C 4.945312 16.164062 4.992188 16.140625 5.050781 16.136719 Z M 5.050781 16.136719 "/>
<path style=" stroke:none;fill-rule:evenodd;fill:rgb(55.294118%,70.980392%,79.215686%);fill-opacity:1;" d="M 11.777344 16.136719 C 11.828125 16.164062 11.859375 16.203125 11.871094 16.253906 C 11.820312 16.226562 11.789062 16.1875 11.777344 16.136719 Z M 11.777344 16.136719 "/>
<path style=" stroke:none;fill-rule:evenodd;fill:rgb(50.588235%,67.45098%,76.862745%);fill-opacity:1;" d="M 18.222656 16.136719 C 18.253906 16.191406 18.269531 16.253906 18.269531 16.324219 C 18.234375 16.269531 18.21875 16.207031 18.222656 16.136719 Z M 18.222656 16.136719 "/>
<path style=" stroke:none;fill-rule:evenodd;fill:rgb(34.509804%,59.215686%,74.117647%);fill-opacity:1;" d="M 4.863281 16.230469 C 4.851562 16.253906 4.835938 16.273438 4.816406 16.289062 C 4.707031 16.335938 4.597656 16.382812 4.488281 16.429688 C 4.53125 16.53125 4.554688 16.636719 4.558594 16.746094 C 4.523438 16.640625 4.492188 16.53125 4.464844 16.417969 C 4.539062 16.328125 4.632812 16.265625 4.746094 16.230469 C 4.753906 16.246094 4.761719 16.261719 4.769531 16.277344 C 4.796875 16.25 4.828125 16.234375 4.863281 16.230469 Z M 4.863281 16.230469 "/>
<path style=" stroke:none;fill-rule:evenodd;fill:rgb(51.764706%,69.411765%,78.823529%);fill-opacity:1;" d="M 12.878906 16.183594 C 12.878906 16.265625 12.863281 16.34375 12.832031 16.417969 C 12.828125 16.332031 12.84375 16.253906 12.878906 16.183594 Z M 12.878906 16.183594 "/>
<path style=" stroke:none;fill-rule:evenodd;fill:rgb(47.843137%,65.882353%,76.470588%);fill-opacity:1;" d="M 15.082031 16.324219 C 15.074219 16.410156 15.050781 16.488281 15.011719 16.558594 C 15.019531 16.472656 15.042969 16.394531 15.082031 16.324219 Z M 15.082031 16.324219 "/>
<path style=" stroke:none;fill-rule:evenodd;fill:rgb(50.980392%,68.235294%,78.039216%);fill-opacity:1;" d="M 16.042969 16.371094 C 16.117188 16.511719 16.171875 16.660156 16.207031 16.816406 C 16.132812 16.675781 16.078125 16.527344 16.042969 16.371094 Z M 16.042969 16.371094 "/>
<path style=" stroke:none;fill-rule:evenodd;fill:rgb(53.72549%,69.803922%,78.823529%);fill-opacity:1;" d="M 12.035156 16.488281 C 12.085938 16.515625 12.117188 16.554688 12.128906 16.605469 C 12.078125 16.578125 12.046875 16.539062 12.035156 16.488281 Z M 12.035156 16.488281 "/>
<path style=" stroke:none;fill-rule:evenodd;fill:rgb(42.352941%,62.745098%,73.72549%);fill-opacity:1;" d="M 6.761719 16.628906 C 6.761719 16.664062 6.746094 16.6875 6.714844 16.699219 C 6.714844 16.664062 6.730469 16.640625 6.761719 16.628906 Z M 6.761719 16.628906 "/>
<path style=" stroke:none;fill-rule:evenodd;fill:rgb(52.941176%,69.411765%,78.431373%);fill-opacity:1;" d="M 15.011719 16.558594 C 15 16.652344 14.96875 16.738281 14.917969 16.816406 C 14.929688 16.722656 14.960938 16.636719 15.011719 16.558594 Z M 15.011719 16.558594 "/>
<path style=" stroke:none;fill-rule:evenodd;fill:rgb(55.686275%,71.764706%,80.784314%);fill-opacity:1;" d="M 13.160156 16.839844 C 13.222656 16.832031 13.277344 16.847656 13.324219 16.886719 C 13.265625 16.882812 13.210938 16.867188 13.160156 16.839844 Z M 13.160156 16.839844 "/>
<path style=" stroke:none;fill-rule:evenodd;fill:rgb(51.764706%,69.019608%,78.823529%);fill-opacity:1;" d="M 4.558594 16.746094 C 4.59375 16.816406 4.609375 16.894531 4.605469 16.980469 C 4.574219 16.90625 4.558594 16.828125 4.558594 16.746094 Z M 4.558594 16.746094 "/>
<path style=" stroke:none;fill-rule:evenodd;fill:rgb(52.54902%,68.627451%,78.431373%);fill-opacity:1;" d="M 14.917969 16.816406 C 14.902344 16.929688 14.863281 17.03125 14.800781 17.121094 C 14.828125 17.011719 14.867188 16.910156 14.917969 16.816406 Z M 14.917969 16.816406 "/>
<path style=" stroke:none;fill-rule:evenodd;fill:rgb(53.333333%,69.411765%,79.215686%);fill-opacity:1;" d="M 12.410156 16.933594 C 12.464844 16.964844 12.503906 17.011719 12.527344 17.074219 C 12.472656 17.042969 12.433594 16.996094 12.410156 16.933594 Z M 12.410156 16.933594 "/>
<path style=" stroke:none;fill-rule:evenodd;fill:rgb(53.333333%,70.196078%,78.823529%);fill-opacity:1;" d="M 4.605469 16.980469 C 4.65625 17.089844 4.6875 17.207031 4.699219 17.332031 C 4.648438 17.222656 4.617188 17.105469 4.605469 16.980469 Z M 4.605469 16.980469 "/>
<path style=" stroke:none;fill-rule:evenodd;fill:rgb(50.588235%,68.627451%,78.431373%);fill-opacity:1;" d="M 14.308594 17.238281 C 14.378906 17.234375 14.441406 17.25 14.496094 17.285156 C 14.425781 17.285156 14.363281 17.269531 14.308594 17.238281 Z M 14.308594 17.238281 "/>
<path style=" stroke:none;fill-rule:evenodd;fill:rgb(49.411765%,67.058824%,77.647059%);fill-opacity:1;" d="M 16.792969 17.238281 C 16.746094 17.273438 16.691406 17.289062 16.628906 17.285156 C 16.675781 17.25 16.730469 17.234375 16.792969 17.238281 Z M 16.792969 17.238281 "/>
<path style=" stroke:none;fill-rule:evenodd;fill:rgb(50.196078%,68.235294%,77.647059%);fill-opacity:1;" d="M 16.417969 17.261719 C 16.488281 17.28125 16.558594 17.289062 16.628906 17.285156 C 16.570312 17.3125 16.507812 17.316406 16.441406 17.296875 C 16.429688 17.289062 16.421875 17.277344 16.417969 17.261719 Z M 16.417969 17.261719 "/>
<path style=" stroke:none;fill-rule:evenodd;fill:rgb(53.72549%,69.411765%,78.823529%);fill-opacity:1;" d="M 11.121094 17.378906 C 11.183594 17.425781 11.238281 17.480469 11.285156 17.542969 C 11.207031 17.511719 11.152344 17.457031 11.121094 17.378906 Z M 11.121094 17.378906 "/>
<path style=" stroke:none;fill-rule:evenodd;fill:rgb(53.72549%,69.411765%,79.215686%);fill-opacity:1;" d="M 12.808594 17.378906 C 12.878906 17.433594 12.941406 17.496094 12.996094 17.566406 C 12.910156 17.527344 12.847656 17.464844 12.808594 17.378906 Z M 12.808594 17.378906 "/>
<path style=" stroke:none;fill-rule:evenodd;fill:rgb(52.941176%,69.019608%,78.431373%);fill-opacity:1;" d="M 11.285156 17.542969 C 11.347656 17.558594 11.386719 17.597656 11.402344 17.660156 C 11.355469 17.628906 11.316406 17.589844 11.285156 17.542969 Z M 11.285156 17.542969 "/>
<path style=" stroke:none;fill-rule:evenodd;fill:rgb(41.960784%,62.745098%,74.117647%);fill-opacity:1;" d="M 5.542969 17.707031 C 5.519531 17.734375 5.488281 17.75 5.449219 17.753906 C 5.46875 17.714844 5.5 17.699219 5.542969 17.707031 Z M 5.542969 17.707031 "/>
<path style=" stroke:none;fill-rule:evenodd;fill:rgb(55.686275%,70.588235%,79.607843%);fill-opacity:1;" d="M 13.300781 17.847656 C 13.363281 17.871094 13.410156 17.910156 13.441406 17.964844 C 13.378906 17.941406 13.332031 17.902344 13.300781 17.847656 Z M 13.300781 17.847656 "/>
<path style=" stroke:none;fill-rule:evenodd;fill:rgb(40%,61.176471%,72.54902%);fill-opacity:1;" d="M 5.003906 18.082031 C 4.96875 18.125 4.929688 18.132812 4.886719 18.105469 C 4.925781 18.09375 4.964844 18.085938 5.003906 18.082031 Z M 5.003906 18.082031 "/>
<path style=" stroke:none;fill-rule:evenodd;fill:rgb(50.588235%,68.627451%,78.039216%);fill-opacity:1;" d="M 13.558594 18.082031 C 13.617188 18.101562 13.632812 18.136719 13.605469 18.1875 C 13.109375 18.207031 12.617188 18.203125 12.128906 18.175781 C 12.613281 18.183594 13.097656 18.175781 13.582031 18.152344 C 13.566406 18.128906 13.558594 18.105469 13.558594 18.082031 Z M 13.558594 18.082031 "/>
<path style=" stroke:none;fill-rule:evenodd;fill:rgb(54.901961%,70.196078%,79.215686%);fill-opacity:1;" d="M 2.777344 19.839844 C 2.890625 19.960938 2.984375 20.09375 3.058594 20.238281 C 3 20.15625 2.933594 20.078125 2.859375 20.003906 C 2.820312 19.957031 2.792969 19.902344 2.777344 19.839844 Z M 2.777344 19.839844 "/>
<path style=" stroke:none;fill-rule:evenodd;fill:rgb(47.45098%,65.882353%,76.470588%);fill-opacity:1;" d="M 3.058594 20.238281 C 3.222656 20.414062 3.382812 20.59375 3.539062 20.777344 C 3.722656 20.914062 3.890625 21.066406 4.042969 21.234375 C 4.242188 21.339844 4.429688 21.464844 4.605469 21.609375 C 4.984375 21.820312 5.375 22.007812 5.777344 22.171875 C 6.21875 22.273438 6.664062 22.351562 7.113281 22.40625 C 10.300781 22.417969 13.488281 22.421875 16.675781 22.417969 C 16.675781 22.425781 16.675781 22.433594 16.675781 22.441406 C 13.402344 22.453125 10.128906 22.441406 6.855469 22.40625 C 6.484375 22.351562 6.117188 22.28125 5.753906 22.195312 C 5.351562 22.03125 4.960938 21.84375 4.582031 21.632812 C 4.40625 21.488281 4.21875 21.363281 4.019531 21.257812 C 3.878906 21.101562 3.722656 20.960938 3.550781 20.835938 C 3.453125 20.714844 3.347656 20.601562 3.234375 20.496094 C 3.175781 20.410156 3.117188 20.324219 3.058594 20.238281 Z M 3.058594 20.238281 "/>
<path style=" stroke:none;fill-rule:evenodd;fill:rgb(59.607843%,74.117647%,81.960784%);fill-opacity:1;" d="M 22.886719 10.886719 C 22.894531 10.886719 22.902344 10.886719 22.910156 10.886719 C 22.914062 12.957031 22.910156 15.027344 22.898438 17.097656 C 22.726562 18.832031 21.964844 20.242188 20.613281 21.328125 C 20.441406 21.429688 20.277344 21.539062 20.121094 21.65625 C 19.96875 21.734375 19.8125 21.800781 19.652344 21.855469 C 19.796875 21.773438 19.945312 21.699219 20.097656 21.632812 C 20.316406 21.46875 20.542969 21.3125 20.777344 21.164062 C 22.023438 20.085938 22.722656 18.722656 22.875 17.074219 C 22.886719 15.011719 22.890625 12.949219 22.886719 10.886719 Z M 22.886719 10.886719 "/>
<path style=" stroke:none;fill-rule:evenodd;fill:rgb(53.72549%,70.588235%,80%);fill-opacity:1;" d="M 19.652344 21.855469 C 19.355469 22.0625 19.027344 22.199219 18.667969 22.265625 C 18.339844 22.332031 18.011719 22.386719 17.683594 22.429688 C 17.347656 22.441406 17.011719 22.445312 16.675781 22.441406 C 16.675781 22.433594 16.675781 22.425781 16.675781 22.417969 C 17.003906 22.421875 17.332031 22.417969 17.660156 22.40625 C 17.988281 22.363281 18.316406 22.308594 18.644531 22.242188 C 19 22.164062 19.335938 22.035156 19.652344 21.855469 Z M 19.652344 21.855469 "/>
</g>
</svg>
