<?xml version="1.0" encoding="UTF-8"?>
<svg xmlns="http://www.w3.org/2000/svg" xmlns:xlink="http://www.w3.org/1999/xlink" width="24px" height="24px" viewBox="0 0 24 24" version="1.1">
<defs>
<filter id="alpha" filterUnits="objectBoundingBox" x="0%" y="0%" width="100%" height="100%">
  <feColorMatrix type="matrix" in="SourceGraphic" values="0 0 0 0 1 0 0 0 0 1 0 0 0 0 1 0 0 0 1 0"/>
</filter>
<mask id="mask0">
  <g filter="url(#alpha)">
<rect x="0" y="0" width="24" height="24" style="fill:rgb(0%,0%,0%);fill-opacity:0.933333;stroke:none;"/>
  </g>
</mask>
<clipPath id="clip1">
  <rect x="0" y="0" width="24" height="24"/>
</clipPath>
<g id="surface5" clip-path="url(#clip1)">
<path style=" stroke:none;fill-rule:evenodd;fill:rgb(71.764706%,81.568627%,87.843137%);fill-opacity:1;" d="M 19.722656 21.832031 C 19.699219 21.859375 19.667969 21.875 19.628906 21.878906 C 19.648438 21.839844 19.679688 21.824219 19.722656 21.832031 Z M 19.722656 21.832031 "/>
</g>
</defs>
<g id="surface1">
<path style=" stroke:none;fill-rule:evenodd;fill:rgb(58.039216%,73.333333%,81.568627%);fill-opacity:1;" d="M 17.542969 1.394531 C 14.035156 1.386719 10.527344 1.394531 7.019531 1.417969 C 7.078125 1.398438 7.140625 1.386719 7.207031 1.382812 C 10.65625 1.363281 14.101562 1.367188 17.542969 1.394531 Z M 17.542969 1.394531 "/>
<path style=" stroke:none;fill-rule:evenodd;fill:rgb(7.058824%,41.176471%,59.215686%);fill-opacity:1;" d="M 17.542969 1.394531 C 17.757812 1.4375 17.976562 1.46875 18.199219 1.488281 C 18.425781 1.511719 18.644531 1.558594 18.855469 1.628906 C 18.894531 1.664062 18.941406 1.679688 18.996094 1.675781 C 19.050781 1.710938 19.113281 1.734375 19.183594 1.746094 C 19.230469 1.742188 19.269531 1.757812 19.300781 1.792969 C 19.335938 1.835938 19.382812 1.859375 19.441406 1.863281 C 19.472656 1.898438 19.511719 1.914062 19.558594 1.910156 C 19.601562 1.917969 19.640625 1.933594 19.675781 1.957031 C 19.683594 1.992188 19.707031 2.007812 19.746094 2.003906 C 19.765625 2.042969 19.796875 2.058594 19.839844 2.050781 C 19.863281 2.046875 19.878906 2.054688 19.886719 2.074219 C 19.921875 2.132812 19.976562 2.164062 20.050781 2.167969 C 20.148438 2.207031 20.234375 2.261719 20.308594 2.332031 C 20.316406 2.367188 20.339844 2.382812 20.378906 2.378906 C 20.402344 2.375 20.417969 2.382812 20.425781 2.402344 C 20.4375 2.449219 20.46875 2.472656 20.519531 2.472656 C 20.589844 2.511719 20.652344 2.558594 20.707031 2.613281 C 20.777344 2.707031 20.863281 2.785156 20.964844 2.847656 C 20.972656 2.886719 20.996094 2.910156 21.035156 2.917969 C 21.066406 2.964844 21.105469 3.003906 21.152344 3.035156 C 21.160156 3.070312 21.183594 3.085938 21.222656 3.082031 C 21.277344 3.175781 21.347656 3.253906 21.433594 3.316406 C 21.449219 3.347656 21.449219 3.375 21.433594 3.398438 C 21.480469 3.421875 21.527344 3.449219 21.574219 3.480469 C 21.617188 3.5 21.640625 3.53125 21.644531 3.574219 C 21.648438 3.617188 21.671875 3.648438 21.714844 3.667969 C 21.714844 3.703125 21.730469 3.726562 21.761719 3.738281 C 21.785156 3.746094 21.800781 3.761719 21.808594 3.785156 C 21.808594 3.820312 21.824219 3.84375 21.855469 3.855469 C 21.859375 3.898438 21.882812 3.929688 21.925781 3.949219 C 21.945312 3.957031 21.953125 3.972656 21.949219 3.996094 C 21.949219 4.03125 21.964844 4.054688 21.996094 4.066406 C 22 4.109375 22.023438 4.140625 22.066406 4.160156 C 22.117188 4.230469 22.15625 4.308594 22.183594 4.394531 C 22.183594 4.429688 22.199219 4.453125 22.230469 4.464844 C 22.265625 4.503906 22.289062 4.550781 22.300781 4.605469 C 22.304688 4.644531 22.320312 4.675781 22.347656 4.699219 C 22.410156 4.78125 22.449219 4.875 22.464844 4.980469 C 22.457031 5.023438 22.472656 5.054688 22.511719 5.074219 C 22.546875 5.136719 22.570312 5.207031 22.582031 5.285156 C 22.601562 5.386719 22.632812 5.480469 22.675781 5.566406 C 22.710938 5.613281 22.726562 5.667969 22.722656 5.730469 C 22.71875 5.832031 22.734375 5.925781 22.769531 6.011719 C 22.828125 6.183594 22.859375 6.363281 22.863281 6.550781 C 22.886719 10.066406 22.894531 13.582031 22.886719 17.097656 C 22.851562 17.226562 22.835938 17.359375 22.839844 17.496094 C 22.808594 17.574219 22.792969 17.660156 22.792969 17.753906 C 22.792969 17.832031 22.777344 17.902344 22.746094 17.964844 C 22.710938 18.042969 22.695312 18.128906 22.699219 18.222656 C 22.664062 18.261719 22.648438 18.308594 22.652344 18.363281 C 22.617188 18.402344 22.601562 18.449219 22.605469 18.503906 C 22.609375 18.527344 22.601562 18.542969 22.582031 18.550781 C 22.546875 18.582031 22.53125 18.621094 22.535156 18.667969 C 22.464844 18.746094 22.433594 18.839844 22.441406 18.949219 C 22.433594 18.992188 22.417969 19.03125 22.394531 19.066406 C 22.339844 19.105469 22.316406 19.160156 22.324219 19.230469 C 22.292969 19.285156 22.261719 19.339844 22.230469 19.394531 C 22.195312 19.386719 22.164062 19.394531 22.136719 19.417969 C 22.148438 19.453125 22.148438 19.492188 22.136719 19.535156 C 22.09375 19.640625 22.042969 19.742188 21.984375 19.839844 C 21.859375 20.015625 21.730469 20.1875 21.597656 20.355469 C 21.5625 20.363281 21.546875 20.386719 21.550781 20.425781 C 21.535156 20.457031 21.511719 20.480469 21.480469 20.496094 C 21.457031 20.503906 21.441406 20.519531 21.433594 20.542969 C 21.402344 20.589844 21.363281 20.628906 21.316406 20.660156 C 21.292969 20.667969 21.277344 20.683594 21.269531 20.707031 C 21.273438 20.722656 21.269531 20.738281 21.257812 20.753906 C 21.097656 20.890625 20.945312 21.035156 20.800781 21.1875 C 20.710938 21.253906 20.617188 21.3125 20.519531 21.363281 C 20.480469 21.359375 20.457031 21.375 20.449219 21.410156 C 20.367188 21.476562 20.28125 21.539062 20.191406 21.597656 C 20.152344 21.59375 20.128906 21.609375 20.121094 21.644531 C 20.074219 21.667969 20.027344 21.691406 19.980469 21.714844 C 19.933594 21.710938 19.894531 21.726562 19.863281 21.761719 C 19.855469 21.78125 19.839844 21.789062 19.816406 21.785156 C 19.773438 21.777344 19.742188 21.792969 19.722656 21.832031 C 19.679688 21.824219 19.648438 21.839844 19.628906 21.878906 C 19.621094 21.898438 19.605469 21.90625 19.582031 21.902344 C 19.542969 21.898438 19.519531 21.914062 19.511719 21.949219 C 19.449219 22 19.378906 22.03125 19.300781 22.042969 C 19.257812 22.035156 19.226562 22.050781 19.207031 22.089844 C 19.152344 22.132812 19.089844 22.15625 19.019531 22.160156 C 18.964844 22.15625 18.917969 22.171875 18.878906 22.207031 C 18.761719 22.214844 18.652344 22.238281 18.550781 22.277344 C 18.46875 22.304688 18.382812 22.320312 18.292969 22.324219 C 18.191406 22.320312 18.097656 22.335938 18.011719 22.371094 C 17.894531 22.371094 17.777344 22.382812 17.660156 22.40625 C 14.136719 22.417969 10.613281 22.421875 7.089844 22.417969 C 6.976562 22.390625 6.859375 22.375 6.738281 22.371094 C 6.585938 22.363281 6.4375 22.339844 6.292969 22.300781 C 6.144531 22.246094 5.988281 22.214844 5.824219 22.207031 C 5.777344 22.210938 5.738281 22.195312 5.707031 22.160156 C 5.660156 22.105469 5.597656 22.082031 5.519531 22.089844 C 5.394531 22.046875 5.277344 21.992188 5.167969 21.925781 C 5.15625 21.894531 5.132812 21.878906 5.097656 21.878906 C 5.058594 21.875 5.027344 21.859375 5.003906 21.832031 C 4.992188 21.800781 4.96875 21.785156 4.933594 21.785156 C 4.910156 21.789062 4.894531 21.78125 4.886719 21.761719 C 4.84375 21.722656 4.800781 21.683594 4.757812 21.644531 C 4.734375 21.664062 4.707031 21.671875 4.675781 21.667969 C 4.652344 21.671875 4.636719 21.664062 4.628906 21.644531 C 4.617188 21.613281 4.59375 21.597656 4.558594 21.597656 C 4.546875 21.566406 4.523438 21.550781 4.488281 21.550781 C 4.476562 21.519531 4.453125 21.503906 4.417969 21.503906 C 4.398438 21.460938 4.367188 21.4375 4.324219 21.433594 C 4.261719 21.394531 4.199219 21.355469 4.136719 21.316406 C 4.125 21.285156 4.101562 21.269531 4.066406 21.269531 C 4.011719 21.246094 3.972656 21.207031 3.949219 21.152344 C 3.9375 21.121094 3.914062 21.105469 3.878906 21.105469 C 3.871094 21.050781 3.839844 21.019531 3.785156 21.011719 C 3.777344 20.972656 3.753906 20.949219 3.714844 20.941406 C 3.667969 20.921875 3.628906 20.890625 3.597656 20.847656 C 3.585938 20.816406 3.5625 20.800781 3.527344 20.800781 C 3.507812 20.792969 3.5 20.777344 3.503906 20.753906 C 3.496094 20.699219 3.464844 20.667969 3.410156 20.660156 C 3.371094 20.613281 3.332031 20.566406 3.292969 20.519531 C 3.273438 20.476562 3.242188 20.445312 3.199219 20.425781 C 3.191406 20.351562 3.152344 20.304688 3.082031 20.285156 C 3.023438 20.234375 2.984375 20.171875 2.964844 20.097656 C 2.957031 20.042969 2.925781 20.011719 2.871094 20.003906 C 2.851562 19.996094 2.84375 19.980469 2.847656 19.957031 C 2.839844 19.890625 2.808594 19.84375 2.753906 19.816406 C 2.757812 19.777344 2.742188 19.753906 2.707031 19.746094 C 2.683594 19.710938 2.667969 19.671875 2.660156 19.628906 C 2.664062 19.589844 2.648438 19.566406 2.613281 19.558594 C 2.59375 19.550781 2.585938 19.535156 2.589844 19.511719 C 2.574219 19.433594 2.535156 19.371094 2.472656 19.324219 C 2.445312 19.300781 2.429688 19.269531 2.425781 19.230469 C 2.417969 19.140625 2.386719 19.0625 2.332031 18.996094 C 2.300781 18.914062 2.269531 18.828125 2.238281 18.738281 C 2.242188 18.683594 2.226562 18.636719 2.191406 18.597656 C 2.164062 18.558594 2.148438 18.511719 2.144531 18.457031 C 2.125 18.339844 2.09375 18.230469 2.050781 18.128906 C 2.050781 18.058594 2.035156 17.996094 2.003906 17.941406 C 1.964844 17.828125 1.941406 17.710938 1.933594 17.589844 C 1.921875 17.449219 1.902344 17.308594 1.875 17.167969 C 1.855469 13.621094 1.859375 10.074219 1.886719 6.527344 C 1.898438 6.382812 1.921875 6.242188 1.957031 6.105469 C 2.007812 6.003906 2.03125 5.894531 2.027344 5.777344 C 2.023438 5.722656 2.039062 5.675781 2.074219 5.636719 C 2.128906 5.5625 2.152344 5.476562 2.144531 5.378906 C 2.15625 5.285156 2.1875 5.199219 2.238281 5.121094 C 2.257812 5.097656 2.28125 5.078125 2.308594 5.0625 C 2.289062 5.039062 2.28125 5.011719 2.285156 4.980469 C 2.292969 4.9375 2.308594 4.898438 2.332031 4.863281 C 2.371094 4.796875 2.402344 4.726562 2.425781 4.652344 C 2.4375 4.597656 2.460938 4.550781 2.496094 4.511719 C 2.554688 4.472656 2.585938 4.417969 2.589844 4.347656 C 2.59375 4.308594 2.609375 4.277344 2.636719 4.253906 C 2.652344 4.246094 2.667969 4.238281 2.683594 4.230469 C 2.738281 4.121094 2.792969 4.011719 2.847656 3.902344 C 2.890625 3.882812 2.914062 3.851562 2.917969 3.808594 C 2.988281 3.769531 3.035156 3.707031 3.058594 3.621094 C 3.105469 3.597656 3.136719 3.558594 3.152344 3.503906 C 3.207031 3.472656 3.246094 3.425781 3.269531 3.363281 C 3.339844 3.316406 3.394531 3.253906 3.433594 3.175781 C 3.542969 3.105469 3.636719 3.019531 3.714844 2.917969 C 3.722656 2.894531 3.738281 2.878906 3.761719 2.871094 C 3.816406 2.832031 3.863281 2.785156 3.902344 2.730469 C 3.980469 2.710938 4.035156 2.664062 4.066406 2.589844 C 4.140625 2.539062 4.226562 2.511719 4.324219 2.507812 C 4.3125 2.460938 4.328125 2.417969 4.371094 2.378906 C 4.417969 2.332031 4.472656 2.292969 4.535156 2.261719 C 4.582031 2.246094 4.621094 2.222656 4.652344 2.191406 C 4.675781 2.164062 4.707031 2.148438 4.746094 2.144531 C 4.824219 2.128906 4.886719 2.089844 4.933594 2.027344 C 5.019531 2.027344 5.089844 1.996094 5.144531 1.933594 C 5.25 1.859375 5.367188 1.804688 5.496094 1.769531 C 5.582031 1.769531 5.652344 1.738281 5.707031 1.675781 C 5.730469 1.652344 5.761719 1.644531 5.800781 1.652344 C 5.832031 1.648438 5.859375 1.65625 5.882812 1.675781 C 5.90625 1.644531 5.933594 1.621094 5.964844 1.605469 C 6.035156 1.613281 6.097656 1.597656 6.152344 1.558594 C 6.230469 1.527344 6.316406 1.511719 6.410156 1.511719 C 6.515625 1.507812 6.617188 1.492188 6.714844 1.464844 C 6.808594 1.429688 6.910156 1.414062 7.019531 1.417969 C 10.527344 1.394531 14.035156 1.386719 17.542969 1.394531 Z M 17.542969 1.394531 "/>
<path style=" stroke:none;fill-rule:evenodd;fill:rgb(54.509804%,70.980392%,80.392157%);fill-opacity:1;" d="M 17.542969 1.394531 C 17.769531 1.402344 17.988281 1.433594 18.199219 1.488281 C 17.976562 1.46875 17.757812 1.4375 17.542969 1.394531 Z M 17.542969 1.394531 "/>
<path style=" stroke:none;fill-rule:evenodd;fill:rgb(53.72549%,70.980392%,79.607843%);fill-opacity:1;" d="M 6.714844 1.464844 C 6.617188 1.492188 6.515625 1.507812 6.410156 1.511719 C 6.429688 1.492188 6.453125 1.480469 6.480469 1.476562 C 6.558594 1.464844 6.636719 1.460938 6.714844 1.464844 Z M 6.714844 1.464844 "/>
<path style=" stroke:none;fill-rule:evenodd;fill:rgb(39.607843%,60.392157%,72.941176%);fill-opacity:1;" d="M 6.152344 1.558594 C 6.097656 1.597656 6.035156 1.613281 5.964844 1.605469 C 6.019531 1.570312 6.082031 1.554688 6.152344 1.558594 Z M 6.152344 1.558594 "/>
<path style=" stroke:none;fill-rule:evenodd;fill:rgb(41.568627%,60.784314%,73.333333%);fill-opacity:1;" d="M 5.964844 1.605469 C 5.933594 1.621094 5.90625 1.644531 5.882812 1.675781 C 5.859375 1.65625 5.832031 1.648438 5.800781 1.652344 C 5.847656 1.617188 5.902344 1.601562 5.964844 1.605469 Z M 5.964844 1.605469 "/>
<path style=" stroke:none;fill-rule:evenodd;fill:rgb(54.117647%,70.980392%,80.392157%);fill-opacity:1;" d="M 18.855469 1.628906 C 18.910156 1.632812 18.957031 1.648438 18.996094 1.675781 C 18.941406 1.679688 18.894531 1.664062 18.855469 1.628906 Z M 18.855469 1.628906 "/>
<path style=" stroke:none;fill-rule:evenodd;fill:rgb(53.72549%,70.588235%,79.607843%);fill-opacity:1;" d="M 18.996094 1.675781 C 19.070312 1.671875 19.132812 1.695312 19.183594 1.746094 C 19.113281 1.734375 19.050781 1.710938 18.996094 1.675781 Z M 18.996094 1.675781 "/>
<path style=" stroke:none;fill-rule:evenodd;fill:rgb(44.705882%,63.137255%,74.901961%);fill-opacity:1;" d="M 5.707031 1.675781 C 5.652344 1.738281 5.582031 1.769531 5.496094 1.769531 C 5.558594 1.71875 5.628906 1.6875 5.707031 1.675781 Z M 5.707031 1.675781 "/>
<path style=" stroke:none;fill-rule:evenodd;fill:rgb(56.470588%,72.54902%,81.176471%);fill-opacity:1;" d="M 19.300781 1.792969 C 19.359375 1.796875 19.40625 1.820312 19.441406 1.863281 C 19.382812 1.859375 19.335938 1.835938 19.300781 1.792969 Z M 19.300781 1.792969 "/>
<path style=" stroke:none;fill-rule:evenodd;fill:rgb(54.117647%,70.588235%,80.392157%);fill-opacity:1;" d="M 19.441406 1.863281 C 19.488281 1.859375 19.527344 1.875 19.558594 1.910156 C 19.511719 1.914062 19.472656 1.898438 19.441406 1.863281 Z M 19.441406 1.863281 "/>
<path style=" stroke:none;fill-rule:evenodd;fill:rgb(50.588235%,68.235294%,78.039216%);fill-opacity:1;" d="M 5.144531 1.933594 C 5.089844 1.996094 5.019531 2.027344 4.933594 2.027344 C 5 1.988281 5.070312 1.957031 5.144531 1.933594 Z M 5.144531 1.933594 "/>
<path style=" stroke:none;fill-rule:evenodd;fill:rgb(52.54902%,69.411765%,79.215686%);fill-opacity:1;" d="M 19.675781 1.957031 C 19.703125 1.96875 19.726562 1.984375 19.746094 2.003906 C 19.707031 2.007812 19.683594 1.992188 19.675781 1.957031 Z M 19.675781 1.957031 "/>
<path style=" stroke:none;fill-rule:evenodd;fill:rgb(57.254902%,72.941176%,80.784314%);fill-opacity:1;" d="M 19.746094 2.003906 C 19.785156 2.007812 19.816406 2.023438 19.839844 2.050781 C 19.796875 2.058594 19.765625 2.042969 19.746094 2.003906 Z M 19.746094 2.003906 "/>
<path style=" stroke:none;fill-rule:evenodd;fill:rgb(50.980392%,67.843137%,77.647059%);fill-opacity:1;" d="M 4.933594 2.027344 C 4.886719 2.089844 4.824219 2.128906 4.746094 2.144531 C 4.800781 2.09375 4.863281 2.054688 4.933594 2.027344 Z M 4.933594 2.027344 "/>
<path style=" stroke:none;fill-rule:evenodd;fill:rgb(51.764706%,68.627451%,78.039216%);fill-opacity:1;" d="M 19.886719 2.074219 C 19.945312 2.101562 20 2.132812 20.050781 2.167969 C 19.976562 2.164062 19.921875 2.132812 19.886719 2.074219 Z M 19.886719 2.074219 "/>
<path style=" stroke:none;fill-rule:evenodd;fill:rgb(55.294118%,70.588235%,79.607843%);fill-opacity:1;" d="M 4.652344 2.191406 C 4.621094 2.222656 4.582031 2.246094 4.535156 2.261719 C 4.554688 2.210938 4.59375 2.1875 4.652344 2.191406 Z M 4.652344 2.191406 "/>
<path style=" stroke:none;fill-rule:evenodd;fill:rgb(54.117647%,70.196078%,78.823529%);fill-opacity:1;" d="M 20.308594 2.332031 C 20.335938 2.34375 20.359375 2.359375 20.378906 2.378906 C 20.339844 2.382812 20.316406 2.367188 20.308594 2.332031 Z M 20.308594 2.332031 "/>
<path style=" stroke:none;fill-rule:evenodd;fill:rgb(52.941176%,69.019608%,78.431373%);fill-opacity:1;" d="M 20.425781 2.402344 C 20.464844 2.414062 20.496094 2.4375 20.519531 2.472656 C 20.46875 2.472656 20.4375 2.449219 20.425781 2.402344 Z M 20.425781 2.402344 "/>
<path style=" stroke:none;fill-rule:evenodd;fill:rgb(37.254902%,57.647059%,70.588235%);fill-opacity:1;" d="M 4.371094 2.378906 C 4.328125 2.417969 4.3125 2.460938 4.324219 2.507812 C 4.226562 2.511719 4.140625 2.539062 4.066406 2.589844 C 4.164062 2.515625 4.265625 2.445312 4.371094 2.378906 Z M 4.371094 2.378906 "/>
<path style=" stroke:none;fill-rule:evenodd;fill:rgb(49.411765%,67.45098%,76.862745%);fill-opacity:1;" d="M 4.066406 2.589844 C 4.035156 2.664062 3.980469 2.710938 3.902344 2.730469 C 3.953125 2.679688 4.007812 2.632812 4.066406 2.589844 Z M 4.066406 2.589844 "/>
<path style=" stroke:none;fill-rule:evenodd;fill:rgb(56.078431%,71.764706%,80.784314%);fill-opacity:1;" d="M 20.707031 2.613281 C 20.773438 2.652344 20.835938 2.695312 20.894531 2.742188 C 20.933594 2.769531 20.957031 2.804688 20.964844 2.847656 C 20.863281 2.785156 20.777344 2.707031 20.707031 2.613281 Z M 20.707031 2.613281 "/>
<path style=" stroke:none;fill-rule:evenodd;fill:rgb(51.372549%,68.235294%,77.647059%);fill-opacity:1;" d="M 3.902344 2.730469 C 3.863281 2.785156 3.816406 2.832031 3.761719 2.871094 C 3.785156 2.800781 3.832031 2.753906 3.902344 2.730469 Z M 3.902344 2.730469 "/>
<path style=" stroke:none;fill-rule:evenodd;fill:rgb(57.647059%,72.156863%,80.392157%);fill-opacity:1;" d="M 20.964844 2.847656 C 21.003906 2.855469 21.027344 2.878906 21.035156 2.917969 C 20.996094 2.910156 20.972656 2.886719 20.964844 2.847656 Z M 20.964844 2.847656 "/>
<path style=" stroke:none;fill-rule:evenodd;fill:rgb(52.54902%,69.019608%,78.431373%);fill-opacity:1;" d="M 21.035156 2.917969 C 21.097656 2.933594 21.136719 2.972656 21.152344 3.035156 C 21.105469 3.003906 21.066406 2.964844 21.035156 2.917969 Z M 21.035156 2.917969 "/>
<path style=" stroke:none;fill-rule:evenodd;fill:rgb(52.156863%,68.235294%,78.431373%);fill-opacity:1;" d="M 21.152344 3.035156 C 21.179688 3.046875 21.203125 3.0625 21.222656 3.082031 C 21.183594 3.085938 21.160156 3.070312 21.152344 3.035156 Z M 21.152344 3.035156 "/>
<path style=" stroke:none;fill-rule:evenodd;fill:rgb(54.117647%,70.196078%,79.607843%);fill-opacity:1;" d="M 21.222656 3.082031 C 21.308594 3.144531 21.378906 3.222656 21.433594 3.316406 C 21.347656 3.253906 21.277344 3.175781 21.222656 3.082031 Z M 21.222656 3.082031 "/>
<path style=" stroke:none;fill-rule:evenodd;fill:rgb(49.019608%,66.666667%,76.862745%);fill-opacity:1;" d="M 3.714844 2.917969 C 3.636719 3.019531 3.542969 3.105469 3.433594 3.175781 C 3.511719 3.074219 3.605469 2.988281 3.714844 2.917969 Z M 3.714844 2.917969 "/>
<path style=" stroke:none;fill-rule:evenodd;fill:rgb(49.019608%,67.058824%,77.254902%);fill-opacity:1;" d="M 3.433594 3.175781 C 3.394531 3.253906 3.339844 3.316406 3.269531 3.363281 C 3.308594 3.285156 3.363281 3.222656 3.433594 3.175781 Z M 3.433594 3.175781 "/>
<path style=" stroke:none;fill-rule:evenodd;fill:rgb(35.294118%,56.470588%,69.803922%);fill-opacity:1;" d="M 21.433594 3.316406 C 21.496094 3.355469 21.542969 3.410156 21.574219 3.480469 C 21.527344 3.449219 21.480469 3.421875 21.433594 3.398438 C 21.449219 3.375 21.449219 3.347656 21.433594 3.316406 Z M 21.433594 3.316406 "/>
<path style=" stroke:none;fill-rule:evenodd;fill:rgb(50.588235%,67.45098%,77.254902%);fill-opacity:1;" d="M 3.269531 3.363281 C 3.246094 3.425781 3.207031 3.472656 3.152344 3.503906 C 3.175781 3.441406 3.214844 3.394531 3.269531 3.363281 Z M 3.269531 3.363281 "/>
<path style=" stroke:none;fill-rule:evenodd;fill:rgb(51.764706%,68.235294%,78.039216%);fill-opacity:1;" d="M 3.152344 3.503906 C 3.136719 3.558594 3.105469 3.597656 3.058594 3.621094 C 3.074219 3.566406 3.105469 3.527344 3.152344 3.503906 Z M 3.152344 3.503906 "/>
<path style=" stroke:none;fill-rule:evenodd;fill:rgb(51.764706%,68.235294%,78.039216%);fill-opacity:1;" d="M 21.644531 3.574219 C 21.6875 3.59375 21.710938 3.625 21.714844 3.667969 C 21.671875 3.648438 21.648438 3.617188 21.644531 3.574219 Z M 21.644531 3.574219 "/>
<path style=" stroke:none;fill-rule:evenodd;fill:rgb(61.960784%,75.294118%,83.137255%);fill-opacity:1;" d="M 21.714844 3.667969 C 21.746094 3.679688 21.761719 3.703125 21.761719 3.738281 C 21.730469 3.726562 21.714844 3.703125 21.714844 3.667969 Z M 21.714844 3.667969 "/>
<path style=" stroke:none;fill-rule:evenodd;fill:rgb(54.901961%,70.196078%,79.607843%);fill-opacity:1;" d="M 3.058594 3.621094 C 3.035156 3.707031 2.988281 3.769531 2.917969 3.808594 C 2.957031 3.738281 3.003906 3.675781 3.058594 3.621094 Z M 3.058594 3.621094 "/>
<path style=" stroke:none;fill-rule:evenodd;fill:rgb(52.54902%,68.627451%,78.431373%);fill-opacity:1;" d="M 2.917969 3.808594 C 2.914062 3.851562 2.890625 3.882812 2.847656 3.902344 C 2.851562 3.859375 2.875 3.828125 2.917969 3.808594 Z M 2.917969 3.808594 "/>
<path style=" stroke:none;fill-rule:evenodd;fill:rgb(56.862745%,70.588235%,80%);fill-opacity:1;" d="M 21.808594 3.785156 C 21.839844 3.796875 21.855469 3.820312 21.855469 3.855469 C 21.824219 3.84375 21.808594 3.820312 21.808594 3.785156 Z M 21.808594 3.785156 "/>
<path style=" stroke:none;fill-rule:evenodd;fill:rgb(52.156863%,68.627451%,78.431373%);fill-opacity:1;" d="M 21.855469 3.855469 C 21.898438 3.875 21.921875 3.90625 21.925781 3.949219 C 21.882812 3.929688 21.859375 3.898438 21.855469 3.855469 Z M 21.855469 3.855469 "/>
<path style=" stroke:none;fill-rule:evenodd;fill:rgb(49.803922%,67.45098%,76.862745%);fill-opacity:1;" d="M 2.847656 3.902344 C 2.792969 4.011719 2.738281 4.121094 2.683594 4.230469 C 2.667969 4.238281 2.652344 4.246094 2.636719 4.253906 C 2.6875 4.125 2.757812 4.007812 2.847656 3.902344 Z M 2.847656 3.902344 "/>
<path style=" stroke:none;fill-rule:evenodd;fill:rgb(55.686275%,71.764706%,80.784314%);fill-opacity:1;" d="M 21.949219 3.996094 C 21.980469 4.007812 21.996094 4.03125 21.996094 4.066406 C 21.964844 4.054688 21.949219 4.03125 21.949219 3.996094 Z M 21.949219 3.996094 "/>
<path style=" stroke:none;fill-rule:evenodd;fill:rgb(50.980392%,67.45098%,78.039216%);fill-opacity:1;" d="M 21.996094 4.066406 C 22.039062 4.085938 22.0625 4.117188 22.066406 4.160156 C 22.023438 4.140625 22 4.109375 21.996094 4.066406 Z M 21.996094 4.066406 "/>
<path style=" stroke:none;fill-rule:evenodd;fill:rgb(51.764706%,68.627451%,78.039216%);fill-opacity:1;" d="M 2.589844 4.347656 C 2.585938 4.417969 2.554688 4.472656 2.496094 4.511719 C 2.519531 4.449219 2.550781 4.394531 2.589844 4.347656 Z M 2.589844 4.347656 "/>
<path style=" stroke:none;fill-rule:evenodd;fill:rgb(57.647059%,72.54902%,81.568627%);fill-opacity:1;" d="M 22.183594 4.394531 C 22.214844 4.40625 22.230469 4.429688 22.230469 4.464844 C 22.199219 4.453125 22.183594 4.429688 22.183594 4.394531 Z M 22.183594 4.394531 "/>
<path style=" stroke:none;fill-rule:evenodd;fill:rgb(55.294118%,70.588235%,79.607843%);fill-opacity:1;" d="M 22.300781 4.605469 C 22.339844 4.625 22.355469 4.65625 22.347656 4.699219 C 22.320312 4.675781 22.304688 4.644531 22.300781 4.605469 Z M 22.300781 4.605469 "/>
<path style=" stroke:none;fill-rule:evenodd;fill:rgb(55.294118%,71.372549%,80%);fill-opacity:1;" d="M 2.425781 4.652344 C 2.402344 4.726562 2.371094 4.796875 2.332031 4.863281 C 2.335938 4.777344 2.367188 4.707031 2.425781 4.652344 Z M 2.425781 4.652344 "/>
<path style=" stroke:none;fill-rule:evenodd;fill:rgb(41.960784%,60.784314%,72.54902%);fill-opacity:1;" d="M 2.285156 4.980469 C 2.28125 5.011719 2.289062 5.039062 2.308594 5.0625 C 2.28125 5.078125 2.257812 5.097656 2.238281 5.121094 C 2.242188 5.066406 2.257812 5.019531 2.285156 4.980469 Z M 2.285156 4.980469 "/>
<path style=" stroke:none;fill-rule:evenodd;fill:rgb(60%,74.117647%,81.568627%);fill-opacity:1;" d="M 22.464844 4.980469 C 22.492188 5.003906 22.507812 5.035156 22.511719 5.074219 C 22.472656 5.054688 22.457031 5.023438 22.464844 4.980469 Z M 22.464844 4.980469 "/>
<path style=" stroke:none;fill-rule:evenodd;fill:rgb(98.431373%,98.431373%,98.823529%);fill-opacity:1;" d="M 6.785156 5.121094 C 6.828125 5.132812 6.867188 5.152344 6.902344 5.179688 C 7.164062 5.421875 7.4375 5.648438 7.722656 5.859375 C 7.851562 5.925781 7.976562 5.996094 8.097656 6.070312 C 8.125 6.125 8.164062 6.167969 8.214844 6.199219 C 8.070312 6.28125 7.921875 6.363281 7.769531 6.445312 C 7.523438 6.695312 7.273438 6.941406 7.019531 7.183594 C 6.710938 6.972656 6.414062 6.75 6.128906 6.515625 C 5.9375 6.410156 5.75 6.292969 5.566406 6.164062 C 5.441406 6.085938 5.441406 6.007812 5.566406 5.929688 C 5.984375 5.675781 6.390625 5.40625 6.785156 5.121094 Z M 6.785156 5.121094 "/>
<path style=" stroke:none;fill-rule:evenodd;fill:rgb(61.568627%,75.294118%,82.352941%);fill-opacity:1;" d="M 22.582031 5.285156 C 22.636719 5.371094 22.667969 5.464844 22.675781 5.566406 C 22.632812 5.480469 22.601562 5.386719 22.582031 5.285156 Z M 22.582031 5.285156 "/>
<path style=" stroke:none;fill-rule:evenodd;fill:rgb(50.980392%,68.627451%,77.647059%);fill-opacity:1;" d="M 2.144531 5.378906 C 2.152344 5.476562 2.128906 5.5625 2.074219 5.636719 C 2.09375 5.546875 2.117188 5.460938 2.144531 5.378906 Z M 2.144531 5.378906 "/>
<path style=" stroke:none;fill-rule:evenodd;fill:rgb(52.54902%,68.627451%,78.431373%);fill-opacity:1;" d="M 2.027344 5.777344 C 2.03125 5.894531 2.007812 6.003906 1.957031 6.105469 C 1.972656 5.992188 1.996094 5.882812 2.027344 5.777344 Z M 2.027344 5.777344 "/>
<path style=" stroke:none;fill-rule:evenodd;fill:rgb(48.627451%,67.45098%,77.254902%);fill-opacity:1;" d="M 22.722656 5.730469 C 22.753906 5.820312 22.769531 5.914062 22.769531 6.011719 C 22.734375 5.925781 22.71875 5.832031 22.722656 5.730469 Z M 22.722656 5.730469 "/>
<path style=" stroke:none;fill-rule:evenodd;fill:rgb(98.823529%,98.823529%,98.823529%);fill-opacity:1;" d="M 14.800781 6.339844 C 14.804688 6.378906 14.820312 6.410156 14.847656 6.433594 C 14.863281 6.464844 14.878906 6.496094 14.894531 6.527344 C 14.898438 6.566406 14.914062 6.597656 14.941406 6.621094 C 14.960938 6.761719 15 6.894531 15.058594 7.019531 C 15.058594 7.050781 15.058594 7.082031 15.058594 7.113281 C 15.394531 7.128906 15.722656 7.113281 16.042969 7.066406 C 16.078125 7.003906 16.101562 6.933594 16.113281 6.855469 C 16.167969 6.753906 16.203125 6.644531 16.21875 6.527344 C 16.289062 6.414062 16.347656 6.296875 16.394531 6.175781 C 16.425781 6.164062 16.441406 6.140625 16.441406 6.105469 C 16.492188 6.078125 16.546875 6.074219 16.605469 6.09375 C 17.035156 6.273438 17.472656 6.433594 17.917969 6.574219 C 17.929688 6.605469 17.953125 6.621094 17.988281 6.621094 C 18.09375 6.644531 18.191406 6.691406 18.28125 6.761719 C 18.300781 6.871094 18.296875 6.980469 18.269531 7.089844 C 18.230469 7.246094 18.191406 7.402344 18.152344 7.558594 C 18.117188 7.597656 18.101562 7.644531 18.105469 7.699219 C 18.066406 7.765625 18.054688 7.835938 18.070312 7.910156 C 18.1875 7.988281 18.308594 8.0625 18.433594 8.132812 C 18.535156 8.230469 18.632812 8.328125 18.726562 8.425781 C 18.972656 8.285156 19.226562 8.15625 19.488281 8.039062 C 19.558594 8.019531 19.628906 8.011719 19.699219 8.015625 C 19.976562 8.359375 20.21875 8.722656 20.425781 9.105469 C 20.425781 9.140625 20.441406 9.164062 20.472656 9.175781 C 20.511719 9.257812 20.554688 9.335938 20.601562 9.410156 C 20.617188 9.449219 20.617188 9.488281 20.601562 9.527344 C 20.460938 9.667969 20.308594 9.789062 20.144531 9.890625 C 20.023438 10.003906 19.90625 10.117188 19.792969 10.230469 C 19.816406 10.398438 19.855469 10.5625 19.910156 10.722656 C 19.910156 10.761719 19.910156 10.800781 19.910156 10.839844 C 19.949219 10.839844 19.988281 10.839844 20.027344 10.839844 C 20.378906 10.898438 20.730469 10.960938 21.082031 11.027344 C 21.117188 11.140625 21.140625 11.257812 21.152344 11.378906 C 21.175781 11.445312 21.183594 11.515625 21.175781 11.589844 C 21.167969 11.816406 21.160156 12.042969 21.152344 12.269531 C 21.128906 12.320312 21.121094 12.375 21.128906 12.433594 C 20.734375 12.519531 20.335938 12.582031 19.933594 12.621094 C 19.902344 12.746094 19.871094 12.871094 19.839844 12.996094 C 19.804688 13.027344 19.789062 13.066406 19.792969 13.113281 C 19.816406 13.1875 19.835938 13.265625 19.851562 13.347656 C 20.097656 13.511719 20.332031 13.691406 20.554688 13.886719 C 20.585938 13.960938 20.585938 14.039062 20.554688 14.121094 C 20.519531 14.175781 20.484375 14.230469 20.449219 14.285156 C 20.417969 14.296875 20.402344 14.320312 20.402344 14.355469 C 20.25 14.621094 20.082031 14.878906 19.898438 15.128906 C 19.859375 15.316406 19.746094 15.40625 19.558594 15.398438 C 19.277344 15.289062 19.007812 15.160156 18.75 15.011719 C 18.535156 15.191406 18.3125 15.355469 18.082031 15.503906 C 18.058594 15.503906 18.042969 15.515625 18.035156 15.539062 C 18.042969 15.578125 18.058594 15.613281 18.082031 15.644531 C 18.136719 15.847656 18.195312 16.050781 18.257812 16.253906 C 18.28125 16.378906 18.289062 16.503906 18.28125 16.628906 C 18.238281 16.6875 18.1875 16.738281 18.128906 16.78125 C 17.960938 16.808594 17.804688 16.859375 17.660156 16.933594 C 17.609375 16.925781 17.570312 16.941406 17.542969 16.980469 C 17.535156 16.980469 17.527344 16.980469 17.519531 16.980469 C 17.472656 16.976562 17.433594 16.992188 17.402344 17.027344 C 17.195312 17.105469 16.984375 17.179688 16.769531 17.25 C 16.691406 17.265625 16.613281 17.277344 16.535156 17.285156 C 16.480469 17.289062 16.433594 17.273438 16.394531 17.238281 C 16.347656 17.148438 16.308594 17.054688 16.277344 16.957031 C 16.273438 16.917969 16.257812 16.886719 16.230469 16.863281 C 16.1875 16.738281 16.140625 16.613281 16.089844 16.488281 C 16.09375 16.441406 16.078125 16.402344 16.042969 16.371094 C 16.027344 16.34375 16.019531 16.3125 16.019531 16.277344 C 15.707031 16.269531 15.394531 16.277344 15.082031 16.300781 C 15.003906 16.535156 14.929688 16.769531 14.859375 17.003906 C 14.816406 17.070312 14.785156 17.140625 14.765625 17.214844 C 14.746094 17.242188 14.71875 17.261719 14.683594 17.273438 C 14.59375 17.285156 14.503906 17.28125 14.414062 17.261719 C 14.171875 17.1875 13.933594 17.109375 13.699219 17.027344 C 13.652344 16.984375 13.597656 16.960938 13.535156 16.957031 C 13.46875 16.925781 13.398438 16.902344 13.324219 16.886719 C 13.277344 16.847656 13.222656 16.832031 13.160156 16.839844 C 12.867188 16.777344 12.761719 16.597656 12.84375 16.300781 C 12.902344 16.191406 12.9375 16.074219 12.949219 15.949219 C 12.96875 15.898438 12.984375 15.84375 12.996094 15.785156 C 13.050781 15.675781 13.050781 15.570312 12.996094 15.46875 C 12.941406 15.449219 12.886719 15.433594 12.832031 15.421875 C 12.675781 15.320312 12.542969 15.195312 12.433594 15.046875 C 12.292969 15.039062 12.152344 15.03125 12.011719 15.023438 C 11.699219 14.574219 11.394531 14.117188 11.097656 13.652344 C 11.097656 13.617188 11.082031 13.59375 11.050781 13.582031 C 11.035156 13.542969 11.019531 13.503906 11.003906 13.464844 C 11.015625 13.425781 11.023438 13.386719 11.027344 13.347656 C 11.144531 13.347656 11.261719 13.347656 11.378906 13.347656 C 11.621094 13.34375 11.863281 13.347656 12.105469 13.359375 C 12.273438 13.605469 12.4375 13.851562 12.597656 14.097656 C 12.667969 14.25 12.707031 14.234375 12.714844 14.050781 C 12.890625 13.65625 13.046875 13.25 13.183594 12.832031 C 13.210938 12.808594 13.226562 12.777344 13.230469 12.738281 C 13.402344 12.21875 13.597656 11.710938 13.816406 11.214844 C 13.828125 11.117188 13.863281 11.03125 13.921875 10.957031 C 13.933594 10.917969 13.9375 10.878906 13.933594 10.839844 C 13.960938 10.816406 13.976562 10.785156 13.980469 10.746094 C 14.007812 10.589844 14.066406 10.449219 14.15625 10.324219 C 14.234375 10.109375 14.300781 9.890625 14.355469 9.667969 C 14.382812 9.644531 14.398438 9.613281 14.402344 9.574219 C 14.449219 9.492188 14.492188 9.40625 14.53125 9.316406 C 14.589844 9.152344 14.644531 8.988281 14.695312 8.824219 C 14.746094 8.75 14.789062 8.671875 14.824219 8.589844 C 15.070312 8.488281 15.3125 8.378906 15.550781 8.261719 C 15.621094 8.269531 15.652344 8.308594 15.644531 8.378906 C 15.648438 8.417969 15.664062 8.449219 15.691406 8.472656 C 15.722656 8.53125 15.746094 8.59375 15.761719 8.660156 C 15.765625 8.699219 15.78125 8.730469 15.808594 8.753906 C 15.953125 9.128906 16.09375 9.503906 16.230469 9.878906 C 16.230469 9.914062 16.246094 9.9375 16.277344 9.949219 C 16.292969 9.96875 16.300781 9.992188 16.300781 10.019531 C 16.324219 10.101562 16.355469 10.179688 16.394531 10.253906 C 16.460938 10.414062 16.515625 10.582031 16.558594 10.757812 C 16.617188 10.871094 16.675781 10.984375 16.734375 11.097656 C 16.960938 11.691406 17.183594 12.285156 17.402344 12.878906 C 17.40625 12.917969 17.421875 12.949219 17.449219 12.972656 C 17.617188 13.4375 17.796875 13.898438 17.988281 14.355469 C 18.011719 14.359375 18.035156 14.355469 18.058594 14.34375 C 18.335938 14.078125 18.5625 13.777344 18.738281 13.441406 C 18.769531 13.429688 18.785156 13.40625 18.785156 13.371094 C 18.867188 13.160156 18.953125 12.949219 19.042969 12.738281 C 19.070312 12.6875 19.085938 12.632812 19.089844 12.574219 C 19.125 12.4375 19.152344 12.296875 19.171875 12.152344 C 19.195312 11.761719 19.183594 11.371094 19.136719 10.980469 C 19.140625 10.910156 19.125 10.847656 19.089844 10.792969 C 19.050781 10.632812 19.003906 10.472656 18.949219 10.3125 C 18.855469 10.148438 18.769531 9.980469 18.691406 9.808594 C 18.691406 9.773438 18.675781 9.75 18.644531 9.738281 C 18.339844 9.238281 17.941406 8.832031 17.449219 8.519531 C 17.4375 8.488281 17.414062 8.472656 17.378906 8.472656 C 17.289062 8.421875 17.195312 8.375 17.097656 8.332031 C 17.085938 8.300781 17.0625 8.285156 17.027344 8.285156 C 16.9375 8.242188 16.84375 8.210938 16.746094 8.191406 C 16.722656 8.164062 16.691406 8.148438 16.652344 8.144531 C 16.617188 8.144531 16.585938 8.136719 16.558594 8.121094 C 16.519531 8.09375 16.472656 8.078125 16.417969 8.074219 C 15.96875 7.957031 15.515625 7.925781 15.058594 7.980469 C 14.953125 7.980469 14.851562 7.996094 14.753906 8.027344 C 14.6875 8.0625 14.617188 8.078125 14.542969 8.074219 C 14.480469 8.070312 14.425781 8.085938 14.378906 8.121094 C 14.277344 8.160156 14.183594 8.207031 14.097656 8.261719 C 14.058594 8.257812 14.019531 8.261719 13.980469 8.273438 C 13.742188 8.359375 13.53125 8.488281 13.347656 8.660156 C 13.226562 8.738281 13.109375 8.820312 12.996094 8.90625 C 12.851562 9.023438 12.71875 9.152344 12.597656 9.292969 C 11.527344 9.316406 10.457031 9.324219 9.386719 9.316406 C 9.378906 10.125 9.386719 10.929688 9.410156 11.730469 C 9.425781 11.746094 9.445312 11.753906 9.46875 11.753906 C 9.695312 11.675781 9.890625 11.550781 10.054688 11.378906 C 10.367188 11.023438 10.636719 10.640625 10.863281 10.230469 C 11.332031 10.203125 11.800781 10.199219 12.269531 10.21875 C 12.191406 10.4375 12.078125 10.636719 11.929688 10.816406 C 11.746094 11.128906 11.539062 11.425781 11.308594 11.707031 C 11.296875 11.707031 11.289062 11.714844 11.285156 11.730469 C 11.34375 11.761719 11.398438 11.761719 11.449219 11.730469 C 11.894531 11.730469 12.339844 11.730469 12.785156 11.730469 C 12.785156 11.753906 12.785156 11.777344 12.785156 11.800781 C 12.746094 11.820312 12.730469 11.851562 12.738281 11.894531 C 12.699219 11.992188 12.648438 12.085938 12.585938 12.175781 C 12.546875 12.300781 12.503906 12.425781 12.457031 12.550781 C 12.425781 12.5625 12.410156 12.585938 12.410156 12.621094 C 12.34375 12.722656 12.292969 12.832031 12.257812 12.949219 C 12.242188 12.960938 12.222656 12.96875 12.199219 12.972656 C 11.753906 12.949219 11.308594 12.941406 10.863281 12.949219 C 10.601562 12.925781 10.335938 12.917969 10.066406 12.925781 C 10.058594 12.964844 10.066406 12.996094 10.089844 13.019531 C 10.152344 13.238281 10.242188 13.449219 10.359375 13.652344 C 10.472656 14.007812 10.636719 14.335938 10.851562 14.636719 C 10.90625 14.773438 10.96875 14.90625 11.039062 15.035156 C 11.269531 15.34375 11.480469 15.664062 11.671875 15.996094 C 11.863281 16.238281 12.042969 16.488281 12.210938 16.746094 C 12.390625 16.910156 12.554688 17.089844 12.703125 17.285156 C 13.007812 17.570312 13.308594 17.859375 13.605469 18.152344 C 13.355469 18.160156 13.105469 18.167969 12.855469 18.175781 C 12.582031 18.179688 12.308594 18.167969 12.035156 18.140625 C 11.757812 17.964844 11.5 17.761719 11.261719 17.53125 C 11.148438 17.402344 11.035156 17.273438 10.921875 17.144531 C 10.902344 17.105469 10.882812 17.066406 10.863281 17.027344 C 10.863281 16.992188 10.847656 16.96875 10.816406 16.957031 C 10.703125 16.859375 10.617188 16.742188 10.558594 16.605469 C 10.558594 16.570312 10.542969 16.546875 10.511719 16.535156 C 10.417969 16.359375 10.308594 16.195312 10.183594 16.042969 C 10.183594 16.007812 10.167969 15.984375 10.136719 15.972656 C 10.136719 15.929688 10.125 15.890625 10.101562 15.855469 C 9.945312 15.601562 9.785156 15.351562 9.621094 15.105469 C 9.621094 15.070312 9.605469 15.046875 9.574219 15.035156 C 9.515625 14.921875 9.460938 14.804688 9.410156 14.683594 C 9.410156 14.648438 9.394531 14.625 9.363281 14.613281 C 9.265625 14.429688 9.179688 14.242188 9.105469 14.050781 C 9.113281 14.007812 9.097656 13.976562 9.058594 13.957031 C 9.023438 13.8125 8.960938 13.679688 8.871094 13.558594 C 8.847656 13.566406 8.832031 13.582031 8.824219 13.605469 C 8.785156 13.625 8.769531 13.65625 8.777344 13.699219 C 8.707031 13.851562 8.644531 14.007812 8.589844 14.167969 C 8.558594 14.179688 8.542969 14.203125 8.542969 14.238281 C 8.316406 14.65625 8.066406 15.0625 7.792969 15.457031 C 7.421875 15.917969 7.03125 16.359375 6.621094 16.78125 C 6.09375 17.28125 5.523438 17.722656 4.910156 18.105469 C 4.878906 18.027344 4.855469 17.949219 4.839844 17.871094 C 4.835938 17.8125 4.820312 17.757812 4.792969 17.707031 C 4.679688 17.285156 4.578125 16.863281 4.488281 16.441406 C 4.519531 16.425781 4.550781 16.410156 4.582031 16.394531 C 4.90625 16.226562 5.21875 16.042969 5.519531 15.84375 C 5.714844 15.671875 5.917969 15.507812 6.128906 15.351562 C 6.242188 15.21875 6.359375 15.089844 6.480469 14.964844 C 6.746094 14.691406 6.972656 14.386719 7.160156 14.050781 C 7.191406 14.039062 7.207031 14.015625 7.207031 13.980469 C 7.289062 13.820312 7.378906 13.664062 7.476562 13.511719 C 7.546875 13.351562 7.605469 13.1875 7.652344 13.019531 C 7.671875 13.003906 7.679688 12.980469 7.675781 12.949219 C 6.527344 12.949219 5.378906 12.949219 4.230469 12.949219 C 4.179688 12.847656 4.160156 12.738281 4.171875 12.621094 C 4.25 12.375 4.3125 12.125 4.359375 11.871094 C 4.367188 11.824219 4.386719 11.785156 4.417969 11.753906 C 5.636719 11.730469 6.855469 11.722656 8.074219 11.730469 C 8.074219 10.925781 8.074219 10.121094 8.074219 9.316406 C 7.160156 9.320312 6.246094 9.316406 5.332031 9.304688 C 5.261719 9.285156 5.191406 9.265625 5.121094 9.246094 C 5.109375 9.214844 5.085938 9.199219 5.050781 9.199219 C 4.847656 9.066406 4.707031 8.886719 4.628906 8.660156 C 4.625 8.605469 4.609375 8.558594 4.582031 8.519531 C 4.574219 8.429688 4.558594 8.34375 4.535156 8.261719 C 4.53125 8.210938 4.539062 8.164062 4.558594 8.121094 C 5.691406 8.121094 6.824219 8.121094 7.957031 8.121094 C 7.996094 8.121094 8.035156 8.121094 8.074219 8.121094 C 8.074219 7.691406 8.074219 7.261719 8.074219 6.832031 C 8.511719 6.832031 8.949219 6.832031 9.386719 6.832031 C 9.386719 7.269531 9.386719 7.707031 9.386719 8.144531 C 10.492188 8.152344 11.59375 8.144531 12.691406 8.121094 C 12.800781 8.058594 12.902344 7.988281 12.996094 7.910156 C 13.027344 7.910156 13.042969 7.894531 13.042969 7.863281 C 13.046875 7.792969 13.03125 7.730469 12.996094 7.675781 C 12.972656 7.570312 12.941406 7.46875 12.902344 7.371094 C 12.90625 7.300781 12.890625 7.238281 12.855469 7.183594 C 12.84375 7.050781 12.820312 6.921875 12.785156 6.796875 C 12.847656 6.710938 12.933594 6.664062 13.042969 6.65625 C 13.554688 6.4375 14.082031 6.246094 14.625 6.082031 C 14.652344 6.085938 14.675781 6.09375 14.695312 6.105469 C 14.746094 6.175781 14.78125 6.253906 14.800781 6.339844 Z M 14.800781 6.339844 "/>
<path style=" stroke:none;fill-rule:evenodd;fill:rgb(53.333333%,69.803922%,80%);fill-opacity:1;" d="M 16.441406 6.105469 C 16.441406 6.140625 16.425781 6.164062 16.394531 6.175781 C 16.394531 6.140625 16.410156 6.117188 16.441406 6.105469 Z M 16.441406 6.105469 "/>
<path style=" stroke:none;fill-rule:evenodd;fill:rgb(53.333333%,70.588235%,79.607843%);fill-opacity:1;" d="M 14.800781 6.339844 C 14.839844 6.359375 14.855469 6.390625 14.847656 6.433594 C 14.820312 6.410156 14.804688 6.378906 14.800781 6.339844 Z M 14.800781 6.339844 "/>
<path style=" stroke:none;fill-rule:evenodd;fill:rgb(53.72549%,69.803922%,78.823529%);fill-opacity:1;" d="M 14.894531 6.527344 C 14.933594 6.546875 14.949219 6.578125 14.941406 6.621094 C 14.914062 6.597656 14.898438 6.566406 14.894531 6.527344 Z M 14.894531 6.527344 "/>
<path style=" stroke:none;fill-rule:evenodd;fill:rgb(52.941176%,69.803922%,79.607843%);fill-opacity:1;" d="M 17.917969 6.574219 C 17.953125 6.574219 17.976562 6.589844 17.988281 6.621094 C 17.953125 6.621094 17.929688 6.605469 17.917969 6.574219 Z M 17.917969 6.574219 "/>
<path style=" stroke:none;fill-rule:evenodd;fill:rgb(32.156863%,54.509804%,69.411765%);fill-opacity:1;" d="M 16.113281 6.855469 C 16.101562 6.933594 16.078125 7.003906 16.042969 7.066406 C 16.046875 7.015625 16.039062 6.96875 16.019531 6.925781 C 16.054688 6.90625 16.085938 6.882812 16.113281 6.855469 Z M 16.113281 6.855469 "/>
<path style=" stroke:none;fill-rule:evenodd;fill:rgb(37.254902%,60.392157%,73.333333%);fill-opacity:1;" d="M 15.058594 7.019531 C 15.078125 7.035156 15.085938 7.058594 15.082031 7.089844 C 15.402344 7.097656 15.722656 7.089844 16.042969 7.066406 C 15.722656 7.113281 15.394531 7.128906 15.058594 7.113281 C 15.058594 7.082031 15.058594 7.050781 15.058594 7.019531 Z M 15.058594 7.019531 "/>
<path style=" stroke:none;fill-rule:evenodd;fill:rgb(58.431373%,73.72549%,81.960784%);fill-opacity:1;" d="M 8.074219 6.832031 C 8.074219 6.824219 8.074219 6.816406 8.074219 6.808594 C 8.519531 6.808594 8.964844 6.808594 9.410156 6.808594 C 9.410156 7.191406 9.410156 7.574219 9.410156 7.957031 C 9.410156 8.011719 9.410156 8.066406 9.410156 8.121094 C 10.503906 8.121094 11.597656 8.121094 12.691406 8.121094 C 11.59375 8.144531 10.492188 8.152344 9.386719 8.144531 C 9.386719 7.707031 9.386719 7.269531 9.386719 6.832031 C 8.949219 6.832031 8.511719 6.832031 8.074219 6.832031 Z M 8.074219 6.832031 "/>
<path style=" stroke:none;fill-rule:evenodd;fill:rgb(53.333333%,69.803922%,78.823529%);fill-opacity:1;" d="M 12.855469 7.183594 C 12.890625 7.238281 12.90625 7.300781 12.902344 7.371094 C 12.871094 7.316406 12.855469 7.253906 12.855469 7.183594 Z M 12.855469 7.183594 "/>
<path style=" stroke:none;fill-rule:evenodd;fill:rgb(35.686275%,60%,72.54902%);fill-opacity:1;" d="M 8.074219 6.808594 C 8.074219 6.816406 8.074219 6.824219 8.074219 6.832031 C 8.074219 7.261719 8.074219 7.691406 8.074219 8.121094 C 8.035156 8.121094 7.996094 8.121094 7.957031 8.121094 C 7.980469 8.097656 8.011719 8.089844 8.050781 8.097656 C 8.042969 7.664062 8.050781 7.234375 8.074219 6.808594 Z M 8.074219 6.808594 "/>
<path style=" stroke:none;fill-rule:evenodd;fill:rgb(55.686275%,71.764706%,80.392157%);fill-opacity:1;" d="M 18.152344 7.558594 C 18.148438 7.613281 18.132812 7.660156 18.105469 7.699219 C 18.101562 7.644531 18.117188 7.597656 18.152344 7.558594 Z M 18.152344 7.558594 "/>
<path style=" stroke:none;fill-rule:evenodd;fill:rgb(62.352941%,75.686275%,82.745098%);fill-opacity:1;" d="M 22.863281 6.550781 C 22.882812 6.609375 22.894531 6.671875 22.898438 6.738281 C 22.917969 10.195312 22.914062 13.648438 22.886719 17.097656 C 22.894531 13.582031 22.886719 10.066406 22.863281 6.550781 Z M 22.863281 6.550781 "/>
<path style=" stroke:none;fill-rule:evenodd;fill:rgb(43.921569%,63.921569%,75.294118%);fill-opacity:1;" d="M 12.996094 7.675781 C 13.03125 7.730469 13.046875 7.792969 13.042969 7.863281 C 13.007812 7.808594 12.992188 7.746094 12.996094 7.675781 Z M 12.996094 7.675781 "/>
<path style=" stroke:none;fill-rule:evenodd;fill:rgb(8.627451%,44.705882%,62.745098%);fill-opacity:1;" d="M 12.996094 7.910156 C 12.902344 7.988281 12.800781 8.058594 12.691406 8.121094 C 11.597656 8.121094 10.503906 8.121094 9.410156 8.121094 C 9.410156 8.066406 9.410156 8.011719 9.410156 7.957031 C 10.03125 7.964844 10.652344 7.957031 11.273438 7.933594 C 11.507812 7.960938 11.742188 7.984375 11.976562 8.003906 C 12.125 7.988281 12.273438 7.964844 12.421875 7.933594 C 12.503906 7.957031 12.589844 7.964844 12.679688 7.957031 C 12.710938 7.949219 12.734375 7.933594 12.75 7.910156 C 12.773438 7.984375 12.804688 7.992188 12.84375 7.933594 C 12.851562 7.941406 12.859375 7.949219 12.867188 7.957031 C 12.902344 7.917969 12.945312 7.902344 12.996094 7.910156 Z M 12.996094 7.910156 "/>
<path style=" stroke:none;fill-rule:evenodd;fill:rgb(7.843137%,41.568627%,59.607843%);fill-opacity:1;" d="M 16.417969 8.074219 C 16.457031 8.109375 16.503906 8.125 16.558594 8.121094 C 16.585938 8.136719 16.617188 8.144531 16.652344 8.144531 C 16.671875 8.183594 16.703125 8.199219 16.746094 8.191406 C 16.84375 8.210938 16.9375 8.242188 17.027344 8.285156 C 17.039062 8.316406 17.0625 8.332031 17.097656 8.332031 C 17.195312 8.375 17.289062 8.421875 17.378906 8.472656 C 17.390625 8.503906 17.414062 8.519531 17.449219 8.519531 C 17.941406 8.832031 18.339844 9.238281 18.644531 9.738281 C 18.644531 9.773438 18.660156 9.796875 18.691406 9.808594 C 18.769531 9.980469 18.855469 10.148438 18.949219 10.3125 C 19.003906 10.472656 19.050781 10.632812 19.089844 10.792969 C 19.089844 10.863281 19.105469 10.925781 19.136719 10.980469 C 19.183594 11.371094 19.195312 11.761719 19.171875 12.152344 C 19.152344 12.296875 19.125 12.4375 19.089844 12.574219 C 19.050781 12.621094 19.035156 12.675781 19.042969 12.738281 C 18.953125 12.949219 18.867188 13.160156 18.785156 13.371094 C 18.753906 13.382812 18.738281 13.40625 18.738281 13.441406 C 18.5625 13.777344 18.335938 14.078125 18.058594 14.34375 C 18.035156 14.355469 18.011719 14.359375 17.988281 14.355469 C 17.796875 13.898438 17.617188 13.4375 17.449219 12.972656 C 17.457031 12.929688 17.441406 12.898438 17.402344 12.878906 C 17.183594 12.285156 16.960938 11.691406 16.734375 11.097656 C 16.675781 10.984375 16.617188 10.871094 16.558594 10.757812 C 16.515625 10.582031 16.460938 10.414062 16.394531 10.253906 C 16.40625 10.15625 16.375 10.078125 16.300781 10.019531 C 16.300781 9.992188 16.292969 9.96875 16.277344 9.949219 C 16.277344 9.914062 16.261719 9.890625 16.230469 9.878906 C 16.09375 9.503906 15.953125 9.128906 15.808594 8.753906 C 15.816406 8.710938 15.800781 8.679688 15.761719 8.660156 C 15.746094 8.59375 15.722656 8.53125 15.691406 8.472656 C 15.699219 8.429688 15.683594 8.398438 15.644531 8.378906 C 15.652344 8.308594 15.621094 8.269531 15.550781 8.261719 C 15.3125 8.378906 15.070312 8.488281 14.824219 8.589844 C 14.789062 8.671875 14.746094 8.75 14.695312 8.824219 C 14.644531 8.988281 14.589844 9.152344 14.53125 9.316406 C 14.492188 9.40625 14.449219 9.492188 14.402344 9.574219 C 14.363281 9.59375 14.347656 9.625 14.355469 9.667969 C 14.300781 9.890625 14.234375 10.109375 14.15625 10.324219 C 14.066406 10.449219 14.007812 10.589844 13.980469 10.746094 C 13.941406 10.765625 13.925781 10.796875 13.933594 10.839844 C 13.9375 10.878906 13.933594 10.917969 13.921875 10.957031 C 13.863281 11.03125 13.828125 11.117188 13.816406 11.214844 C 13.597656 11.710938 13.402344 12.21875 13.230469 12.738281 C 13.191406 12.757812 13.175781 12.789062 13.183594 12.832031 C 13.046875 13.25 12.890625 13.65625 12.714844 14.050781 C 12.695312 14.066406 12.6875 14.089844 12.691406 14.121094 C 12.65625 14.121094 12.625 14.113281 12.597656 14.097656 C 12.4375 13.851562 12.273438 13.605469 12.105469 13.359375 C 11.863281 13.347656 11.621094 13.34375 11.378906 13.347656 C 11.371094 13.300781 11.371094 13.257812 11.378906 13.21875 C 11.414062 13.207031 11.441406 13.21875 11.460938 13.253906 C 11.546875 13.191406 11.636719 13.15625 11.730469 13.148438 C 11.683594 13.101562 11.675781 13.050781 11.707031 12.996094 C 11.421875 12.980469 11.140625 12.964844 10.863281 12.949219 C 11.308594 12.941406 11.753906 12.949219 12.199219 12.972656 C 12.222656 12.96875 12.242188 12.960938 12.257812 12.949219 C 12.292969 12.832031 12.34375 12.722656 12.410156 12.621094 C 12.441406 12.609375 12.457031 12.585938 12.457031 12.550781 C 12.503906 12.425781 12.546875 12.300781 12.585938 12.175781 C 12.648438 12.085938 12.699219 11.992188 12.738281 11.894531 C 12.765625 11.871094 12.78125 11.839844 12.785156 11.800781 C 12.785156 11.777344 12.785156 11.753906 12.785156 11.730469 C 12.339844 11.730469 11.894531 11.730469 11.449219 11.730469 C 11.398438 11.738281 11.351562 11.730469 11.308594 11.707031 C 11.539062 11.425781 11.746094 11.128906 11.929688 10.816406 C 12.078125 10.636719 12.191406 10.4375 12.269531 10.21875 C 11.800781 10.199219 11.332031 10.203125 10.863281 10.230469 C 10.636719 10.640625 10.367188 11.023438 10.054688 11.378906 C 9.890625 11.550781 9.695312 11.675781 9.46875 11.753906 C 9.445312 11.753906 9.425781 11.746094 9.410156 11.730469 C 9.410156 10.933594 9.410156 10.136719 9.410156 9.339844 C 10.480469 9.355469 11.542969 9.339844 12.597656 9.292969 C 12.71875 9.152344 12.851562 9.023438 12.996094 8.90625 C 13.109375 8.820312 13.226562 8.738281 13.347656 8.660156 C 13.480469 8.640625 13.601562 8.59375 13.710938 8.519531 C 13.71875 8.535156 13.726562 8.550781 13.734375 8.566406 C 13.75 8.535156 13.765625 8.535156 13.78125 8.566406 C 13.824219 8.527344 13.820312 8.5 13.769531 8.484375 C 13.792969 8.441406 13.820312 8.429688 13.851562 8.449219 C 13.882812 8.433594 13.917969 8.421875 13.957031 8.414062 C 13.992188 8.363281 14.039062 8.332031 14.097656 8.320312 C 14.070312 8.300781 14.070312 8.28125 14.097656 8.261719 C 14.167969 8.25 14.234375 8.226562 14.296875 8.191406 C 14.351562 8.222656 14.402344 8.21875 14.449219 8.179688 C 14.410156 8.175781 14.386719 8.15625 14.378906 8.121094 C 14.441406 8.125 14.496094 8.109375 14.542969 8.074219 C 14.617188 8.078125 14.6875 8.0625 14.753906 8.027344 C 14.859375 8.027344 14.960938 8.011719 15.058594 7.980469 C 15.515625 7.925781 15.96875 7.957031 16.417969 8.074219 Z M 16.417969 8.074219 "/>
<path style=" stroke:none;fill-rule:evenodd;fill:rgb(47.45098%,66.27451%,77.254902%);fill-opacity:1;" d="M 15.058594 7.980469 C 14.960938 8.011719 14.859375 8.027344 14.753906 8.027344 C 14.851562 7.996094 14.953125 7.980469 15.058594 7.980469 Z M 15.058594 7.980469 "/>
<path style=" stroke:none;fill-rule:evenodd;fill:rgb(50.588235%,69.019608%,79.607843%);fill-opacity:1;" d="M 14.542969 8.074219 C 14.496094 8.109375 14.441406 8.125 14.378906 8.121094 C 14.425781 8.085938 14.480469 8.070312 14.542969 8.074219 Z M 14.542969 8.074219 "/>
<path style=" stroke:none;fill-rule:evenodd;fill:rgb(49.803922%,68.235294%,78.039216%);fill-opacity:1;" d="M 16.417969 8.074219 C 16.472656 8.078125 16.519531 8.09375 16.558594 8.121094 C 16.503906 8.125 16.457031 8.109375 16.417969 8.074219 Z M 16.417969 8.074219 "/>
<path style=" stroke:none;fill-rule:evenodd;fill:rgb(48.627451%,67.45098%,77.254902%);fill-opacity:1;" d="M 4.558594 8.121094 C 4.539062 8.164062 4.53125 8.210938 4.535156 8.261719 C 4.519531 8.242188 4.511719 8.21875 4.511719 8.191406 C 4.515625 8.15625 4.53125 8.132812 4.558594 8.121094 Z M 4.558594 8.121094 "/>
<path style=" stroke:none;fill-rule:evenodd;fill:rgb(54.509804%,70.980392%,79.607843%);fill-opacity:1;" d="M 16.652344 8.144531 C 16.691406 8.148438 16.722656 8.164062 16.746094 8.191406 C 16.703125 8.199219 16.671875 8.183594 16.652344 8.144531 Z M 16.652344 8.144531 "/>
<path style=" stroke:none;fill-rule:evenodd;fill:rgb(30.196078%,54.509804%,69.411765%);fill-opacity:1;" d="M 14.378906 8.121094 C 14.386719 8.15625 14.410156 8.175781 14.449219 8.179688 C 14.402344 8.21875 14.351562 8.222656 14.296875 8.191406 C 14.234375 8.226562 14.167969 8.25 14.097656 8.261719 C 14.183594 8.207031 14.277344 8.160156 14.378906 8.121094 Z M 14.378906 8.121094 "/>
<path style=" stroke:none;fill-rule:evenodd;fill:rgb(52.54902%,69.411765%,78.823529%);fill-opacity:1;" d="M 17.027344 8.285156 C 17.0625 8.285156 17.085938 8.300781 17.097656 8.332031 C 17.0625 8.332031 17.039062 8.316406 17.027344 8.285156 Z M 17.027344 8.285156 "/>
<path style=" stroke:none;fill-rule:evenodd;fill:rgb(18.823529%,47.058824%,63.921569%);fill-opacity:1;" d="M 14.097656 8.261719 C 14.070312 8.28125 14.070312 8.300781 14.097656 8.320312 C 14.039062 8.332031 13.992188 8.363281 13.957031 8.414062 C 13.917969 8.421875 13.882812 8.433594 13.851562 8.449219 C 13.820312 8.429688 13.792969 8.441406 13.769531 8.484375 C 13.820312 8.5 13.824219 8.527344 13.78125 8.566406 C 13.765625 8.535156 13.75 8.535156 13.734375 8.566406 C 13.726562 8.550781 13.71875 8.535156 13.710938 8.519531 C 13.601562 8.59375 13.480469 8.640625 13.347656 8.660156 C 13.53125 8.488281 13.742188 8.359375 13.980469 8.273438 C 14.019531 8.261719 14.058594 8.257812 14.097656 8.261719 Z M 14.097656 8.261719 "/>
<path style=" stroke:none;fill-rule:evenodd;fill:rgb(54.117647%,69.803922%,79.607843%);fill-opacity:1;" d="M 15.644531 8.378906 C 15.683594 8.398438 15.699219 8.429688 15.691406 8.472656 C 15.664062 8.449219 15.648438 8.417969 15.644531 8.378906 Z M 15.644531 8.378906 "/>
<path style=" stroke:none;fill-rule:evenodd;fill:rgb(52.54902%,69.803922%,79.215686%);fill-opacity:1;" d="M 17.378906 8.472656 C 17.414062 8.472656 17.4375 8.488281 17.449219 8.519531 C 17.414062 8.519531 17.390625 8.503906 17.378906 8.472656 Z M 17.378906 8.472656 "/>
<path style=" stroke:none;fill-rule:evenodd;fill:rgb(51.372549%,68.627451%,78.431373%);fill-opacity:1;" d="M 4.582031 8.519531 C 4.609375 8.558594 4.625 8.605469 4.628906 8.660156 C 4.59375 8.621094 4.578125 8.574219 4.582031 8.519531 Z M 4.582031 8.519531 "/>
<path style=" stroke:none;fill-rule:evenodd;fill:rgb(52.156863%,69.803922%,78.823529%);fill-opacity:1;" d="M 15.761719 8.660156 C 15.800781 8.679688 15.816406 8.710938 15.808594 8.753906 C 15.78125 8.730469 15.765625 8.699219 15.761719 8.660156 Z M 15.761719 8.660156 "/>
<path style=" stroke:none;fill-rule:evenodd;fill:rgb(56.078431%,71.764706%,80.784314%);fill-opacity:1;" d="M 20.425781 9.105469 C 20.457031 9.117188 20.472656 9.140625 20.472656 9.175781 C 20.441406 9.164062 20.425781 9.140625 20.425781 9.105469 Z M 20.425781 9.105469 "/>
<path style=" stroke:none;fill-rule:evenodd;fill:rgb(51.372549%,68.627451%,78.823529%);fill-opacity:1;" d="M 5.050781 9.199219 C 5.085938 9.199219 5.109375 9.214844 5.121094 9.246094 C 5.085938 9.246094 5.0625 9.230469 5.050781 9.199219 Z M 5.050781 9.199219 "/>
<path style=" stroke:none;fill-rule:evenodd;fill:rgb(53.333333%,70.588235%,80%);fill-opacity:1;" d="M 14.402344 9.574219 C 14.398438 9.613281 14.382812 9.644531 14.355469 9.667969 C 14.347656 9.625 14.363281 9.59375 14.402344 9.574219 Z M 14.402344 9.574219 "/>
<path style=" stroke:none;fill-rule:evenodd;fill:rgb(52.941176%,69.019608%,78.431373%);fill-opacity:1;" d="M 18.644531 9.738281 C 18.675781 9.75 18.691406 9.773438 18.691406 9.808594 C 18.660156 9.796875 18.644531 9.773438 18.644531 9.738281 Z M 18.644531 9.738281 "/>
<path style=" stroke:none;fill-rule:evenodd;fill:rgb(53.72549%,69.411765%,78.431373%);fill-opacity:1;" d="M 16.230469 9.878906 C 16.261719 9.890625 16.277344 9.914062 16.277344 9.949219 C 16.246094 9.9375 16.230469 9.914062 16.230469 9.878906 Z M 16.230469 9.878906 "/>
<path style=" stroke:none;fill-rule:evenodd;fill:rgb(36.862745%,56.862745%,70.196078%);fill-opacity:1;" d="M 16.300781 10.019531 C 16.375 10.078125 16.40625 10.15625 16.394531 10.253906 C 16.355469 10.179688 16.324219 10.101562 16.300781 10.019531 Z M 16.300781 10.019531 "/>
<path style=" stroke:none;fill-rule:evenodd;fill:rgb(52.941176%,70.196078%,79.215686%);fill-opacity:1;" d="M 12.597656 9.292969 C 11.542969 9.339844 10.480469 9.355469 9.410156 9.339844 C 9.410156 10.136719 9.410156 10.933594 9.410156 11.730469 C 9.386719 10.929688 9.378906 10.125 9.386719 9.316406 C 10.457031 9.324219 11.527344 9.316406 12.597656 9.292969 Z M 12.597656 9.292969 "/>
<path style=" stroke:none;fill-rule:evenodd;fill:rgb(9.803922%,42.352941%,60.392157%);fill-opacity:1;" d="M 15.667969 11.519531 C 15.664062 11.566406 15.679688 11.605469 15.714844 11.636719 C 15.710938 11.660156 15.71875 11.675781 15.738281 11.683594 C 15.730469 11.746094 15.746094 11.800781 15.785156 11.847656 C 15.796875 11.90625 15.820312 11.960938 15.855469 12.011719 C 15.84375 12.078125 15.867188 12.125 15.925781 12.152344 C 15.949219 12.25 15.988281 12.339844 16.042969 12.421875 C 16.027344 12.464844 15.996094 12.488281 15.949219 12.492188 C 15.488281 12.503906 15.027344 12.507812 14.566406 12.503906 C 14.5625 12.464844 14.566406 12.425781 14.578125 12.386719 C 14.667969 12.164062 14.75 11.9375 14.824219 11.707031 C 14.863281 11.6875 14.878906 11.65625 14.871094 11.613281 C 14.945312 11.445312 15.007812 11.273438 15.058594 11.097656 C 15.09375 11.050781 15.109375 10.996094 15.105469 10.933594 C 15.121094 10.867188 15.144531 10.804688 15.175781 10.746094 C 15.207031 10.734375 15.222656 10.710938 15.222656 10.675781 C 15.230469 10.515625 15.273438 10.5 15.351562 10.628906 C 15.359375 10.742188 15.398438 10.84375 15.46875 10.933594 C 15.53125 11.128906 15.597656 11.324219 15.667969 11.519531 Z M 15.667969 11.519531 "/>
<path style=" stroke:none;fill-rule:evenodd;fill:rgb(52.54902%,69.803922%,79.215686%);fill-opacity:1;" d="M 15.222656 10.675781 C 15.222656 10.710938 15.207031 10.734375 15.175781 10.746094 C 15.175781 10.710938 15.191406 10.6875 15.222656 10.675781 Z M 15.222656 10.675781 "/>
<path style=" stroke:none;fill-rule:evenodd;fill:rgb(55.294118%,71.372549%,80%);fill-opacity:1;" d="M 13.980469 10.746094 C 13.976562 10.785156 13.960938 10.816406 13.933594 10.839844 C 13.925781 10.796875 13.941406 10.765625 13.980469 10.746094 Z M 13.980469 10.746094 "/>
<path style=" stroke:none;fill-rule:evenodd;fill:rgb(53.72549%,71.764706%,80.784314%);fill-opacity:1;" d="M 19.910156 10.722656 C 19.933594 10.746094 19.941406 10.777344 19.933594 10.816406 C 19.972656 10.808594 20.003906 10.816406 20.027344 10.839844 C 19.988281 10.839844 19.949219 10.839844 19.910156 10.839844 C 19.910156 10.800781 19.910156 10.761719 19.910156 10.722656 Z M 19.910156 10.722656 "/>
<path style=" stroke:none;fill-rule:evenodd;fill:rgb(52.156863%,69.803922%,79.215686%);fill-opacity:1;" d="M 19.089844 10.792969 C 19.125 10.847656 19.140625 10.910156 19.136719 10.980469 C 19.105469 10.925781 19.089844 10.863281 19.089844 10.792969 Z M 19.089844 10.792969 "/>
<path style=" stroke:none;fill-rule:evenodd;fill:rgb(53.72549%,70.196078%,79.215686%);fill-opacity:1;" d="M 1.886719 6.527344 C 1.859375 10.074219 1.855469 13.621094 1.875 17.167969 C 1.902344 17.308594 1.921875 17.449219 1.933594 17.589844 C 1.898438 17.460938 1.871094 17.328125 1.851562 17.191406 C 1.835938 13.683594 1.835938 10.175781 1.851562 6.667969 C 1.855469 6.617188 1.867188 6.570312 1.886719 6.527344 Z M 1.886719 6.527344 "/>
<path style=" stroke:none;fill-rule:evenodd;fill:rgb(42.745098%,62.745098%,74.509804%);fill-opacity:1;" d="M 15.105469 10.933594 C 15.109375 10.996094 15.09375 11.050781 15.058594 11.097656 C 15.054688 11.035156 15.070312 10.980469 15.105469 10.933594 Z M 15.105469 10.933594 "/>
<path style=" stroke:none;fill-rule:evenodd;fill:rgb(57.254902%,72.941176%,81.960784%);fill-opacity:1;" d="M 21.082031 11.027344 C 21.105469 11.027344 21.128906 11.027344 21.152344 11.027344 C 21.152344 11.144531 21.152344 11.261719 21.152344 11.378906 C 21.140625 11.257812 21.117188 11.140625 21.082031 11.027344 Z M 21.082031 11.027344 "/>
<path style=" stroke:none;fill-rule:evenodd;fill:rgb(54.901961%,71.372549%,80.392157%);fill-opacity:1;" d="M 15.667969 11.519531 C 15.703125 11.550781 15.71875 11.589844 15.714844 11.636719 C 15.679688 11.605469 15.664062 11.566406 15.667969 11.519531 Z M 15.667969 11.519531 "/>
<path style=" stroke:none;fill-rule:evenodd;fill:rgb(51.764706%,69.019608%,78.823529%);fill-opacity:1;" d="M 21.175781 11.589844 C 21.207031 11.816406 21.199219 12.042969 21.152344 12.269531 C 21.160156 12.042969 21.167969 11.816406 21.175781 11.589844 Z M 21.175781 11.589844 "/>
<path style=" stroke:none;fill-rule:evenodd;fill:rgb(54.901961%,71.372549%,79.607843%);fill-opacity:1;" d="M 14.871094 11.613281 C 14.878906 11.65625 14.863281 11.6875 14.824219 11.707031 C 14.828125 11.667969 14.84375 11.636719 14.871094 11.613281 Z M 14.871094 11.613281 "/>
<path style=" stroke:none;fill-rule:evenodd;fill:rgb(70.196078%,80.784314%,87.058824%);fill-opacity:1;" d="M 11.308594 11.707031 C 11.351562 11.730469 11.398438 11.738281 11.449219 11.730469 C 11.398438 11.761719 11.34375 11.761719 11.285156 11.730469 C 11.289062 11.714844 11.296875 11.707031 11.308594 11.707031 Z M 11.308594 11.707031 "/>
<path style=" stroke:none;fill-rule:evenodd;fill:rgb(50.196078%,67.843137%,78.039216%);fill-opacity:1;" d="M 15.738281 11.683594 C 15.765625 11.734375 15.78125 11.789062 15.785156 11.847656 C 15.746094 11.800781 15.730469 11.746094 15.738281 11.683594 Z M 15.738281 11.683594 "/>
<path style=" stroke:none;fill-rule:evenodd;fill:rgb(49.803922%,67.843137%,77.254902%);fill-opacity:1;" d="M 12.785156 11.800781 C 12.78125 11.839844 12.765625 11.871094 12.738281 11.894531 C 12.730469 11.851562 12.746094 11.820312 12.785156 11.800781 Z M 12.785156 11.800781 "/>
<path style=" stroke:none;fill-rule:evenodd;fill:rgb(38.431373%,59.607843%,72.54902%);fill-opacity:1;" d="M 15.855469 12.011719 C 15.878906 12.058594 15.902344 12.105469 15.925781 12.152344 C 15.867188 12.125 15.84375 12.078125 15.855469 12.011719 Z M 15.855469 12.011719 "/>
<path style=" stroke:none;fill-rule:evenodd;fill:rgb(52.156863%,69.803922%,78.431373%);fill-opacity:1;" d="M 12.457031 12.550781 C 12.457031 12.585938 12.441406 12.609375 12.410156 12.621094 C 12.410156 12.585938 12.425781 12.5625 12.457031 12.550781 Z M 12.457031 12.550781 "/>
<path style=" stroke:none;fill-rule:evenodd;fill:rgb(52.156863%,69.803922%,78.823529%);fill-opacity:1;" d="M 19.089844 12.574219 C 19.085938 12.632812 19.070312 12.6875 19.042969 12.738281 C 19.035156 12.675781 19.050781 12.621094 19.089844 12.574219 Z M 19.089844 12.574219 "/>
<path style=" stroke:none;fill-rule:evenodd;fill:rgb(51.764706%,69.803922%,79.607843%);fill-opacity:1;" d="M 13.230469 12.738281 C 13.226562 12.777344 13.210938 12.808594 13.183594 12.832031 C 13.175781 12.789062 13.191406 12.757812 13.230469 12.738281 Z M 13.230469 12.738281 "/>
<path style=" stroke:none;fill-rule:evenodd;fill:rgb(72.941176%,82.745098%,88.235294%);fill-opacity:1;" d="M 10.863281 12.949219 C 10.605469 12.949219 10.347656 12.949219 10.089844 12.949219 C 10.089844 12.972656 10.089844 12.996094 10.089844 13.019531 C 10.066406 12.996094 10.058594 12.964844 10.066406 12.925781 C 10.335938 12.917969 10.601562 12.925781 10.863281 12.949219 Z M 10.863281 12.949219 "/>
<path style=" stroke:none;fill-rule:evenodd;fill:rgb(54.117647%,70.588235%,79.607843%);fill-opacity:1;" d="M 17.402344 12.878906 C 17.441406 12.898438 17.457031 12.929688 17.449219 12.972656 C 17.421875 12.949219 17.40625 12.917969 17.402344 12.878906 Z M 17.402344 12.878906 "/>
<path style=" stroke:none;fill-rule:evenodd;fill:rgb(37.254902%,60.784314%,72.941176%);fill-opacity:1;" d="M 4.230469 12.949219 C 5.378906 12.949219 6.527344 12.949219 7.675781 12.949219 C 7.679688 12.980469 7.671875 13.003906 7.652344 13.019531 C 7.609375 12.976562 7.554688 12.960938 7.488281 12.972656 C 6.398438 12.980469 5.3125 12.972656 4.230469 12.949219 Z M 4.230469 12.949219 "/>
<path style=" stroke:none;fill-rule:evenodd;fill:rgb(54.117647%,72.156863%,80%);fill-opacity:1;" d="M 19.839844 12.996094 C 19.84375 13.042969 19.828125 13.082031 19.792969 13.113281 C 19.789062 13.066406 19.804688 13.027344 19.839844 12.996094 Z M 19.839844 12.996094 "/>
<path style=" stroke:none;fill-rule:evenodd;fill:rgb(10.588235%,43.529412%,61.176471%);fill-opacity:1;" d="M 7.488281 12.972656 C 7.554688 12.960938 7.609375 12.976562 7.652344 13.019531 C 7.605469 13.1875 7.546875 13.351562 7.476562 13.511719 C 7.378906 13.664062 7.289062 13.820312 7.207031 13.980469 C 7.175781 13.992188 7.160156 14.015625 7.160156 14.050781 C 6.972656 14.386719 6.746094 14.691406 6.480469 14.964844 C 6.464844 14.957031 6.449219 14.949219 6.433594 14.941406 C 6.449219 14.910156 6.460938 14.878906 6.46875 14.847656 C 6.515625 14.875 6.550781 14.863281 6.574219 14.8125 C 6.5625 14.777344 6.578125 14.746094 6.621094 14.71875 C 6.539062 14.671875 6.539062 14.640625 6.621094 14.625 C 6.566406 14.609375 6.566406 14.585938 6.621094 14.554688 C 6.59375 14.527344 6.59375 14.5 6.621094 14.472656 C 6.636719 14.484375 6.648438 14.5 6.65625 14.519531 C 6.671875 14.421875 6.730469 14.371094 6.832031 14.367188 C 6.824219 14.359375 6.816406 14.351562 6.808594 14.34375 C 6.84375 14.332031 6.871094 14.3125 6.890625 14.285156 C 6.898438 14.292969 6.90625 14.300781 6.914062 14.308594 C 6.921875 14.269531 6.910156 14.234375 6.878906 14.203125 C 6.914062 14.152344 6.941406 14.15625 6.960938 14.214844 C 6.980469 14.195312 6.996094 14.171875 7.007812 14.144531 C 7.015625 14.152344 7.023438 14.160156 7.03125 14.167969 C 7.042969 14.140625 7.03125 14.121094 6.996094 14.109375 C 7.023438 14.085938 7.015625 14.070312 6.972656 14.0625 C 7.003906 14.054688 7.035156 14.046875 7.066406 14.039062 C 7.058594 14.03125 7.050781 14.023438 7.042969 14.015625 C 7.066406 13.996094 7.089844 13.976562 7.113281 13.957031 C 7.054688 13.925781 7.054688 13.898438 7.113281 13.875 C 7.097656 13.859375 7.082031 13.84375 7.066406 13.828125 C 7.125 13.785156 7.1875 13.765625 7.253906 13.769531 C 7.226562 13.734375 7.226562 13.699219 7.253906 13.664062 C 7.160156 13.605469 7.167969 13.558594 7.277344 13.523438 C 7.257812 13.503906 7.234375 13.488281 7.207031 13.476562 C 7.238281 13.441406 7.273438 13.445312 7.3125 13.488281 C 7.328125 13.398438 7.347656 13.320312 7.371094 13.253906 C 7.386719 13.285156 7.40625 13.316406 7.429688 13.347656 C 7.441406 13.335938 7.453125 13.324219 7.464844 13.3125 C 7.433594 13.261719 7.402344 13.210938 7.371094 13.160156 C 7.398438 13.167969 7.417969 13.152344 7.429688 13.113281 C 7.472656 13.144531 7.484375 13.140625 7.464844 13.101562 C 7.488281 13.082031 7.511719 13.0625 7.535156 13.042969 C 7.507812 13.023438 7.492188 13 7.488281 12.972656 Z M 7.488281 12.972656 "/>
<path style=" stroke:none;fill-rule:evenodd;fill:rgb(53.72549%,69.803922%,79.215686%);fill-opacity:1;" d="M 18.785156 13.371094 C 18.785156 13.40625 18.769531 13.429688 18.738281 13.441406 C 18.738281 13.40625 18.753906 13.382812 18.785156 13.371094 Z M 18.785156 13.371094 "/>
<path style=" stroke:none;fill-rule:evenodd;fill:rgb(9.019608%,41.568627%,59.607843%);fill-opacity:1;" d="M 16.558594 13.910156 C 16.554688 13.957031 16.570312 13.996094 16.605469 14.027344 C 16.730469 14.320312 16.839844 14.621094 16.933594 14.929688 C 16.960938 14.960938 16.984375 14.996094 17.003906 15.035156 C 16.738281 15.203125 16.449219 15.304688 16.136719 15.339844 C 16.0625 15.34375 15.992188 15.359375 15.925781 15.386719 C 15.609375 15.414062 15.289062 15.417969 14.964844 15.398438 C 14.929688 15.390625 14.898438 15.375 14.871094 15.351562 C 14.5 15.316406 14.15625 15.203125 13.839844 15.011719 C 13.828125 14.980469 13.804688 14.964844 13.769531 14.964844 C 13.738281 14.929688 13.699219 14.914062 13.652344 14.917969 C 13.667969 14.839844 13.6875 14.761719 13.710938 14.683594 C 13.878906 14.3125 14.023438 13.933594 14.144531 13.546875 C 14.902344 13.53125 15.660156 13.53125 16.417969 13.546875 C 16.480469 13.660156 16.527344 13.78125 16.558594 13.910156 Z M 16.558594 13.910156 "/>
<path style=" stroke:none;fill-rule:evenodd;fill:rgb(51.764706%,68.627451%,78.823529%);fill-opacity:1;" d="M 11.050781 13.582031 C 11.082031 13.59375 11.097656 13.617188 11.097656 13.652344 C 11.066406 13.640625 11.050781 13.617188 11.050781 13.582031 Z M 11.050781 13.582031 "/>
<path style=" stroke:none;fill-rule:evenodd;fill:rgb(52.156863%,69.803922%,79.215686%);fill-opacity:1;" d="M 8.824219 13.605469 C 8.820312 13.644531 8.804688 13.675781 8.777344 13.699219 C 8.769531 13.65625 8.785156 13.625 8.824219 13.605469 Z M 8.824219 13.605469 "/>
<path style=" stroke:none;fill-rule:evenodd;fill:rgb(55.294118%,70.980392%,79.215686%);fill-opacity:1;" d="M 16.558594 13.910156 C 16.59375 13.941406 16.609375 13.980469 16.605469 14.027344 C 16.570312 13.996094 16.554688 13.957031 16.558594 13.910156 Z M 16.558594 13.910156 "/>
<path style=" stroke:none;fill-rule:evenodd;fill:rgb(49.019608%,67.45098%,78.039216%);fill-opacity:1;" d="M 9.058594 13.957031 C 9.097656 13.976562 9.113281 14.007812 9.105469 14.050781 C 9.078125 14.027344 9.0625 13.996094 9.058594 13.957031 Z M 9.058594 13.957031 "/>
<path style=" stroke:none;fill-rule:evenodd;fill:rgb(52.941176%,69.411765%,78.431373%);fill-opacity:1;" d="M 7.207031 13.980469 C 7.207031 14.015625 7.191406 14.039062 7.160156 14.050781 C 7.160156 14.015625 7.175781 13.992188 7.207031 13.980469 Z M 7.207031 13.980469 "/>
<path style=" stroke:none;fill-rule:evenodd;fill:rgb(42.352941%,60.784314%,73.72549%);fill-opacity:1;" d="M 12.714844 14.050781 C 12.707031 14.234375 12.667969 14.25 12.597656 14.097656 C 12.625 14.113281 12.65625 14.121094 12.691406 14.121094 C 12.6875 14.089844 12.695312 14.066406 12.714844 14.050781 Z M 12.714844 14.050781 "/>
<path style=" stroke:none;fill-rule:evenodd;fill:rgb(52.54902%,70.196078%,78.823529%);fill-opacity:1;" d="M 8.589844 14.167969 C 8.589844 14.203125 8.574219 14.226562 8.542969 14.238281 C 8.542969 14.203125 8.558594 14.179688 8.589844 14.167969 Z M 8.589844 14.167969 "/>
<path style=" stroke:none;fill-rule:evenodd;fill:rgb(51.372549%,69.411765%,79.215686%);fill-opacity:1;" d="M 20.449219 14.285156 C 20.449219 14.320312 20.433594 14.34375 20.402344 14.355469 C 20.402344 14.320312 20.417969 14.296875 20.449219 14.285156 Z M 20.449219 14.285156 "/>
<path style=" stroke:none;fill-rule:evenodd;fill:rgb(51.372549%,69.019608%,79.215686%);fill-opacity:1;" d="M 9.363281 14.613281 C 9.394531 14.625 9.410156 14.648438 9.410156 14.683594 C 9.378906 14.671875 9.363281 14.648438 9.363281 14.613281 Z M 9.363281 14.613281 "/>
<path style=" stroke:none;fill-rule:evenodd;fill:rgb(54.117647%,69.803922%,79.607843%);fill-opacity:1;" d="M 13.769531 14.964844 C 13.804688 14.964844 13.828125 14.980469 13.839844 15.011719 C 13.804688 15.011719 13.78125 14.996094 13.769531 14.964844 Z M 13.769531 14.964844 "/>
<path style=" stroke:none;fill-rule:evenodd;fill:rgb(52.156863%,69.803922%,79.215686%);fill-opacity:1;" d="M 9.574219 15.035156 C 9.605469 15.046875 9.621094 15.070312 9.621094 15.105469 C 9.589844 15.09375 9.574219 15.070312 9.574219 15.035156 Z M 9.574219 15.035156 "/>
<path style=" stroke:none;fill-rule:evenodd;fill:rgb(52.54902%,69.803922%,79.607843%);fill-opacity:1;" d="M 16.136719 15.339844 C 16.074219 15.378906 16.003906 15.394531 15.925781 15.386719 C 15.992188 15.359375 16.0625 15.34375 16.136719 15.339844 Z M 16.136719 15.339844 "/>
<path style=" stroke:none;fill-rule:evenodd;fill:rgb(51.372549%,68.627451%,78.039216%);fill-opacity:1;" d="M 18.082031 15.503906 C 18.070312 15.546875 18.070312 15.59375 18.082031 15.644531 C 18.058594 15.613281 18.042969 15.578125 18.035156 15.539062 C 18.042969 15.515625 18.058594 15.503906 18.082031 15.503906 Z M 18.082031 15.503906 "/>
<path style=" stroke:none;fill-rule:evenodd;fill:rgb(49.411765%,67.45098%,77.647059%);fill-opacity:1;" d="M 12.996094 15.785156 C 12.984375 15.84375 12.96875 15.898438 12.949219 15.949219 C 12.945312 15.902344 12.949219 15.855469 12.960938 15.808594 C 12.96875 15.796875 12.980469 15.789062 12.996094 15.785156 Z M 12.996094 15.785156 "/>
<path style=" stroke:none;fill-rule:evenodd;fill:rgb(53.333333%,69.803922%,79.607843%);fill-opacity:1;" d="M 10.136719 15.972656 C 10.167969 15.984375 10.183594 16.007812 10.183594 16.042969 C 10.152344 16.03125 10.136719 16.007812 10.136719 15.972656 Z M 10.136719 15.972656 "/>
<path style=" stroke:none;fill-rule:evenodd;fill:rgb(36.470588%,63.921569%,78.431373%);fill-opacity:1;" d="M 4.582031 16.394531 C 4.550781 16.410156 4.519531 16.425781 4.488281 16.441406 C 4.457031 16.421875 4.457031 16.398438 4.488281 16.371094 C 4.550781 16.332031 4.613281 16.292969 4.675781 16.253906 C 4.683594 16.261719 4.691406 16.269531 4.699219 16.277344 C 4.664062 16.308594 4.625 16.335938 4.582031 16.359375 C 4.554688 16.375 4.554688 16.386719 4.582031 16.394531 Z M 4.582031 16.394531 "/>
<path style=" stroke:none;fill-rule:evenodd;fill:rgb(54.901961%,70.980392%,80%);fill-opacity:1;" d="M 16.042969 16.371094 C 16.078125 16.402344 16.09375 16.441406 16.089844 16.488281 C 16.054688 16.457031 16.039062 16.417969 16.042969 16.371094 Z M 16.042969 16.371094 "/>
<path style=" stroke:none;fill-rule:evenodd;fill:rgb(52.54902%,69.411765%,78.039216%);fill-opacity:1;" d="M 10.511719 16.535156 C 10.542969 16.546875 10.558594 16.570312 10.558594 16.605469 C 10.527344 16.59375 10.511719 16.570312 10.511719 16.535156 Z M 10.511719 16.535156 "/>
<path style=" stroke:none;fill-rule:evenodd;fill:rgb(55.686275%,71.764706%,80.784314%);fill-opacity:1;" d="M 13.160156 16.839844 C 13.222656 16.832031 13.277344 16.847656 13.324219 16.886719 C 13.265625 16.882812 13.210938 16.867188 13.160156 16.839844 Z M 13.160156 16.839844 "/>
<path style=" stroke:none;fill-rule:evenodd;fill:rgb(54.117647%,70.980392%,80.392157%);fill-opacity:1;" d="M 16.230469 16.863281 C 16.257812 16.886719 16.273438 16.917969 16.277344 16.957031 C 16.238281 16.9375 16.222656 16.90625 16.230469 16.863281 Z M 16.230469 16.863281 "/>
<path style=" stroke:none;fill-rule:evenodd;fill:rgb(51.372549%,68.627451%,78.039216%);fill-opacity:1;" d="M 17.660156 16.933594 C 17.625 16.957031 17.585938 16.972656 17.542969 16.980469 C 17.570312 16.941406 17.609375 16.925781 17.660156 16.933594 Z M 17.660156 16.933594 "/>
<path style=" stroke:none;fill-rule:evenodd;fill:rgb(51.372549%,68.627451%,78.823529%);fill-opacity:1;" d="M 10.816406 16.957031 C 10.847656 16.96875 10.863281 16.992188 10.863281 17.027344 C 10.832031 17.015625 10.816406 16.992188 10.816406 16.957031 Z M 10.816406 16.957031 "/>
<path style=" stroke:none;fill-rule:evenodd;fill:rgb(50.980392%,69.019608%,78.039216%);fill-opacity:1;" d="M 17.519531 16.980469 C 17.488281 17.015625 17.449219 17.03125 17.402344 17.027344 C 17.433594 16.992188 17.472656 16.976562 17.519531 16.980469 Z M 17.519531 16.980469 "/>
<path style=" stroke:none;fill-rule:evenodd;fill:rgb(38.823529%,59.215686%,71.372549%);fill-opacity:1;" d="M 13.535156 16.957031 C 13.597656 16.960938 13.652344 16.984375 13.699219 17.027344 C 13.675781 17.023438 13.65625 17.03125 13.640625 17.050781 C 13.609375 17.011719 13.578125 16.980469 13.535156 16.957031 Z M 13.535156 16.957031 "/>
<path style=" stroke:none;fill-rule:evenodd;fill:rgb(55.686275%,71.764706%,80.392157%);fill-opacity:1;" d="M 22.886719 17.097656 C 22.882812 17.234375 22.867188 17.367188 22.839844 17.496094 C 22.835938 17.359375 22.851562 17.226562 22.886719 17.097656 Z M 22.886719 17.097656 "/>
<path style=" stroke:none;fill-rule:evenodd;fill:rgb(54.509804%,70.588235%,79.607843%);fill-opacity:1;" d="M 22.839844 17.496094 C 22.839844 17.589844 22.824219 17.675781 22.792969 17.753906 C 22.792969 17.660156 22.808594 17.574219 22.839844 17.496094 Z M 22.839844 17.496094 "/>
<path style=" stroke:none;fill-rule:evenodd;fill:rgb(38.431373%,59.215686%,71.764706%);fill-opacity:1;" d="M 4.792969 17.707031 C 4.820312 17.757812 4.835938 17.8125 4.839844 17.871094 C 4.800781 17.824219 4.785156 17.769531 4.792969 17.707031 Z M 4.792969 17.707031 "/>
<path style=" stroke:none;fill-rule:evenodd;fill:rgb(55.686275%,71.372549%,80%);fill-opacity:1;" d="M 2.003906 17.941406 C 2.035156 17.996094 2.050781 18.058594 2.050781 18.128906 C 2.015625 18.074219 2 18.011719 2.003906 17.941406 Z M 2.003906 17.941406 "/>
<path style=" stroke:none;fill-rule:evenodd;fill:rgb(52.156863%,69.803922%,79.215686%);fill-opacity:1;" d="M 22.746094 17.964844 C 22.742188 18.054688 22.726562 18.140625 22.699219 18.222656 C 22.695312 18.128906 22.710938 18.042969 22.746094 17.964844 Z M 22.746094 17.964844 "/>
<path style=" stroke:none;fill-rule:evenodd;fill:rgb(54.509804%,70.980392%,79.607843%);fill-opacity:1;" d="M 22.699219 18.222656 C 22.695312 18.277344 22.679688 18.324219 22.652344 18.363281 C 22.648438 18.308594 22.664062 18.261719 22.699219 18.222656 Z M 22.699219 18.222656 "/>
<path style=" stroke:none;fill-rule:evenodd;fill:rgb(54.117647%,71.372549%,80.392157%);fill-opacity:1;" d="M 2.050781 18.128906 C 2.09375 18.230469 2.125 18.339844 2.144531 18.457031 C 2.089844 18.355469 2.058594 18.246094 2.050781 18.128906 Z M 2.050781 18.128906 "/>
<path style=" stroke:none;fill-rule:evenodd;fill:rgb(54.901961%,70.980392%,80.392157%);fill-opacity:1;" d="M 22.652344 18.363281 C 22.648438 18.417969 22.632812 18.464844 22.605469 18.503906 C 22.601562 18.449219 22.617188 18.402344 22.652344 18.363281 Z M 22.652344 18.363281 "/>
<path style=" stroke:none;fill-rule:evenodd;fill:rgb(56.470588%,71.764706%,80.784314%);fill-opacity:1;" d="M 22.582031 18.550781 C 22.585938 18.597656 22.570312 18.636719 22.535156 18.667969 C 22.53125 18.621094 22.546875 18.582031 22.582031 18.550781 Z M 22.582031 18.550781 "/>
<path style=" stroke:none;fill-rule:evenodd;fill:rgb(54.509804%,70.588235%,79.215686%);fill-opacity:1;" d="M 2.191406 18.597656 C 2.226562 18.636719 2.242188 18.683594 2.238281 18.738281 C 2.210938 18.699219 2.195312 18.652344 2.191406 18.597656 Z M 2.191406 18.597656 "/>
<path style=" stroke:none;fill-rule:evenodd;fill:rgb(57.254902%,72.941176%,81.568627%);fill-opacity:1;" d="M 22.535156 18.667969 C 22.503906 18.761719 22.472656 18.855469 22.441406 18.949219 C 22.433594 18.839844 22.464844 18.746094 22.535156 18.667969 Z M 22.535156 18.667969 "/>
<path style=" stroke:none;fill-rule:evenodd;fill:rgb(54.117647%,69.803922%,79.215686%);fill-opacity:1;" d="M 2.332031 18.996094 C 2.386719 19.0625 2.417969 19.140625 2.425781 19.230469 C 2.382812 19.160156 2.351562 19.082031 2.332031 18.996094 Z M 2.332031 18.996094 "/>
<path style=" stroke:none;fill-rule:evenodd;fill:rgb(56.862745%,72.156863%,81.176471%);fill-opacity:1;" d="M 22.394531 19.066406 C 22.375 19.125 22.351562 19.179688 22.324219 19.230469 C 22.316406 19.160156 22.339844 19.105469 22.394531 19.066406 Z M 22.394531 19.066406 "/>
<path style=" stroke:none;fill-rule:evenodd;fill:rgb(40%,59.215686%,72.156863%);fill-opacity:1;" d="M 22.230469 19.394531 C 22.207031 19.449219 22.175781 19.496094 22.136719 19.535156 C 22.148438 19.492188 22.148438 19.453125 22.136719 19.417969 C 22.164062 19.394531 22.195312 19.386719 22.230469 19.394531 Z M 22.230469 19.394531 "/>
<path style=" stroke:none;fill-rule:evenodd;fill:rgb(53.72549%,70.196078%,79.215686%);fill-opacity:1;" d="M 2.472656 19.324219 C 2.535156 19.371094 2.574219 19.433594 2.589844 19.511719 C 2.539062 19.457031 2.5 19.394531 2.472656 19.324219 Z M 2.472656 19.324219 "/>
<path style=" stroke:none;fill-rule:evenodd;fill:rgb(53.72549%,69.803922%,78.823529%);fill-opacity:1;" d="M 2.613281 19.558594 C 2.648438 19.566406 2.664062 19.589844 2.660156 19.628906 C 2.640625 19.609375 2.625 19.585938 2.613281 19.558594 Z M 2.613281 19.558594 "/>
<path style=" stroke:none;fill-rule:evenodd;fill:rgb(54.117647%,70.196078%,79.215686%);fill-opacity:1;" d="M 2.707031 19.746094 C 2.742188 19.753906 2.757812 19.777344 2.753906 19.816406 C 2.734375 19.796875 2.71875 19.773438 2.707031 19.746094 Z M 2.707031 19.746094 "/>
<path style=" stroke:none;fill-rule:evenodd;fill:rgb(49.019608%,66.27451%,76.470588%);fill-opacity:1;" d="M 2.753906 19.816406 C 2.808594 19.84375 2.839844 19.890625 2.847656 19.957031 C 2.804688 19.917969 2.773438 19.871094 2.753906 19.816406 Z M 2.753906 19.816406 "/>
<path style=" stroke:none;fill-rule:evenodd;fill:rgb(53.72549%,69.803922%,78.823529%);fill-opacity:1;" d="M 2.871094 20.003906 C 2.925781 20.011719 2.957031 20.042969 2.964844 20.097656 C 2.925781 20.074219 2.894531 20.042969 2.871094 20.003906 Z M 2.871094 20.003906 "/>
<path style=" stroke:none;fill-rule:evenodd;fill:rgb(54.901961%,70.588235%,80%);fill-opacity:1;" d="M 3.082031 20.285156 C 3.152344 20.304688 3.191406 20.351562 3.199219 20.425781 C 3.160156 20.378906 3.121094 20.332031 3.082031 20.285156 Z M 3.082031 20.285156 "/>
<path style=" stroke:none;fill-rule:evenodd;fill:rgb(58.823529%,73.333333%,82.352941%);fill-opacity:1;" d="M 21.597656 20.355469 C 21.585938 20.382812 21.570312 20.40625 21.550781 20.425781 C 21.546875 20.386719 21.5625 20.363281 21.597656 20.355469 Z M 21.597656 20.355469 "/>
<path style=" stroke:none;fill-rule:evenodd;fill:rgb(50.588235%,67.45098%,76.862745%);fill-opacity:1;" d="M 3.199219 20.425781 C 3.242188 20.445312 3.273438 20.476562 3.292969 20.519531 C 3.242188 20.511719 3.210938 20.480469 3.199219 20.425781 Z M 3.199219 20.425781 "/>
<path style=" stroke:none;fill-rule:evenodd;fill:rgb(75.686275%,84.705882%,89.803922%);fill-opacity:1;" d="M 21.480469 20.496094 C 21.480469 20.527344 21.464844 20.542969 21.433594 20.542969 C 21.441406 20.519531 21.457031 20.503906 21.480469 20.496094 Z M 21.480469 20.496094 "/>
<path style=" stroke:none;fill-rule:evenodd;fill:rgb(52.54902%,68.627451%,78.039216%);fill-opacity:1;" d="M 3.410156 20.660156 C 3.464844 20.667969 3.496094 20.699219 3.503906 20.753906 C 3.464844 20.730469 3.433594 20.699219 3.410156 20.660156 Z M 3.410156 20.660156 "/>
<path style=" stroke:none;fill-rule:evenodd;fill:rgb(68.627451%,80%,85.882353%);fill-opacity:1;" d="M 21.316406 20.660156 C 21.316406 20.691406 21.300781 20.707031 21.269531 20.707031 C 21.277344 20.683594 21.292969 20.667969 21.316406 20.660156 Z M 21.316406 20.660156 "/>
<path style=" stroke:none;fill-rule:evenodd;fill:rgb(57.254902%,72.54902%,80.784314%);fill-opacity:1;" d="M 3.527344 20.800781 C 3.5625 20.800781 3.585938 20.816406 3.597656 20.847656 C 3.5625 20.847656 3.539062 20.832031 3.527344 20.800781 Z M 3.527344 20.800781 "/>
<path style=" stroke:none;fill-rule:evenodd;fill:rgb(52.54902%,68.627451%,78.039216%);fill-opacity:1;" d="M 3.714844 20.941406 C 3.753906 20.949219 3.777344 20.972656 3.785156 21.011719 C 3.746094 21.003906 3.722656 20.980469 3.714844 20.941406 Z M 3.714844 20.941406 "/>
<path style=" stroke:none;fill-rule:evenodd;fill:rgb(52.54902%,69.019608%,78.039216%);fill-opacity:1;" d="M 3.785156 21.011719 C 3.839844 21.019531 3.871094 21.050781 3.878906 21.105469 C 3.839844 21.082031 3.808594 21.050781 3.785156 21.011719 Z M 3.785156 21.011719 "/>
<path style=" stroke:none;fill-rule:evenodd;fill:rgb(54.509804%,70.588235%,78.431373%);fill-opacity:1;" d="M 3.878906 21.105469 C 3.914062 21.105469 3.9375 21.121094 3.949219 21.152344 C 3.914062 21.152344 3.890625 21.136719 3.878906 21.105469 Z M 3.878906 21.105469 "/>
<path style=" stroke:none;fill-rule:evenodd;fill:rgb(58.039216%,73.72549%,80.392157%);fill-opacity:1;" d="M 4.066406 21.269531 C 4.101562 21.269531 4.125 21.285156 4.136719 21.316406 C 4.101562 21.316406 4.078125 21.300781 4.066406 21.269531 Z M 4.066406 21.269531 "/>
<path style=" stroke:none;fill-rule:evenodd;fill:rgb(58.039216%,73.333333%,80.784314%);fill-opacity:1;" d="M 20.519531 21.363281 C 20.5 21.382812 20.476562 21.398438 20.449219 21.410156 C 20.457031 21.375 20.480469 21.359375 20.519531 21.363281 Z M 20.519531 21.363281 "/>
<path style=" stroke:none;fill-rule:evenodd;fill:rgb(52.54902%,69.019608%,78.431373%);fill-opacity:1;" d="M 4.324219 21.433594 C 4.367188 21.4375 4.398438 21.460938 4.417969 21.503906 C 4.375 21.5 4.34375 21.476562 4.324219 21.433594 Z M 4.324219 21.433594 "/>
<path style=" stroke:none;fill-rule:evenodd;fill:rgb(53.333333%,69.803922%,79.215686%);fill-opacity:1;" d="M 4.417969 21.503906 C 4.453125 21.503906 4.476562 21.519531 4.488281 21.550781 C 4.453125 21.550781 4.429688 21.535156 4.417969 21.503906 Z M 4.417969 21.503906 "/>
<path style=" stroke:none;fill-rule:evenodd;fill:rgb(56.078431%,71.372549%,79.607843%);fill-opacity:1;" d="M 4.488281 21.550781 C 4.523438 21.550781 4.546875 21.566406 4.558594 21.597656 C 4.523438 21.597656 4.5 21.582031 4.488281 21.550781 Z M 4.488281 21.550781 "/>
<path style=" stroke:none;fill-rule:evenodd;fill:rgb(57.647059%,72.941176%,81.176471%);fill-opacity:1;" d="M 20.191406 21.597656 C 20.171875 21.617188 20.148438 21.632812 20.121094 21.644531 C 20.128906 21.609375 20.152344 21.59375 20.191406 21.597656 Z M 20.191406 21.597656 "/>
<path style=" stroke:none;fill-rule:evenodd;fill:rgb(54.117647%,69.803922%,79.607843%);fill-opacity:1;" d="M 4.558594 21.597656 C 4.59375 21.597656 4.617188 21.613281 4.628906 21.644531 C 4.59375 21.644531 4.570312 21.628906 4.558594 21.597656 Z M 4.558594 21.597656 "/>
<path style=" stroke:none;fill-rule:evenodd;fill:rgb(37.647059%,57.647059%,70.196078%);fill-opacity:1;" d="M 4.886719 21.761719 C 4.808594 21.75 4.738281 21.71875 4.675781 21.667969 C 4.707031 21.671875 4.734375 21.664062 4.757812 21.644531 C 4.800781 21.683594 4.84375 21.722656 4.886719 21.761719 Z M 4.886719 21.761719 "/>
<path style=" stroke:none;fill-rule:evenodd;fill:rgb(59.215686%,73.333333%,81.568627%);fill-opacity:1;" d="M 19.980469 21.714844 C 19.949219 21.75 19.910156 21.765625 19.863281 21.761719 C 19.894531 21.726562 19.933594 21.710938 19.980469 21.714844 Z M 19.980469 21.714844 "/>
<path style=" stroke:none;fill-rule:evenodd;fill:rgb(53.72549%,70.980392%,78.823529%);fill-opacity:1;" d="M 4.933594 21.785156 C 4.96875 21.785156 4.992188 21.800781 5.003906 21.832031 C 4.96875 21.832031 4.945312 21.816406 4.933594 21.785156 Z M 4.933594 21.785156 "/>
<path style=" stroke:none;fill-rule:evenodd;fill:rgb(63.529412%,76.078431%,83.921569%);fill-opacity:1;" d="M 19.816406 21.785156 C 19.792969 21.8125 19.761719 21.828125 19.722656 21.832031 C 19.742188 21.792969 19.773438 21.777344 19.816406 21.785156 Z M 19.816406 21.785156 "/>
<use xlink:href="#surface5" mask="url(#mask0)"/>
<path style=" stroke:none;fill-rule:evenodd;fill:rgb(57.647059%,72.941176%,81.176471%);fill-opacity:1;" d="M 5.097656 21.878906 C 5.132812 21.878906 5.15625 21.894531 5.167969 21.925781 C 5.132812 21.925781 5.109375 21.910156 5.097656 21.878906 Z M 5.097656 21.878906 "/>
<path style=" stroke:none;fill-rule:evenodd;fill:rgb(58.039216%,72.54902%,81.176471%);fill-opacity:1;" d="M 19.582031 21.902344 C 19.5625 21.921875 19.539062 21.9375 19.511719 21.949219 C 19.519531 21.914062 19.542969 21.898438 19.582031 21.902344 Z M 19.582031 21.902344 "/>
<path style=" stroke:none;fill-rule:evenodd;fill:rgb(62.745098%,76.470588%,83.529412%);fill-opacity:1;" d="M 19.300781 22.042969 C 19.277344 22.070312 19.246094 22.085938 19.207031 22.089844 C 19.226562 22.050781 19.257812 22.035156 19.300781 22.042969 Z M 19.300781 22.042969 "/>
<path style=" stroke:none;fill-rule:evenodd;fill:rgb(41.568627%,61.176471%,72.941176%);fill-opacity:1;" d="M 5.519531 22.089844 C 5.597656 22.082031 5.660156 22.105469 5.707031 22.160156 C 5.636719 22.148438 5.574219 22.125 5.519531 22.089844 Z M 5.519531 22.089844 "/>
<path style=" stroke:none;fill-rule:evenodd;fill:rgb(56.862745%,72.54902%,81.568627%);fill-opacity:1;" d="M 19.019531 22.160156 C 18.980469 22.1875 18.933594 22.203125 18.878906 22.207031 C 18.917969 22.171875 18.964844 22.15625 19.019531 22.160156 Z M 19.019531 22.160156 "/>
<path style=" stroke:none;fill-rule:evenodd;fill:rgb(54.117647%,70.980392%,80%);fill-opacity:1;" d="M 18.878906 22.207031 C 18.777344 22.246094 18.667969 22.269531 18.550781 22.277344 C 18.652344 22.238281 18.761719 22.214844 18.878906 22.207031 Z M 18.878906 22.207031 "/>
<path style=" stroke:none;fill-rule:evenodd;fill:rgb(52.156863%,69.411765%,79.215686%);fill-opacity:1;" d="M 5.824219 22.207031 C 5.988281 22.214844 6.144531 22.246094 6.292969 22.300781 C 6.132812 22.28125 5.976562 22.25 5.824219 22.207031 Z M 5.824219 22.207031 "/>
<path style=" stroke:none;fill-rule:evenodd;fill:rgb(55.686275%,72.156863%,81.176471%);fill-opacity:1;" d="M 18.292969 22.324219 C 18.203125 22.355469 18.109375 22.371094 18.011719 22.371094 C 18.097656 22.335938 18.191406 22.320312 18.292969 22.324219 Z M 18.292969 22.324219 "/>
<path style=" stroke:none;fill-rule:evenodd;fill:rgb(52.156863%,69.803922%,79.215686%);fill-opacity:1;" d="M 6.738281 22.371094 C 6.859375 22.375 6.976562 22.390625 7.089844 22.417969 C 6.964844 22.425781 6.847656 22.410156 6.738281 22.371094 Z M 6.738281 22.371094 "/>
<path style=" stroke:none;fill-rule:evenodd;fill:rgb(46.666667%,66.27451%,76.470588%);fill-opacity:1;" d="M 18.011719 22.371094 C 17.90625 22.394531 17.796875 22.414062 17.683594 22.429688 C 14.148438 22.449219 10.617188 22.445312 7.089844 22.417969 C 10.613281 22.421875 14.136719 22.417969 17.660156 22.40625 C 17.777344 22.382812 17.894531 22.371094 18.011719 22.371094 Z M 18.011719 22.371094 "/>
</g>
</svg>
